SplineFontDB: 3.2
FontName: TengwarNenya
FullName: Tengwar Nenya
FamilyName: Tengwar Nenya
Weight: Regular
Copyright: Shankar Sivarajan
Version: 
ItalicAngle: 0
UnderlinePosition: -113
UnderlineWidth: 45
Ascent: 736
Descent: 264
InvalidEm: 0
LayerCount: 2
Layer: 0 1 "Back" 1
Layer: 1 1 "Fore" 0
XUID: [1021 146 -1796264217 11774]
StyleMap: 0x0040
FSType: 8
OS2Version: 4
OS2_WeightWidthSlopeOnly: 0
OS2_UseTypoMetrics: 1
CreationTime: 1641305206
ModificationTime: 1685279910
PfmFamily: 81
TTFWeight: 400
TTFWidth: 5
LineGap: 270
VLineGap: 0
Panose: 0 0 0 0 0 0 0 0 0 0
OS2TypoAscent: 736
OS2TypoAOffset: 0
OS2TypoDescent: -264
OS2TypoDOffset: 0
OS2TypoLinegap: 270
OS2WinAscent: 950
OS2WinAOffset: 0
OS2WinDescent: 320
OS2WinDOffset: 0
HheadAscent: 736
HheadAOffset: 0
HheadDescent: -264
HheadDOffset: 0
OS2SubXSize: 650
OS2SubYSize: 600
OS2SubXOff: 0
OS2SubYOff: 75
OS2SupXSize: 650
OS2SupYSize: 600
OS2SupXOff: 0
OS2SupYOff: 350
OS2StrikeYSize: 50
OS2StrikeYPos: 200
OS2CapHeight: 607
OS2XHeight: 400
OS2Vendor: 'UKWN'
OS2CodePages: 00000001.00000000
OS2UnicodeRanges: 84000003.10002000.00000000.00000000
Lookup: 4 0 1 "Ligatures" { "Ligatures subtable"  } ['liga' ('latn' <'dflt' > 'grek' <'dflt' > 'DFLT' <'dflt' > ) ]
Lookup: 6 0 0 "WidthAdjust" { "WidthAdjust contextual 0"  "WidthAdjust contextual 1"  "WidthAdjust contextual 2"  "WidthAdjust contextual 3"  "WidthAdjust contextual 4"  "WidthAdjust contextual 5"  "WidthAdjust contextual 6"  "WidthAdjust contextual 7"  } ['liga' ('latn' <'dflt' > 'grek' <'dflt' > 'DFLT' <'dflt' > ) ]
Lookup: 1 0 0 "Single Substitution lookup 2" { "Single Substitution lookup 2 subtable"  } []
Lookup: 1 0 0 "Single Substitution lookup 3" { "Single Substitution lookup 3 subtable"  } []
Lookup: 1 0 0 "Single Substitution lookup 4" { "Single Substitution lookup 4 subtable"  } []
Lookup: 1 0 0 "Single Substitution lookup 5" { "Single Substitution lookup 5 subtable"  } []

StartChar: .notdef
Encoding: 127 -1 0
Width: 556
GlyphClass: 1
Flags: W
LayerCount: 2
Fore
SplineSet
50 0 m 1,0,-1
 50 625 l 1,1,-1
 400 625 l 1,2,-1
 400 0 l 1,3,-1
 50 0 l 1,0,-1
118 68 m 1,4,-1
 332 68 l 1,5,-1
 332 555 l 1,6,-1
 118 555 l 1,7,-1
 118 68 l 1,4,-1
EndSplineSet
Validated: 1
EndChar

StartChar: tinco
Encoding: 12 57344 2
Width: 517
GlyphClass: 2
Flags: W
AnchorPoint: "xhook" 300 0 basechar 0
AnchorPoint: "TehtaBelow" 245 -125 basechar 0
AnchorPoint: "TehtaAbove" 320 550 basechar 0
LayerCount: 2
Fore
SplineSet
107 24 m 1,0,1
 100 1 100 1 84 -62 c 128,-1,2
 68 -125 68 -125 44 -229 c 0,3,4
 43 -236 43 -236 37 -236 c 0,5,6
 10 -237 10 -237 -11 -240 c 128,-1,7
 -32 -243 -32 -243 -34 -243 c 0,8,9
 -39 -243 -39 -243 -38 -239 c 0,10,11
 -17 -164 -17 -164 4 -84 c 128,-1,12
 25 -4 25 -4 44.5 71.5 c 128,-1,13
 64 147 64 147 79.5 208.5 c 128,-1,14
 95 270 95 270 104 309 c 128,-1,15
 113 348 113 348 113 355 c 0,16,17
 113 371 113 371 96 371 c 0,18,19
 83 371 83 371 63 367 c 128,-1,20
 43 363 43 363 41 363 c 128,-1,21
 39 363 39 363 37 368.5 c 128,-1,22
 35 374 35 374 35 379 c 0,23,24
 35 386 35 386 38 386 c 0,25,26
 86 398 86 398 121 403 c 128,-1,27
 156 408 156 408 167 408 c 0,28,29
 181 408 181 408 186 400.5 c 128,-1,30
 191 393 191 393 191 383 c 128,-1,31
 191 373 191 373 182.5 342.5 c 128,-1,32
 174 312 174 312 165 277 c 2,33,-1
 107 24 l 1,0,1
157 256 m 1,34,-1
 163 255 l 1,35,36
 210 334 210 334 259 375 c 128,-1,37
 308 416 308 416 361 416 c 0,38,39
 402 416 402 416 418.5 394.5 c 128,-1,40
 435 373 435 373 435 346 c 0,41,42
 435 325 435 325 426.5 293.5 c 128,-1,43
 418 262 418 262 405.5 226.5 c 128,-1,44
 393 191 393 191 380 157 c 128,-1,45
 367 123 367 123 358.5 95.5 c 128,-1,46
 350 68 350 68 350 54 c 0,47,48
 350 47 350 47 354.5 39.5 c 128,-1,49
 359 32 359 32 373 32 c 0,50,51
 390 32 390 32 406 44 c 128,-1,52
 422 56 422 56 433.5 67.5 c 128,-1,53
 445 79 445 79 446 79 c 0,54,55
 450 79 450 79 457 72 c 128,-1,56
 464 65 464 65 464 62 c 0,57,58
 464 61 464 61 454 49.5 c 128,-1,59
 444 38 444 38 426.5 23 c 128,-1,60
 409 8 409 8 385.5 -3 c 128,-1,61
 362 -14 362 -14 335 -14 c 0,62,63
 275 -14 275 -14 275 42 c 0,64,65
 275 70 275 70 287.5 112 c 128,-1,66
 300 154 300 154 316.5 198.5 c 128,-1,67
 333 243 333 243 345.5 281 c 128,-1,68
 358 319 358 319 358 338 c 0,69,70
 358 371 358 371 328 371 c 0,71,72
 294 371 294 371 249 326 c 128,-1,73
 204 281 204 281 163 199 c 128,-1,74
 122 117 122 117 97 7 c 0,75,76
 96 0 96 0 90 0 c 1,77,-1
 157 256 l 1,34,-1
EndSplineSet
Validated: 1048581
EndChar

StartChar: parma
Encoding: 13 57345 3
Width: 494
GlyphClass: 2
Flags: W
AnchorPoint: "xhook" 300 0 basechar 0
AnchorPoint: "TehtaAbove" 320 550 basechar 0
AnchorPoint: "TehtaBelow" 245 -125 basechar 0
LayerCount: 2
Fore
SplineSet
107 24 m 1,0,1
 100 1 100 1 84 -62 c 128,-1,2
 68 -125 68 -125 44 -229 c 0,3,4
 43 -236 43 -236 37 -236 c 0,5,6
 10 -237 10 -237 -11 -240 c 128,-1,7
 -32 -243 -32 -243 -34 -243 c 0,8,9
 -39 -243 -39 -243 -38 -239 c 0,10,11
 -17 -164 -17 -164 4 -84 c 128,-1,12
 25 -4 25 -4 44.5 71.5 c 128,-1,13
 64 147 64 147 79.5 208.5 c 128,-1,14
 95 270 95 270 104 309 c 128,-1,15
 113 348 113 348 113 355 c 0,16,17
 113 371 113 371 96 371 c 0,18,19
 83 371 83 371 63 367 c 128,-1,20
 43 363 43 363 41 363 c 128,-1,21
 39 363 39 363 37 368.5 c 128,-1,22
 35 374 35 374 35 379 c 0,23,24
 35 386 35 386 38 386 c 0,25,26
 86 398 86 398 121 403 c 128,-1,27
 156 408 156 408 167 408 c 0,28,29
 181 408 181 408 186 400.5 c 128,-1,30
 191 393 191 393 191 383 c 128,-1,31
 191 373 191 373 182.5 342.5 c 128,-1,32
 174 312 174 312 165 277 c 1,33,-1
 169 276 l 1,34,35
 186 306 186 306 212.5 338.5 c 128,-1,36
 239 371 239 371 272 393.5 c 128,-1,37
 305 416 305 416 340 416 c 0,38,39
 392 416 392 416 416 381 c 128,-1,40
 440 346 440 346 440 288 c 0,41,42
 440 239 440 239 423 186 c 128,-1,43
 406 133 406 133 373.5 87.5 c 128,-1,44
 341 42 341 42 296 14 c 128,-1,45
 251 -14 251 -14 195 -14 c 0,46,47
 170 -14 170 -14 147 -4.5 c 128,-1,48
 124 5 124 5 107 24 c 1,0,1
124 74 m 0,49,50
 124 51 124 51 142.5 33.5 c 128,-1,51
 161 16 161 16 194 16 c 0,52,53
 232 16 232 16 262.5 42.5 c 128,-1,54
 293 69 293 69 314.5 111 c 128,-1,55
 336 153 336 153 348 200.5 c 128,-1,56
 360 248 360 248 360 289 c 0,57,58
 360 371 360 371 316 371 c 0,59,60
 285 371 285 371 256.5 346.5 c 128,-1,61
 228 322 228 322 203.5 284 c 128,-1,62
 179 246 179 246 161.5 204.5 c 128,-1,63
 144 163 144 163 134 127.5 c 128,-1,64
 124 92 124 92 124 74 c 0,49,50
EndSplineSet
Validated: 1048577
EndChar

StartChar: calma
Encoding: 14 57346 4
Width: 494
GlyphClass: 2
Flags: W
AnchorPoint: "xhook" 60 0 basechar 0
AnchorPoint: "TehtaAbove" 290 550 basechar 0
AnchorPoint: "TehtaBelow" 75 -125 basechar 0
LayerCount: 2
Fore
SplineSet
295 112 m 2,0,-1
 362 378 l 2,1,2
 367 392 367 392 370.5 397 c 128,-1,3
 374 402 374 402 385 403 c 0,4,5
 404 406 404 406 417.5 407 c 128,-1,6
 431 408 431 408 434 408 c 0,7,8
 436 408 436 408 439 407.5 c 128,-1,9
 442 407 442 407 442 402 c 0,10,11
 442 399 442 399 440.5 395 c 128,-1,12
 439 391 439 391 437 383 c 0,13,14
 425 339 425 339 414 301 c 128,-1,15
 403 263 403 263 392.5 223 c 128,-1,16
 382 183 382 183 370 133 c 0,17,18
 351 58 351 58 329 -37.5 c 128,-1,19
 307 -133 307 -133 287 -229 c 0,20,21
 286 -236 286 -236 280 -236 c 0,22,23
 255 -237 255 -237 233 -240 c 128,-1,24
 211 -243 211 -243 209 -243 c 0,25,26
 204 -243 204 -243 205 -239 c 0,27,28
 214 -204 214 -204 223 -171 c 128,-1,29
 232 -138 232 -138 242 -99 c 128,-1,30
 252 -60 252 -60 264.5 -9 c 128,-1,31
 277 42 277 42 295 112 c 2,0,-1
292 3 m 1,32,33
 280 27 280 27 280 42 c 0,34,35
 280 62 280 62 285 83 c 128,-1,36
 290 104 290 104 296 123 c 1,37,-1
 290 124 l 1,38,39
 253 60 253 60 209 23 c 128,-1,40
 165 -14 165 -14 109 -14 c 0,41,42
 69 -14 69 -14 52 8 c 128,-1,43
 35 30 35 30 35 59 c 0,44,45
 35 86 35 86 46.5 127 c 128,-1,46
 58 168 58 168 72.5 213 c 128,-1,47
 87 258 87 258 98.5 296 c 128,-1,48
 110 334 110 334 110 355 c 0,49,50
 110 371 110 371 93 371 c 0,51,52
 80 371 80 371 61.5 367.5 c 128,-1,53
 43 364 43 364 41 364 c 128,-1,54
 39 364 39 364 37 369.5 c 128,-1,55
 35 375 35 375 35 380 c 0,56,57
 35 387 35 387 38 387 c 0,58,59
 86 399 86 399 119.5 403.5 c 128,-1,60
 153 408 153 408 164 408 c 0,61,62
 178 408 178 408 183 400.5 c 128,-1,63
 188 393 188 393 188 383 c 0,64,65
 188 353 188 353 176 309.5 c 128,-1,66
 164 266 164 266 149 219.5 c 128,-1,67
 134 173 134 173 122 132.5 c 128,-1,68
 110 92 110 92 110 68 c 0,69,70
 110 48 110 48 118.5 40 c 128,-1,71
 127 32 127 32 142 32 c 0,72,73
 176 32 176 32 214 67.5 c 128,-1,74
 252 103 252 103 290.5 180 c 128,-1,75
 329 257 329 257 362 381 c 0,76,77
 366 394 366 394 369.5 397.5 c 128,-1,78
 373 401 373 401 385 403 c 0,79,80
 404 406 404 406 419 407 c 128,-1,81
 434 408 434 408 437 408 c 0,82,83
 444 408 444 408 444 402 c 0,84,85
 444 398 444 398 439 383 c 0,86,87
 426 343 426 343 411 291.5 c 128,-1,88
 396 240 396 240 383 191 c 2,89,-1
 362 104 l 1,90,-1
 292 3 l 1,32,33
EndSplineSet
Validated: 1048581
EndChar

StartChar: quesse
Encoding: 15 57347 5
Width: 494
GlyphClass: 2
Flags: W
AnchorPoint: "xhook" 60 0 basechar 0
AnchorPoint: "TehtaAbove" 290 550 basechar 0
AnchorPoint: "TehtaBelow" 75 -125 basechar 0
LayerCount: 2
Fore
SplineSet
297 112 m 1,0,-1
 293 113 l 1,1,2
 276 81 276 81 252.5 52 c 128,-1,3
 229 23 229 23 200 4.5 c 128,-1,4
 171 -14 171 -14 135 -14 c 0,5,6
 96 -14 96 -14 72.5 5 c 128,-1,7
 49 24 49 24 38.5 53.5 c 128,-1,8
 28 83 28 83 28 114 c 0,9,10
 28 167 28 167 45.5 220 c 128,-1,11
 63 273 63 273 95.5 317.5 c 128,-1,12
 128 362 128 362 173 389 c 128,-1,13
 218 416 218 416 274 416 c 0,14,15
 300 416 300 416 322.5 406.5 c 128,-1,16
 345 397 345 397 361 377 c 1,17,-1
 364 378 l 1,18,19
 369 392 369 392 372.5 397 c 128,-1,20
 376 402 376 402 387 403 c 0,21,22
 406 406 406 406 419.5 407 c 128,-1,23
 433 408 433 408 436 408 c 0,24,25
 438 408 438 408 441 407.5 c 128,-1,26
 444 407 444 407 444 402 c 0,27,28
 444 399 444 399 442.5 395 c 128,-1,29
 441 391 441 391 439 383 c 0,30,31
 427 339 427 339 416 301 c 128,-1,32
 405 263 405 263 394.5 223 c 128,-1,33
 384 183 384 183 372 133 c 0,34,35
 353 58 353 58 331 -37.5 c 128,-1,36
 309 -133 309 -133 289 -229 c 0,37,38
 288 -236 288 -236 282 -236 c 0,39,40
 257 -237 257 -237 235 -240 c 128,-1,41
 213 -243 213 -243 211 -243 c 0,42,43
 206 -243 206 -243 207 -239 c 0,44,45
 216 -204 216 -204 225 -171 c 128,-1,46
 234 -138 234 -138 244 -99 c 128,-1,47
 254 -60 254 -60 266.5 -9 c 128,-1,48
 279 42 279 42 297 112 c 1,0,-1
343 329 m 0,49,50
 343 352 343 352 327.5 369.5 c 128,-1,51
 312 387 312 387 278 387 c 128,-1,52
 244 387 244 387 213.5 363 c 128,-1,53
 183 339 183 339 159 299.5 c 128,-1,54
 135 260 135 260 121.5 211.5 c 128,-1,55
 108 163 108 163 108 113 c 0,56,57
 108 82 108 82 119.5 56.5 c 128,-1,58
 131 31 131 31 159 31 c 0,59,60
 190 31 190 31 217.5 55 c 128,-1,61
 245 79 245 79 268 116.5 c 128,-1,62
 291 154 291 154 307.5 195.5 c 128,-1,63
 324 237 324 237 333.5 273 c 128,-1,64
 343 309 343 309 343 329 c 0,49,50
EndSplineSet
Validated: 1048577
EndChar

StartChar: ando
Encoding: 16 57348 6
Width: 749
GlyphClass: 2
Flags: W
AnchorPoint: "xhook" 540 0 basechar 0
AnchorPoint: "TehtaAbove" 440 550 basechar 0
AnchorPoint: "TehtaBelow" 265 -125 basechar 0
LayerCount: 2
Fore
SplineSet
91 24 m 1,0,1
 84 1 84 1 68 -62 c 128,-1,2
 52 -125 52 -125 28 -229 c 0,3,4
 27 -236 27 -236 21 -236 c 0,5,6
 -6 -237 -6 -237 -27 -240 c 128,-1,7
 -48 -243 -48 -243 -50 -243 c 0,8,9
 -55 -243 -55 -243 -54 -239 c 0,10,11
 -33 -164 -33 -164 -12 -84 c 128,-1,12
 9 -4 9 -4 28.5 71.5 c 128,-1,13
 48 147 48 147 63.5 208.5 c 128,-1,14
 79 270 79 270 88 309 c 128,-1,15
 97 348 97 348 97 355 c 0,16,17
 97 371 97 371 80 371 c 0,18,19
 67 371 67 371 47 367 c 128,-1,20
 27 363 27 363 25 363 c 128,-1,21
 23 363 23 363 21 368.5 c 128,-1,22
 19 374 19 374 19 379 c 0,23,24
 19 386 19 386 22 386 c 0,25,26
 70 398 70 398 105 403 c 128,-1,27
 140 408 140 408 151 408 c 0,28,29
 165 408 165 408 170 400.5 c 128,-1,30
 175 393 175 393 175 383 c 128,-1,31
 175 373 175 373 166.5 342.5 c 128,-1,32
 158 312 158 312 149 277 c 2,33,-1
 91 24 l 1,0,1
396 260 m 1,34,35
 444 340 444 340 490.5 377.5 c 128,-1,36
 537 415 537 415 586 415 c 0,37,38
 626 415 626 415 643 394.5 c 128,-1,39
 660 374 660 374 660 345 c 0,40,41
 660 324 660 324 651.5 292.5 c 128,-1,42
 643 261 643 261 630 225 c 0,43,44
 617 190 617 190 605 156 c 128,-1,45
 593 122 593 122 584 94.5 c 128,-1,46
 575 67 575 67 575 53 c 0,47,48
 575 46 575 46 579.5 38.5 c 128,-1,49
 584 31 584 31 598 31 c 0,50,51
 615 31 615 31 631 43 c 128,-1,52
 647 55 647 55 658.5 66.5 c 128,-1,53
 670 78 670 78 671 78 c 0,54,55
 675 78 675 78 682 71 c 128,-1,56
 689 64 689 64 689 61 c 0,57,58
 689 60 689 60 679 48.5 c 128,-1,59
 669 37 669 37 651.5 22 c 128,-1,60
 634 7 634 7 610.5 -4 c 128,-1,61
 587 -15 587 -15 560 -15 c 0,62,63
 500 -15 500 -15 500 41 c 0,64,65
 500 69 500 69 512.5 111 c 128,-1,66
 525 153 525 153 541.5 197.5 c 128,-1,67
 558 242 558 242 570.5 280 c 128,-1,68
 583 318 583 318 583 337 c 0,69,70
 583 370 583 370 554 370 c 0,71,72
 520 370 520 370 476.5 324.5 c 128,-1,73
 433 279 433 279 391.5 197 c 128,-1,74
 350 115 350 115 321 6 c 0,75,76
 319 -1 319 -1 314 -1 c 0,77,78
 287 -2 287 -2 267 -5 c 128,-1,79
 247 -8 247 -8 245 -8 c 0,80,81
 240 -8 240 -8 241 -4 c 0,82,83
 258 44 258 44 274.5 98.5 c 128,-1,84
 291 153 291 153 305 203.5 c 128,-1,85
 319 254 319 254 327.5 290.5 c 128,-1,86
 336 327 336 327 336 340 c 0,87,88
 336 370 336 370 310 370 c 0,89,90
 285 370 285 370 253.5 344 c 128,-1,91
 222 318 222 318 189.5 270 c 128,-1,92
 157 222 157 222 128.5 155 c 128,-1,93
 100 88 100 88 82 6 c 0,94,95
 81 -1 81 -1 75 -1 c 1,96,-1
 142 255 l 1,97,-1
 148 254 l 1,98,99
 195 333 195 333 242.5 374 c 128,-1,100
 290 415 290 415 343 415 c 0,101,102
 380 415 380 415 394 396 c 128,-1,103
 408 377 408 377 408 348 c 0,104,105
 408 329 408 329 402.5 305.5 c 128,-1,106
 397 282 397 282 390 261 c 1,107,-1
 396 260 l 1,34,35
EndSplineSet
Validated: 1048581
EndChar

StartChar: umbar
Encoding: 17 57349 7
Width: 750
GlyphClass: 2
Flags: W
AnchorPoint: "xhook" 540 0 basechar 0
AnchorPoint: "TehtaBelow" 265 -125 basechar 0
AnchorPoint: "TehtaAbove" 440 550 basechar 0
LayerCount: 2
Fore
SplineSet
107 24 m 1,0,1
 100 1 100 1 84 -62 c 128,-1,2
 68 -125 68 -125 44 -229 c 0,3,4
 43 -236 43 -236 37 -236 c 0,5,6
 10 -237 10 -237 -11 -240 c 128,-1,7
 -32 -243 -32 -243 -34 -243 c 0,8,9
 -39 -243 -39 -243 -38 -239 c 0,10,11
 -17 -164 -17 -164 4 -84 c 128,-1,12
 25 -4 25 -4 44.5 71.5 c 128,-1,13
 64 147 64 147 79.5 208.5 c 128,-1,14
 95 270 95 270 104 309 c 128,-1,15
 113 348 113 348 113 355 c 0,16,17
 113 371 113 371 96 371 c 0,18,19
 83 371 83 371 63 367 c 128,-1,20
 43 363 43 363 41 363 c 128,-1,21
 39 363 39 363 37 368.5 c 128,-1,22
 35 374 35 374 35 379 c 0,23,24
 35 386 35 386 38 386 c 0,25,26
 86 398 86 398 121 403 c 128,-1,27
 156 408 156 408 167 408 c 0,28,29
 181 408 181 408 186 400.5 c 128,-1,30
 191 393 191 393 191 383 c 128,-1,31
 191 373 191 373 182.5 342.5 c 128,-1,32
 174 312 174 312 165 277 c 1,33,-1
 169 276 l 1,34,35
 186 306 186 306 212.5 338.5 c 128,-1,36
 239 371 239 371 272 393.5 c 128,-1,37
 305 416 305 416 340 416 c 0,38,39
 392 416 392 416 416 381 c 128,-1,40
 440 346 440 346 440 288 c 0,41,42
 440 239 440 239 423 186 c 128,-1,43
 406 133 406 133 373.5 87.5 c 128,-1,44
 341 42 341 42 296 14 c 128,-1,45
 251 -14 251 -14 195 -14 c 0,46,47
 170 -14 170 -14 147 -4.5 c 128,-1,48
 124 5 124 5 107 24 c 1,0,1
124 74 m 0,49,50
 124 51 124 51 142.5 33.5 c 128,-1,51
 161 16 161 16 194 16 c 0,52,53
 232 16 232 16 262.5 42.5 c 128,-1,54
 293 69 293 69 314.5 111 c 128,-1,55
 336 153 336 153 348 200.5 c 128,-1,56
 360 248 360 248 360 289 c 0,57,58
 360 371 360 371 316 371 c 0,59,60
 285 371 285 371 256.5 346.5 c 128,-1,61
 228 322 228 322 203.5 284 c 128,-1,62
 179 246 179 246 161.5 204.5 c 128,-1,63
 144 163 144 163 134 127.5 c 128,-1,64
 124 92 124 92 124 74 c 0,49,50
353 25 m 1,65,-1
 415 277 l 1,66,67
 432 307 432 307 458.5 339.5 c 128,-1,68
 485 372 485 372 518 394.5 c 128,-1,69
 551 417 551 417 586 417 c 0,70,71
 638 417 638 417 662 382 c 128,-1,72
 686 347 686 347 686 289 c 0,73,74
 686 240 686 240 669 187 c 128,-1,75
 652 134 652 134 619.5 88.5 c 128,-1,76
 587 43 587 43 542 15 c 128,-1,77
 497 -13 497 -13 441 -13 c 0,78,79
 416 -13 416 -13 393 -3.5 c 128,-1,80
 370 6 370 6 353 25 c 1,65,-1
370 75 m 0,81,82
 370 52 370 52 388.5 34.5 c 128,-1,83
 407 17 407 17 440 17 c 0,84,85
 478 17 478 17 508.5 43.5 c 128,-1,86
 539 70 539 70 560.5 112 c 128,-1,87
 582 154 582 154 594 201.5 c 128,-1,88
 606 249 606 249 606 290 c 0,89,90
 606 372 606 372 562 372 c 0,91,92
 531 372 531 372 502.5 347.5 c 128,-1,93
 474 323 474 323 449.5 285 c 128,-1,94
 425 247 425 247 407.5 205.5 c 128,-1,95
 390 164 390 164 380 128.5 c 128,-1,96
 370 93 370 93 370 75 c 0,81,82
EndSplineSet
Validated: 1048581
EndChar

StartChar: anga
Encoding: 18 57350 8
Width: 748
GlyphClass: 2
Flags: W
AnchorPoint: "xhook" 310 0 basechar 0
AnchorPoint: "TehtaBelow" 225 -125 basechar 0
AnchorPoint: "TehtaAbove" 440 550 basechar 0
LayerCount: 2
Fore
SplineSet
531 123 m 1,0,-1
 525 124 l 1,1,2
 489 60 489 60 446.5 23 c 128,-1,3
 404 -14 404 -14 350 -14 c 0,4,5
 313 -14 313 -14 296.5 5.5 c 128,-1,6
 280 25 280 25 280 52 c 0,7,8
 280 66 280 66 285.5 86.5 c 128,-1,9
 291 107 291 107 296 123 c 1,10,-1
 290 124 l 1,11,12
 254 60 254 60 211.5 23 c 128,-1,13
 169 -14 169 -14 114 -14 c 0,14,15
 76 -14 76 -14 58.5 8 c 128,-1,16
 41 30 41 30 41 59 c 0,17,18
 41 86 41 86 52.5 127 c 128,-1,19
 64 168 64 168 78.5 213 c 128,-1,20
 93 258 93 258 104.5 296 c 128,-1,21
 116 334 116 334 116 355 c 0,22,23
 116 371 116 371 99 371 c 0,24,25
 86 371 86 371 67.5 367.5 c 128,-1,26
 49 364 49 364 47 364 c 128,-1,27
 45 364 45 364 43 369.5 c 128,-1,28
 41 375 41 375 41 380 c 0,29,30
 41 387 41 387 44 387 c 0,31,32
 92 399 92 399 125.5 403.5 c 128,-1,33
 159 408 159 408 170 408 c 0,34,35
 184 408 184 408 189 400.5 c 128,-1,36
 194 393 194 393 194 383 c 0,37,38
 194 353 194 353 182 309.5 c 128,-1,39
 170 266 170 266 155 219.5 c 128,-1,40
 140 173 140 173 128 132.5 c 128,-1,41
 116 92 116 92 116 68 c 0,42,43
 116 48 116 48 124 40 c 128,-1,44
 132 32 132 32 146 32 c 0,45,46
 179 32 179 32 216.5 67.5 c 128,-1,47
 254 103 254 103 292 180 c 128,-1,48
 330 257 330 257 362 381 c 0,49,50
 366 394 366 394 369.5 397.5 c 128,-1,51
 373 401 373 401 385 403 c 0,52,53
 404 406 404 406 418.5 407 c 128,-1,54
 433 408 433 408 436 408 c 0,55,56
 443 408 443 408 443 402 c 0,57,58
 443 398 443 398 438 383 c 0,59,60
 425 343 425 343 410 293 c 128,-1,61
 395 243 395 243 382 195.5 c 128,-1,62
 369 148 369 148 361 112.5 c 128,-1,63
 353 77 353 77 353 66 c 0,64,65
 353 47 353 47 360 39.5 c 128,-1,66
 367 32 367 32 381 32 c 0,67,68
 414 32 414 32 451.5 67.5 c 128,-1,69
 489 103 489 103 527 180 c 128,-1,70
 565 257 565 257 597 381 c 0,71,72
 601 394 601 394 604.5 397.5 c 128,-1,73
 608 401 608 401 620 403 c 0,74,75
 639 406 639 406 654 407 c 128,-1,76
 669 408 669 408 672 408 c 0,77,78
 679 408 679 408 679 402 c 0,79,80
 679 398 679 398 674 383 c 0,81,82
 657 331 657 331 636.5 259 c 128,-1,83
 616 187 616 187 599 116 c 0,84,85
 589 76 589 76 576 20 c 128,-1,86
 563 -36 563 -36 549 -100.5 c 128,-1,87
 535 -165 535 -165 521 -229 c 0,88,89
 520 -236 520 -236 514 -236 c 0,90,91
 489 -237 489 -237 467 -240 c 128,-1,92
 445 -243 445 -243 443 -243 c 0,93,94
 438 -243 438 -243 439 -239 c 0,95,96
 452 -192 452 -192 464 -145 c 128,-1,97
 476 -98 476 -98 492 -34.5 c 128,-1,98
 508 29 508 29 531 123 c 1,0,-1
EndSplineSet
Validated: 1048577
EndChar

StartChar: ungwe
Encoding: 19 57351 9
Width: 734
GlyphClass: 2
Flags: W
AnchorPoint: "xhook" 310 0 basechar 0
AnchorPoint: "TehtaBelow" 225 -125 basechar 0
AnchorPoint: "TehtaAbove" 440 550 basechar 0
LayerCount: 2
Fore
SplineSet
521 112 m 1,0,-1
 517 113 l 1,1,2
 500 81 500 81 476.5 52 c 128,-1,3
 453 23 453 23 424 4.5 c 128,-1,4
 395 -14 395 -14 359 -14 c 0,5,6
 320 -14 320 -14 296.5 5 c 128,-1,7
 273 24 273 24 262.5 53.5 c 128,-1,8
 252 83 252 83 252 114 c 0,9,10
 252 167 252 167 269.5 220 c 128,-1,11
 287 273 287 273 319.5 317.5 c 128,-1,12
 352 362 352 362 397 389 c 128,-1,13
 442 416 442 416 498 416 c 0,14,15
 524 416 524 416 546.5 406.5 c 128,-1,16
 569 397 569 397 585 377 c 1,17,-1
 588 378 l 1,18,19
 593 392 593 392 596.5 397 c 128,-1,20
 600 402 600 402 611 403 c 0,21,22
 630 406 630 406 643.5 407 c 128,-1,23
 657 408 657 408 660 408 c 0,24,25
 662 408 662 408 665 407.5 c 128,-1,26
 668 407 668 407 668 402 c 0,27,28
 668 399 668 399 666.5 395 c 128,-1,29
 665 391 665 391 663 383 c 0,30,31
 651 339 651 339 640 301 c 128,-1,32
 629 263 629 263 618.5 223 c 128,-1,33
 608 183 608 183 596 133 c 0,34,35
 577 58 577 58 555 -37.5 c 128,-1,36
 533 -133 533 -133 513 -229 c 0,37,38
 512 -236 512 -236 506 -236 c 0,39,40
 481 -237 481 -237 459 -240 c 128,-1,41
 437 -243 437 -243 435 -243 c 0,42,43
 430 -243 430 -243 431 -239 c 0,44,45
 440 -204 440 -204 449 -171 c 128,-1,46
 458 -138 458 -138 468 -99 c 128,-1,47
 478 -60 478 -60 490.5 -9 c 128,-1,48
 503 42 503 42 521 112 c 1,0,-1
567 329 m 0,49,50
 567 352 567 352 551.5 369.5 c 128,-1,51
 536 387 536 387 502 387 c 128,-1,52
 468 387 468 387 437.5 363 c 128,-1,53
 407 339 407 339 383 299.5 c 128,-1,54
 359 260 359 260 345.5 211.5 c 128,-1,55
 332 163 332 163 332 113 c 0,56,57
 332 82 332 82 343.5 56.5 c 128,-1,58
 355 31 355 31 383 31 c 0,59,60
 414 31 414 31 441.5 55 c 128,-1,61
 469 79 469 79 492 116.5 c 128,-1,62
 515 154 515 154 531.5 195.5 c 128,-1,63
 548 237 548 237 557.5 273 c 128,-1,64
 567 309 567 309 567 329 c 0,49,50
283 113 m 1,65,66
 266 81 266 81 242.5 52 c 128,-1,67
 219 23 219 23 190 4.5 c 128,-1,68
 161 -14 161 -14 125 -14 c 0,69,70
 86 -14 86 -14 62.5 5 c 128,-1,71
 39 24 39 24 28.5 53.5 c 128,-1,72
 18 83 18 83 18 114 c 0,73,74
 18 167 18 167 35.5 220 c 128,-1,75
 53 273 53 273 85.5 317.5 c 128,-1,76
 118 362 118 362 163 389 c 128,-1,77
 208 416 208 416 264 416 c 0,78,79
 290 416 290 416 312.5 406.5 c 128,-1,80
 335 397 335 397 351 377 c 1,81,-1
 283 113 l 1,65,66
333 329 m 0,82,83
 333 352 333 352 317.5 369.5 c 128,-1,84
 302 387 302 387 268 387 c 128,-1,85
 234 387 234 387 203.5 363 c 128,-1,86
 173 339 173 339 149 299.5 c 128,-1,87
 125 260 125 260 111.5 211.5 c 128,-1,88
 98 163 98 163 98 113 c 0,89,90
 98 82 98 82 109.5 56.5 c 128,-1,91
 121 31 121 31 149 31 c 0,92,93
 180 31 180 31 207.5 55 c 128,-1,94
 235 79 235 79 258 116.5 c 128,-1,95
 281 154 281 154 297.5 195.5 c 128,-1,96
 314 237 314 237 323.5 273 c 128,-1,97
 333 309 333 309 333 329 c 0,82,83
EndSplineSet
Validated: 1048581
EndChar

StartChar: thuule
Encoding: 20 57352 10
Width: 532
GlyphClass: 2
Flags: W
AnchorPoint: "xhook" 310 0 basechar 0
AnchorPoint: "TehtaAbove" 400 550 basechar 0
AnchorPoint: "TehtaBelow" 225 -125 basechar 0
LayerCount: 2
Fore
SplineSet
456 62 m 0,0,1
 456 61 456 61 446 49.5 c 128,-1,2
 436 38 436 38 418.5 23 c 128,-1,3
 401 8 401 8 377.5 -3 c 128,-1,4
 354 -14 354 -14 327 -14 c 0,5,6
 267 -14 267 -14 267 42 c 0,7,8
 267 70 267 70 279.5 112 c 128,-1,9
 292 154 292 154 308.5 198.5 c 128,-1,10
 325 243 325 243 337.5 281 c 128,-1,11
 350 319 350 319 350 338 c 0,12,13
 350 371 350 371 320 371 c 0,14,15
 286 371 286 371 241.5 327 c 128,-1,16
 197 283 197 283 155.5 201.5 c 128,-1,17
 114 120 114 120 89 7 c 0,18,19
 88 0 88 0 82 0 c 0,20,21
 55 -1 55 -1 34.5 -4 c 128,-1,22
 14 -7 14 -7 12 -7 c 0,23,24
 7 -7 7 -7 8 -3 c 0,25,26
 35 90 35 90 65.5 198.5 c 128,-1,27
 96 307 96 307 127.5 419 c 128,-1,28
 159 531 159 531 187 634 c 0,29,30
 191 647 191 647 195 651 c 128,-1,31
 199 655 199 655 211 657 c 0,32,33
 230 660 230 660 245.5 661 c 128,-1,34
 261 662 261 662 264 662 c 0,35,36
 272 662 272 662 272 656 c 0,37,38
 272 652 272 652 267 637 c 0,39,40
 252 591 252 591 233 529.5 c 128,-1,41
 214 468 214 468 194 401 c 128,-1,42
 174 334 174 334 155 269 c 1,43,-1
 161 268 l 1,44,45
 208 340 208 340 255 378 c 128,-1,46
 302 416 302 416 353 416 c 0,47,48
 394 416 394 416 410.5 394.5 c 128,-1,49
 427 373 427 373 427 346 c 0,50,51
 427 325 427 325 418.5 293.5 c 128,-1,52
 410 262 410 262 397.5 226.5 c 128,-1,53
 385 191 385 191 372 157 c 128,-1,54
 359 123 359 123 350.5 95.5 c 128,-1,55
 342 68 342 68 342 54 c 0,56,57
 342 47 342 47 346.5 39.5 c 128,-1,58
 351 32 351 32 365 32 c 0,59,60
 382 32 382 32 398 44 c 128,-1,61
 414 56 414 56 425.5 67.5 c 128,-1,62
 437 79 437 79 438 79 c 0,63,64
 442 79 442 79 449 72 c 128,-1,65
 456 65 456 65 456 62 c 0,0,1
EndSplineSet
Validated: 1048577
EndChar

StartChar: formen
Encoding: 21 57353 11
Width: 484
GlyphClass: 2
Flags: W
AnchorPoint: "xhook" 310 0 basechar 0
AnchorPoint: "TehtaAbove" 400 550 basechar 0
AnchorPoint: "TehtaBelow" 225 -125 basechar 0
LayerCount: 2
Fore
SplineSet
261 637 m 0,0,1
 238 567 238 567 210 475 c 128,-1,2
 182 383 182 383 155 291 c 1,3,-1
 159 290 l 1,4,5
 176 318 176 318 200.5 347 c 128,-1,6
 225 376 225 376 256 396 c 128,-1,7
 287 416 287 416 321 416 c 0,8,9
 373 416 373 416 397 381 c 128,-1,10
 421 346 421 346 421 288 c 0,11,12
 421 239 421 239 404 186 c 128,-1,13
 387 133 387 133 354.5 87.5 c 128,-1,14
 322 42 322 42 276 14 c 128,-1,15
 230 -14 230 -14 173 -14 c 0,16,17
 139 -14 139 -14 105.5 -4.5 c 128,-1,18
 72 5 72 5 50 23 c 128,-1,19
 28 41 28 41 28 68 c 0,20,21
 28 72 28 72 29.5 79 c 128,-1,22
 31 86 31 86 35 103 c 0,23,24
 59 188 59 188 84 280.5 c 128,-1,25
 109 373 109 373 134 463.5 c 128,-1,26
 159 554 159 554 181 634 c 0,27,28
 185 647 185 647 189 651 c 128,-1,29
 193 655 193 655 205 657 c 0,30,31
 224 660 224 660 239.5 661 c 128,-1,32
 255 662 255 662 258 662 c 0,33,34
 266 662 266 662 266 656 c 0,35,36
 266 652 266 652 261 637 c 0,0,1
103 66 m 0,37,38
 103 43 103 43 122.5 29.5 c 128,-1,39
 142 16 142 16 175 16 c 0,40,41
 213 16 213 16 243.5 42.5 c 128,-1,42
 274 69 274 69 295.5 111 c 128,-1,43
 317 153 317 153 329 200.5 c 128,-1,44
 341 248 341 248 341 289 c 0,45,46
 341 371 341 371 297 371 c 0,47,48
 265 371 265 371 236 346 c 128,-1,49
 207 321 207 321 182.5 282 c 128,-1,50
 158 243 158 243 140.5 200 c 128,-1,51
 123 157 123 157 113 121 c 128,-1,52
 103 85 103 85 103 66 c 0,37,38
EndSplineSet
Validated: 1048577
EndChar

StartChar: harma
Encoding: 22 57354 12
Width: 526
GlyphClass: 2
Flags: W
AnchorPoint: "xhook" 310 0 basechar 0
AnchorPoint: "TehtaAbove" 220 550 basechar 0
AnchorPoint: "TehtaBelow" 145 -125 basechar 0
LayerCount: 2
Fore
SplineSet
432 79 m 0,0,1
 436 79 436 79 443 72 c 128,-1,2
 450 65 450 65 450 62 c 0,3,4
 450 61 450 61 440 49.5 c 128,-1,5
 430 38 430 38 412 23 c 128,-1,6
 394 8 394 8 370.5 -3 c 128,-1,7
 347 -14 347 -14 319 -14 c 0,8,9
 290 -14 290 -14 274.5 1.5 c 128,-1,10
 259 17 259 17 259 44 c 0,11,12
 259 59 259 59 268.5 103 c 128,-1,13
 278 147 278 147 293.5 208 c 128,-1,14
 309 269 309 269 327 336 c 128,-1,15
 345 403 345 403 361.5 464.5 c 128,-1,16
 378 526 378 526 391 571.5 c 128,-1,17
 404 617 404 617 408 634 c 0,18,19
 412 647 412 647 416 651 c 128,-1,20
 420 655 420 655 432 657 c 0,21,22
 451 660 451 660 466.5 661 c 128,-1,23
 482 662 482 662 485 662 c 0,24,25
 493 662 493 662 493 656 c 0,26,27
 493 652 493 652 488 637 c 0,28,29
 475 598 475 598 459 543.5 c 128,-1,30
 443 489 443 489 425.5 428 c 128,-1,31
 408 367 408 367 392 306.5 c 128,-1,32
 376 246 376 246 362.5 194 c 128,-1,33
 349 142 349 142 341.5 106 c 128,-1,34
 334 70 334 70 334 57 c 0,35,36
 334 48 334 48 338.5 40 c 128,-1,37
 343 32 343 32 355 32 c 0,38,39
 375 32 375 32 392 44 c 128,-1,40
 409 56 409 56 420 67.5 c 128,-1,41
 431 79 431 79 432 79 c 0,0,1
278 123 m 1,42,-1
 272 124 l 1,43,44
 235 60 235 60 191 23 c 128,-1,45
 147 -14 147 -14 91 -14 c 0,46,47
 51 -14 51 -14 34 8 c 128,-1,48
 17 30 17 30 17 59 c 0,49,50
 17 86 17 86 28.5 127 c 128,-1,51
 40 168 40 168 54.5 213 c 128,-1,52
 69 258 69 258 80.5 296 c 128,-1,53
 92 334 92 334 92 355 c 0,54,55
 92 371 92 371 75 371 c 0,56,57
 62 371 62 371 43.5 367.5 c 128,-1,58
 25 364 25 364 23 364 c 128,-1,59
 21 364 21 364 19 369.5 c 128,-1,60
 17 375 17 375 17 380 c 0,61,62
 17 387 17 387 20 387 c 0,63,64
 68 399 68 399 101.5 403.5 c 128,-1,65
 135 408 135 408 146 408 c 0,66,67
 160 408 160 408 165 400.5 c 128,-1,68
 170 393 170 393 170 383 c 0,69,70
 170 353 170 353 158 309.5 c 128,-1,71
 146 266 146 266 131 219.5 c 128,-1,72
 116 173 116 173 104 132.5 c 128,-1,73
 92 92 92 92 92 68 c 0,74,75
 92 48 92 48 100.5 40 c 128,-1,76
 109 32 109 32 124 32 c 0,77,78
 158 32 158 32 196 67.5 c 128,-1,79
 234 103 234 103 272.5 180 c 128,-1,80
 311 257 311 257 344 381 c 1,81,-1
 278 123 l 1,42,-1
EndSplineSet
Validated: 1048581
EndChar

StartChar: hwesta
Encoding: 23 57355 13
Width: 542
GlyphClass: 2
Flags: W
AnchorPoint: "xhook" 310 0 basechar 0
AnchorPoint: "TehtaBelow" 145 -125 basechar 0
AnchorPoint: "TehtaAbove" 220 550 basechar 0
LayerCount: 2
Fore
SplineSet
439 79 m 0,0,1
 443 79 443 79 450 72 c 128,-1,2
 457 65 457 65 457 62 c 0,3,4
 457 61 457 61 447 49.5 c 128,-1,5
 437 38 437 38 419 23 c 128,-1,6
 401 8 401 8 377.5 -3 c 128,-1,7
 354 -14 354 -14 326 -14 c 0,8,9
 300 -14 300 -14 284.5 -0.5 c 128,-1,10
 269 13 269 13 269 40 c 0,11,12
 269 50 269 50 272.5 71.5 c 128,-1,13
 276 93 276 93 281 112 c 1,14,-1
 277 113 l 1,15,16
 260 82 260 82 236.5 52.5 c 128,-1,17
 213 23 213 23 184 4.5 c 128,-1,18
 155 -14 155 -14 119 -14 c 0,19,20
 77 -14 77 -14 53 6 c 128,-1,21
 29 26 29 26 19.5 55.5 c 128,-1,22
 10 85 10 85 10 114 c 0,23,24
 10 167 10 167 27.5 220 c 128,-1,25
 45 273 45 273 77.5 317.5 c 128,-1,26
 110 362 110 362 155 389 c 128,-1,27
 200 416 200 416 256 416 c 0,28,29
 282 416 282 416 305.5 406.5 c 128,-1,30
 329 397 329 397 344 379 c 1,31,-1
 346 379 l 1,32,33
 369 462 369 462 387 527 c 128,-1,34
 405 592 405 592 416 634 c 0,35,36
 420 647 420 647 424 651 c 128,-1,37
 428 655 428 655 440 657 c 0,38,39
 459 660 459 660 474.5 661 c 128,-1,40
 490 662 490 662 493 662 c 0,41,42
 501 662 501 662 501 656 c 0,43,44
 501 652 501 652 496 637 c 0,45,46
 483 597 483 597 466.5 543 c 128,-1,47
 450 489 450 489 432.5 429 c 128,-1,48
 415 369 415 369 399 309.5 c 128,-1,49
 383 250 383 250 370 198 c 128,-1,50
 357 146 357 146 349.5 109 c 128,-1,51
 342 72 342 72 342 57 c 0,52,53
 342 48 342 48 346 40 c 128,-1,54
 350 32 350 32 362 32 c 0,55,56
 382 32 382 32 399 44 c 128,-1,57
 416 56 416 56 427 67.5 c 128,-1,58
 438 79 438 79 439 79 c 0,0,1
325 329 m 0,59,60
 325 352 325 352 309.5 369.5 c 128,-1,61
 294 387 294 387 260 387 c 128,-1,62
 226 387 226 387 195.5 363 c 128,-1,63
 165 339 165 339 141 299.5 c 128,-1,64
 117 260 117 260 103.5 211.5 c 128,-1,65
 90 163 90 163 90 113 c 0,66,67
 90 82 90 82 101.5 56.5 c 128,-1,68
 113 31 113 31 141 31 c 0,69,70
 172 31 172 31 200 55 c 128,-1,71
 228 79 228 79 251 116.5 c 128,-1,72
 274 154 274 154 290.5 195.5 c 128,-1,73
 307 237 307 237 316 273 c 128,-1,74
 325 309 325 309 325 329 c 0,59,60
EndSplineSet
Validated: 1048577
EndChar

StartChar: anto
Encoding: 24 57356 14
Width: 762
GlyphClass: 2
Flags: W
AnchorPoint: "xhook" 550 0 basechar 0
AnchorPoint: "TehtaBelow" 265 -125 basechar 0
AnchorPoint: "TehtaAbove" 440 550 basechar 0
LayerCount: 2
Fore
SplineSet
156 202 m 0,0,1
 114 121 114 121 89 7 c 0,2,3
 88 0 88 0 82 0 c 0,4,5
 55 -1 55 -1 34.5 -4 c 128,-1,6
 14 -7 14 -7 12 -7 c 0,7,8
 7 -7 7 -7 8 -3 c 0,9,10
 35 90 35 90 65.5 198.5 c 128,-1,11
 96 307 96 307 127.5 419 c 128,-1,12
 159 531 159 531 187 634 c 0,13,14
 191 647 191 647 195 651 c 128,-1,15
 199 655 199 655 211 657 c 0,16,17
 230 660 230 660 245.5 661 c 128,-1,18
 261 662 261 662 264 662 c 0,19,20
 272 662 272 662 272 656 c 0,21,22
 272 652 272 652 267 637 c 0,23,24
 252 591 252 591 233 529.5 c 128,-1,25
 214 468 214 468 194 401 c 128,-1,26
 174 334 174 334 155 269 c 1,27,-1
 161 268 l 2,28,29
 175 265 175 265 171 242 c 128,-1,30
 167 219 167 219 156 202 c 0,0,1
401 261 m 1,31,32
 449 341 449 341 495.5 378.5 c 128,-1,33
 542 416 542 416 591 416 c 0,34,35
 631 416 631 416 648 395.5 c 128,-1,36
 665 375 665 375 665 346 c 0,37,38
 665 325 665 325 656.5 293.5 c 128,-1,39
 648 262 648 262 635 226.5 c 128,-1,40
 622 191 622 191 609.5 157 c 128,-1,41
 597 123 597 123 588.5 95.5 c 128,-1,42
 580 68 580 68 580 54 c 0,43,44
 580 47 580 47 584.5 39.5 c 128,-1,45
 589 32 589 32 603 32 c 0,46,47
 620 32 620 32 636 44 c 128,-1,48
 652 56 652 56 663.5 67.5 c 128,-1,49
 675 79 675 79 676 79 c 0,50,51
 680 79 680 79 687 72 c 128,-1,52
 694 65 694 65 694 62 c 0,53,54
 694 61 694 61 684 49.5 c 128,-1,55
 674 38 674 38 656.5 23 c 128,-1,56
 639 8 639 8 615.5 -3 c 128,-1,57
 592 -14 592 -14 565 -14 c 0,58,59
 505 -14 505 -14 505 42 c 0,60,61
 505 70 505 70 517.5 112 c 128,-1,62
 530 154 530 154 546.5 198.5 c 128,-1,63
 563 243 563 243 575.5 281 c 128,-1,64
 588 319 588 319 588 338 c 0,65,66
 588 371 588 371 559 371 c 0,67,68
 525 371 525 371 481.5 325.5 c 128,-1,69
 438 280 438 280 396.5 198 c 128,-1,70
 355 116 355 116 326 7 c 0,71,72
 324 0 324 0 319 -0 c 0,73,74
 292 -1 292 -1 272 -4 c 128,-1,75
 252 -7 252 -7 250 -7 c 0,76,77
 245 -7 245 -7 246 -3 c 0,78,79
 263 45 263 45 279.5 99.5 c 128,-1,80
 296 154 296 154 310 204.5 c 128,-1,81
 324 255 324 255 332.5 291.5 c 128,-1,82
 341 328 341 328 341 341 c 0,83,84
 341 371 341 371 315 371 c 0,85,86
 290 371 290 371 258.5 345 c 128,-1,87
 227 319 227 319 194.5 271 c 128,-1,88
 162 223 162 223 133 156 c 1,89,-1
 147 256 l 1,90,-1
 153 255 l 1,91,92
 200 334 200 334 247.5 375 c 128,-1,93
 295 416 295 416 348 416 c 0,94,95
 385 416 385 416 399 397 c 128,-1,96
 413 378 413 378 413 349 c 0,97,98
 413 330 413 330 407.5 306.5 c 128,-1,99
 402 283 402 283 395 262 c 1,100,-1
 401 261 l 1,31,32
EndSplineSet
Validated: 1048581
EndChar

StartChar: ampa
Encoding: 25 57357 15
Width: 726
GlyphClass: 2
Flags: W
AnchorPoint: "xhook" 530 0 basechar 0
AnchorPoint: "TehtaBelow" 265 -125 basechar 0
AnchorPoint: "TehtaAbove" 440 550 basechar 0
LayerCount: 2
Fore
SplineSet
261 637 m 0,0,1
 238 567 238 567 210 475 c 128,-1,2
 182 383 182 383 155 291 c 1,3,-1
 159 290 l 1,4,5
 176 318 176 318 200.5 347 c 128,-1,6
 225 376 225 376 256 396 c 128,-1,7
 287 416 287 416 321 416 c 0,8,9
 373 416 373 416 397 381 c 128,-1,10
 421 346 421 346 421 288 c 0,11,12
 421 239 421 239 404 186 c 128,-1,13
 387 133 387 133 354.5 87.5 c 128,-1,14
 322 42 322 42 276 14 c 128,-1,15
 230 -14 230 -14 173 -14 c 0,16,17
 139 -14 139 -14 105.5 -4.5 c 128,-1,18
 72 5 72 5 50 23 c 128,-1,19
 28 41 28 41 28 68 c 0,20,21
 28 72 28 72 29.5 79 c 128,-1,22
 31 86 31 86 35 103 c 0,23,24
 59 188 59 188 84 280.5 c 128,-1,25
 109 373 109 373 134 463.5 c 128,-1,26
 159 554 159 554 181 634 c 0,27,28
 185 647 185 647 189 651 c 128,-1,29
 193 655 193 655 205 657 c 0,30,31
 224 660 224 660 239.5 661 c 128,-1,32
 255 662 255 662 258 662 c 0,33,34
 266 662 266 662 266 656 c 0,35,36
 266 652 266 652 261 637 c 0,0,1
103 66 m 0,37,38
 103 43 103 43 122.5 29.5 c 128,-1,39
 142 16 142 16 175 16 c 0,40,41
 213 16 213 16 243.5 42.5 c 128,-1,42
 274 69 274 69 295.5 111 c 128,-1,43
 317 153 317 153 329 200.5 c 128,-1,44
 341 248 341 248 341 289 c 0,45,46
 341 371 341 371 297 371 c 0,47,48
 265 371 265 371 236 346 c 128,-1,49
 207 321 207 321 182.5 282 c 128,-1,50
 158 243 158 243 140.5 200 c 128,-1,51
 123 157 123 157 113 121 c 128,-1,52
 103 85 103 85 103 66 c 0,37,38
329 23 m 1,53,-1
 391 275 l 1,54,55
 408 305 408 305 434.5 337.5 c 128,-1,56
 461 370 461 370 494 392.5 c 128,-1,57
 527 415 527 415 562 415 c 0,58,59
 614 415 614 415 638 380 c 128,-1,60
 662 345 662 345 662 287 c 0,61,62
 662 238 662 238 645 185 c 128,-1,63
 628 132 628 132 595.5 86.5 c 128,-1,64
 563 41 563 41 518 13 c 128,-1,65
 473 -15 473 -15 417 -15 c 0,66,67
 392 -15 392 -15 369 -5.5 c 128,-1,68
 346 4 346 4 329 23 c 1,53,-1
346 73 m 0,69,70
 346 50 346 50 364.5 32.5 c 128,-1,71
 383 15 383 15 416 15 c 0,72,73
 454 15 454 15 484.5 41.5 c 128,-1,74
 515 68 515 68 536.5 110 c 128,-1,75
 558 152 558 152 570 199.5 c 128,-1,76
 582 247 582 247 582 288 c 0,77,78
 582 370 582 370 538 370 c 0,79,80
 507 370 507 370 478.5 345.5 c 128,-1,81
 450 321 450 321 425.5 283 c 128,-1,82
 401 245 401 245 383.5 203.5 c 128,-1,83
 366 162 366 162 356 126.5 c 128,-1,84
 346 91 346 91 346 73 c 0,69,70
EndSplineSet
Validated: 1048581
EndChar

StartChar: anca
Encoding: 26 57358 16
Width: 734
GlyphClass: 2
Flags: W
AnchorPoint: "xhook" 280 0 basechar 0
AnchorPoint: "TehtaBelow" 265 -125 basechar 0
AnchorPoint: "TehtaAbove" 350 550 basechar 0
LayerCount: 2
Fore
SplineSet
632 79 m 0,0,1
 636 79 636 79 643 72 c 128,-1,2
 650 65 650 65 650 62 c 0,3,4
 650 61 650 61 640 49.5 c 128,-1,5
 630 38 630 38 612 23 c 128,-1,6
 594 8 594 8 570.5 -3 c 128,-1,7
 547 -14 547 -14 519 -14 c 0,8,9
 490 -14 490 -14 474.5 1.5 c 128,-1,10
 459 17 459 17 459 44 c 0,11,12
 459 59 459 59 468.5 103 c 128,-1,13
 478 147 478 147 493.5 208 c 128,-1,14
 509 269 509 269 527 336 c 128,-1,15
 545 403 545 403 561.5 464.5 c 128,-1,16
 578 526 578 526 591 571.5 c 128,-1,17
 604 617 604 617 608 634 c 0,18,19
 612 647 612 647 616 651 c 128,-1,20
 620 655 620 655 632 657 c 0,21,22
 651 660 651 660 666.5 661 c 128,-1,23
 682 662 682 662 685 662 c 0,24,25
 693 662 693 662 693 656 c 0,26,27
 693 652 693 652 688 637 c 0,28,29
 675 598 675 598 659 543.5 c 128,-1,30
 643 489 643 489 625.5 428 c 128,-1,31
 608 367 608 367 592 306.5 c 128,-1,32
 576 246 576 246 562.5 194 c 128,-1,33
 549 142 549 142 541.5 106 c 128,-1,34
 534 70 534 70 534 57 c 0,35,36
 534 48 534 48 538.5 40 c 128,-1,37
 543 32 543 32 555 32 c 0,38,39
 575 32 575 32 592 44 c 128,-1,40
 609 56 609 56 620 67.5 c 128,-1,41
 631 79 631 79 632 79 c 0,0,1
315 66 m 0,42,43
 315 47 315 47 321.5 39.5 c 128,-1,44
 328 32 328 32 341 32 c 0,45,46
 372 32 372 32 406.5 67.5 c 128,-1,47
 441 103 441 103 477 180 c 128,-1,48
 513 257 513 257 545 381 c 1,49,-1
 479 123 l 1,50,-1
 473 124 l 1,51,52
 439 60 439 60 400 23 c 128,-1,53
 361 -14 361 -14 310 -14 c 0,54,55
 274 -14 274 -14 258.5 5.5 c 128,-1,56
 243 25 243 25 243 52 c 0,57,58
 243 66 243 66 248.5 86.5 c 128,-1,59
 254 107 254 107 259 123 c 1,60,-1
 253 124 l 1,61,62
 219 60 219 60 180 23 c 128,-1,63
 141 -14 141 -14 89 -14 c 0,64,65
 52 -14 52 -14 35.5 8 c 128,-1,66
 19 30 19 30 19 59 c 0,67,68
 19 86 19 86 30.5 127 c 128,-1,69
 42 168 42 168 56.5 213 c 128,-1,70
 71 258 71 258 82.5 296 c 128,-1,71
 94 334 94 334 94 355 c 0,72,73
 94 371 94 371 77 371 c 0,74,75
 64 371 64 371 45.5 367.5 c 128,-1,76
 27 364 27 364 25 364 c 128,-1,77
 23 364 23 364 21 369.5 c 128,-1,78
 19 375 19 375 19 380 c 0,79,80
 19 387 19 387 22 387 c 0,81,82
 70 399 70 399 103 403.5 c 128,-1,83
 136 408 136 408 147 408 c 0,84,85
 161 408 161 408 166 400.5 c 128,-1,86
 171 393 171 393 171 383 c 0,87,88
 171 353 171 353 159 309.5 c 128,-1,89
 147 266 147 266 132 219.5 c 128,-1,90
 117 173 117 173 105 132.5 c 128,-1,91
 93 92 93 92 93 68 c 0,92,93
 93 48 93 48 100.5 40 c 128,-1,94
 108 32 108 32 121 32 c 0,95,96
 152 32 152 32 186.5 67.5 c 128,-1,97
 221 103 221 103 257 180 c 128,-1,98
 293 257 293 257 325 381 c 0,99,100
 328 394 328 394 332 397.5 c 128,-1,101
 336 401 336 401 348 403 c 0,102,103
 366 406 366 406 380.5 407 c 128,-1,104
 395 408 395 408 398 408 c 0,105,106
 405 408 405 408 405 402 c 0,107,108
 405 398 405 398 400 383 c 0,109,110
 387 343 387 343 372 293 c 128,-1,111
 357 243 357 243 344 195.5 c 128,-1,112
 331 148 331 148 323 112.5 c 128,-1,113
 315 77 315 77 315 66 c 0,42,43
EndSplineSet
Validated: 1048581
EndChar

StartChar: unque
Encoding: 27 57359 17
Width: 778
GlyphClass: 2
Flags: W
AnchorPoint: "TehtaBelow" 265 -125 basechar 0
AnchorPoint: "xhook" 280 0 basechar 0
AnchorPoint: "TehtaAbove" 400 550 basechar 0
LayerCount: 2
Fore
SplineSet
679 79 m 0,0,1
 683 79 683 79 690 72 c 128,-1,2
 697 65 697 65 697 62 c 0,3,4
 697 61 697 61 687 49.5 c 128,-1,5
 677 38 677 38 659 23 c 128,-1,6
 641 8 641 8 617.5 -3 c 128,-1,7
 594 -14 594 -14 566 -14 c 0,8,9
 540 -14 540 -14 524.5 -0.5 c 128,-1,10
 509 13 509 13 509 40 c 0,11,12
 509 50 509 50 512.5 71.5 c 128,-1,13
 516 93 516 93 521 112 c 1,14,-1
 517 113 l 1,15,16
 500 82 500 82 476.5 52.5 c 128,-1,17
 453 23 453 23 424 4.5 c 128,-1,18
 395 -14 395 -14 359 -14 c 0,19,20
 317 -14 317 -14 293 6 c 128,-1,21
 269 26 269 26 259.5 55.5 c 128,-1,22
 250 85 250 85 250 114 c 0,23,24
 250 167 250 167 267.5 220 c 128,-1,25
 285 273 285 273 317.5 317.5 c 128,-1,26
 350 362 350 362 395 389 c 128,-1,27
 440 416 440 416 496 416 c 0,28,29
 522 416 522 416 545.5 406.5 c 128,-1,30
 569 397 569 397 584 379 c 1,31,-1
 586 379 l 1,32,33
 609 462 609 462 627 527 c 128,-1,34
 645 592 645 592 656 634 c 0,35,36
 660 647 660 647 664 651 c 128,-1,37
 668 655 668 655 680 657 c 0,38,39
 699 660 699 660 714.5 661 c 128,-1,40
 730 662 730 662 733 662 c 0,41,42
 741 662 741 662 741 656 c 0,43,44
 741 652 741 652 736 637 c 0,45,46
 723 597 723 597 706.5 543 c 128,-1,47
 690 489 690 489 672.5 429 c 128,-1,48
 655 369 655 369 639 309.5 c 128,-1,49
 623 250 623 250 610 198 c 128,-1,50
 597 146 597 146 589.5 109 c 128,-1,51
 582 72 582 72 582 57 c 0,52,53
 582 48 582 48 586 40 c 128,-1,54
 590 32 590 32 602 32 c 0,55,56
 622 32 622 32 639 44 c 128,-1,57
 656 56 656 56 667 67.5 c 128,-1,58
 678 79 678 79 679 79 c 0,0,1
565 329 m 0,59,60
 565 352 565 352 549.5 369.5 c 128,-1,61
 534 387 534 387 500 387 c 128,-1,62
 466 387 466 387 435.5 363 c 128,-1,63
 405 339 405 339 381 299.5 c 128,-1,64
 357 260 357 260 343.5 211.5 c 128,-1,65
 330 163 330 163 330 113 c 0,66,67
 330 82 330 82 341.5 56.5 c 128,-1,68
 353 31 353 31 381 31 c 0,69,70
 412 31 412 31 440 55 c 128,-1,71
 468 79 468 79 491 116.5 c 128,-1,72
 514 154 514 154 530.5 195.5 c 128,-1,73
 547 237 547 237 556 273 c 128,-1,74
 565 309 565 309 565 329 c 0,59,60
271 113 m 1,75,76
 254 81 254 81 230.5 52 c 128,-1,77
 207 23 207 23 178 4.5 c 128,-1,78
 149 -14 149 -14 113 -14 c 0,79,80
 74 -14 74 -14 50.5 5 c 128,-1,81
 27 24 27 24 16.5 53.5 c 128,-1,82
 6 83 6 83 6 114 c 0,83,84
 6 167 6 167 23.5 220 c 128,-1,85
 41 273 41 273 73.5 317.5 c 128,-1,86
 106 362 106 362 151 389 c 128,-1,87
 196 416 196 416 252 416 c 0,88,89
 278 416 278 416 300.5 406.5 c 128,-1,90
 323 397 323 397 339 377 c 1,91,-1
 271 113 l 1,75,76
321 329 m 0,92,93
 321 352 321 352 305.5 369.5 c 128,-1,94
 290 387 290 387 256 387 c 128,-1,95
 222 387 222 387 191.5 363 c 128,-1,96
 161 339 161 339 137 299.5 c 128,-1,97
 113 260 113 260 99.5 211.5 c 128,-1,98
 86 163 86 163 86 113 c 0,99,100
 86 82 86 82 97.5 56.5 c 128,-1,101
 109 31 109 31 137 31 c 0,102,103
 168 31 168 31 195.5 55 c 128,-1,104
 223 79 223 79 246 116.5 c 128,-1,105
 269 154 269 154 285.5 195.5 c 128,-1,106
 302 237 302 237 311.5 273 c 128,-1,107
 321 309 321 309 321 329 c 0,92,93
EndSplineSet
Validated: 1048581
EndChar

StartChar: nuumen
Encoding: 28 57360 18
Width: 757
GlyphClass: 2
Flags: W
AnchorPoint: "xhook" 560 0 basechar 0
AnchorPoint: "TehtaBelow" 275 -125 basechar 0
AnchorPoint: "TehtaAbove" 450 550 basechar 0
LayerCount: 2
Fore
SplineSet
414 261 m 1,0,1
 462 341 462 341 508.5 378.5 c 128,-1,2
 555 416 555 416 604 416 c 0,3,4
 644 416 644 416 661 395.5 c 128,-1,5
 678 375 678 375 678 346 c 0,6,7
 678 325 678 325 669.5 293.5 c 128,-1,8
 661 262 661 262 648 226.5 c 128,-1,9
 635 191 635 191 622.5 157 c 128,-1,10
 610 123 610 123 601.5 95.5 c 128,-1,11
 593 68 593 68 593 54 c 0,12,13
 593 47 593 47 597.5 39.5 c 128,-1,14
 602 32 602 32 616 32 c 0,15,16
 633 32 633 32 649 44 c 128,-1,17
 665 56 665 56 676.5 67.5 c 128,-1,18
 688 79 688 79 689 79 c 0,19,20
 693 79 693 79 700 72 c 128,-1,21
 707 65 707 65 707 62 c 0,22,23
 707 61 707 61 697 49.5 c 128,-1,24
 687 38 687 38 669.5 23 c 128,-1,25
 652 8 652 8 628.5 -3 c 128,-1,26
 605 -14 605 -14 578 -14 c 0,27,28
 518 -14 518 -14 518 42 c 0,29,30
 518 70 518 70 530.5 112 c 128,-1,31
 543 154 543 154 559.5 198.5 c 128,-1,32
 576 243 576 243 588.5 281 c 128,-1,33
 601 319 601 319 601 338 c 0,34,35
 601 371 601 371 572 371 c 0,36,37
 538 371 538 371 494.5 325.5 c 128,-1,38
 451 280 451 280 409.5 198 c 128,-1,39
 368 116 368 116 339 7 c 0,40,41
 337 0 337 0 332 0 c 0,42,43
 305 -1 305 -1 285 -4 c 128,-1,44
 265 -7 265 -7 263 -7 c 0,45,46
 258 -7 258 -7 259 -3 c 0,47,48
 276 45 276 45 292.5 99.5 c 128,-1,49
 309 154 309 154 323 204.5 c 128,-1,50
 337 255 337 255 345.5 291.5 c 128,-1,51
 354 328 354 328 354 341 c 0,52,53
 354 371 354 371 328 371 c 0,54,55
 303 371 303 371 271.5 345 c 128,-1,56
 240 319 240 319 207.5 271 c 128,-1,57
 175 223 175 223 146.5 156 c 128,-1,58
 118 89 118 89 100 7 c 0,59,60
 99 0 99 0 93 0 c 0,61,62
 66 -1 66 -1 45.5 -4 c 128,-1,63
 25 -7 25 -7 23 -7 c 0,64,65
 18 -7 18 -7 19 -3 c 0,66,67
 32 35 32 35 45 80.5 c 128,-1,68
 58 126 58 126 70 171.5 c 128,-1,69
 82 217 82 217 91.5 256 c 128,-1,70
 101 295 101 295 106.5 321.5 c 128,-1,71
 112 348 112 348 112 355 c 0,72,73
 112 371 112 371 95 371 c 0,74,75
 82 371 82 371 63.5 367.5 c 128,-1,76
 45 364 45 364 43 364 c 128,-1,77
 41 364 41 364 39 369.5 c 128,-1,78
 37 375 37 375 37 380 c 0,79,80
 37 387 37 387 40 387 c 0,81,82
 88 399 88 399 121.5 403.5 c 128,-1,83
 155 408 155 408 166 408 c 0,84,85
 180 408 180 408 185 400.5 c 128,-1,86
 190 393 190 393 190 383 c 0,87,88
 190 376 190 376 185 355.5 c 128,-1,89
 180 335 180 335 173.5 308.5 c 128,-1,90
 167 282 167 282 160 256 c 1,91,-1
 166 255 l 1,92,93
 213 334 213 334 260.5 375 c 128,-1,94
 308 416 308 416 361 416 c 0,95,96
 398 416 398 416 412 397 c 128,-1,97
 426 378 426 378 426 349 c 0,98,99
 426 330 426 330 420.5 306.5 c 128,-1,100
 415 283 415 283 408 262 c 1,101,-1
 414 261 l 1,0,1
EndSplineSet
Validated: 1048577
EndChar

StartChar: malta
Encoding: 29 57361 19
Width: 715
GlyphClass: 2
Flags: W
AnchorPoint: "xhook" 550 0 basechar 0
AnchorPoint: "TehtaBelow" 265 -125 basechar 0
AnchorPoint: "TehtaAbove" 440 550 basechar 0
LayerCount: 2
Fore
SplineSet
193 -14 m 0,0,1
 165 -14 165 -14 143 -4 c 128,-1,2
 121 6 121 6 106 28 c 1,3,-1
 103 27 l 1,4,5
 99 11 99 11 96 6 c 128,-1,6
 93 1 93 1 79 -1 c 0,7,8
 60 -2 60 -2 42.5 -4.5 c 128,-1,9
 25 -7 25 -7 23 -7 c 0,10,11
 19 -7 19 -7 19 -4 c 0,12,13
 19 -3 19 -3 22 5.5 c 128,-1,14
 25 14 25 14 27 21 c 0,15,16
 42 69 42 69 57.5 123.5 c 128,-1,17
 73 178 73 178 85 227.5 c 128,-1,18
 97 277 97 277 104.5 312 c 128,-1,19
 112 347 112 347 112 355 c 0,20,21
 112 371 112 371 95 371 c 0,22,23
 82 371 82 371 63.5 367.5 c 128,-1,24
 45 364 45 364 43 364 c 128,-1,25
 41 364 41 364 39 369.5 c 128,-1,26
 37 375 37 375 37 380 c 0,27,28
 37 387 37 387 40 387 c 0,29,30
 88 399 88 399 121.5 403.5 c 128,-1,31
 155 408 155 408 166 408 c 0,32,33
 180 408 180 408 185 400.5 c 128,-1,34
 190 393 190 393 190 383 c 128,-1,35
 190 373 190 373 184 350 c 128,-1,36
 178 327 178 327 167 288 c 1,37,-1
 172 287 l 1,38,39
 190 321 190 321 213 350 c 128,-1,40
 236 379 236 379 265.5 397.5 c 128,-1,41
 295 416 295 416 332 416 c 0,42,43
 371 416 371 416 393 396 c 128,-1,44
 415 376 415 376 424 346 c 128,-1,45
 433 316 433 316 433 284 c 0,46,47
 433 235 433 235 415.5 182.5 c 128,-1,48
 398 130 398 130 366 85.5 c 128,-1,49
 334 41 334 41 290 13.5 c 128,-1,50
 246 -14 246 -14 193 -14 c 0,0,1
124 74 m 0,51,52
 124 50 124 50 141.5 33 c 128,-1,53
 159 16 159 16 188 16 c 0,54,55
 222 16 222 16 252 39.5 c 128,-1,56
 282 63 282 63 304.5 102.5 c 128,-1,57
 327 142 327 142 340 189.5 c 128,-1,58
 353 237 353 237 353 285 c 0,59,60
 353 326 353 326 342 348.5 c 128,-1,61
 331 371 331 371 304 371 c 0,62,63
 276 371 276 371 249 347 c 128,-1,64
 222 323 222 323 199.5 285 c 128,-1,65
 177 247 177 247 160 206 c 128,-1,66
 143 165 143 165 133.5 129 c 128,-1,67
 124 93 124 93 124 74 c 0,51,52
348 25 m 1,68,-1
 410 277 l 1,69,70
 427 307 427 307 453.5 339.5 c 128,-1,71
 480 372 480 372 513 394.5 c 128,-1,72
 546 417 546 417 581 417 c 0,73,74
 633 417 633 417 657 382 c 128,-1,75
 681 347 681 347 681 289 c 0,76,77
 681 240 681 240 664 187 c 128,-1,78
 647 134 647 134 614.5 88.5 c 128,-1,79
 582 43 582 43 537 15 c 128,-1,80
 492 -13 492 -13 436 -13 c 0,81,82
 411 -13 411 -13 388 -3.5 c 128,-1,83
 365 6 365 6 348 25 c 1,68,-1
365 75 m 0,84,85
 365 52 365 52 383.5 34.5 c 128,-1,86
 402 17 402 17 435 17 c 0,87,88
 473 17 473 17 503.5 43.5 c 128,-1,89
 534 70 534 70 555.5 112 c 128,-1,90
 577 154 577 154 589 201.5 c 128,-1,91
 601 249 601 249 601 290 c 0,92,93
 601 372 601 372 557 372 c 0,94,95
 526 372 526 372 497.5 347.5 c 128,-1,96
 469 323 469 323 444.5 285 c 128,-1,97
 420 247 420 247 402.5 205.5 c 128,-1,98
 385 164 385 164 375 128.5 c 128,-1,99
 365 93 365 93 365 75 c 0,84,85
EndSplineSet
Validated: 1048581
EndChar

StartChar: noldo
Encoding: 30 57362 20
Width: 726
GlyphClass: 2
Flags: W
AnchorPoint: "xhook" 300 0 basechar 0
AnchorPoint: "TehtaBelow" 265 -125 basechar 0
AnchorPoint: "TehtaAbove" 440 550 basechar 0
LayerCount: 2
Fore
SplineSet
337 66 m 0,0,1
 337 47 337 47 343.5 39.5 c 128,-1,2
 350 32 350 32 363 32 c 0,3,4
 394 32 394 32 428.5 67.5 c 128,-1,5
 463 103 463 103 499 180 c 128,-1,6
 535 257 535 257 567 381 c 0,7,8
 570 394 570 394 574 397.5 c 128,-1,9
 578 401 578 401 590 403 c 0,10,11
 608 406 608 406 623 407 c 128,-1,12
 638 408 638 408 641 408 c 0,13,14
 648 408 648 408 648 402 c 0,15,16
 648 398 648 398 643 383 c 0,17,18
 630 343 630 343 615 291.5 c 128,-1,19
 600 240 600 240 587 190.5 c 128,-1,20
 574 141 574 141 565.5 104 c 128,-1,21
 557 67 557 67 557 56 c 0,22,23
 557 49 557 49 560.5 40.5 c 128,-1,24
 564 32 564 32 577 32 c 0,25,26
 597 32 597 32 614 44 c 128,-1,27
 631 56 631 56 642 67.5 c 128,-1,28
 653 79 653 79 654 79 c 0,29,30
 658 79 658 79 665 72 c 128,-1,31
 672 65 672 65 672 62 c 0,32,33
 672 61 672 61 662 49.5 c 128,-1,34
 652 38 652 38 634 23 c 128,-1,35
 616 8 616 8 592.5 -3 c 128,-1,36
 569 -14 569 -14 541 -14 c 0,37,38
 509 -14 509 -14 497 3 c 128,-1,39
 485 20 485 20 485 42 c 0,40,41
 485 62 485 62 490 83 c 128,-1,42
 495 104 495 104 501 123 c 1,43,-1
 495 124 l 1,44,45
 461 60 461 60 422 23 c 128,-1,46
 383 -14 383 -14 332 -14 c 0,47,48
 296 -14 296 -14 280.5 5.5 c 128,-1,49
 265 25 265 25 265 52 c 0,50,51
 265 66 265 66 270.5 86.5 c 128,-1,52
 276 107 276 107 281 123 c 1,53,-1
 275 124 l 1,54,55
 241 60 241 60 202 23 c 128,-1,56
 163 -14 163 -14 111 -14 c 0,57,58
 74 -14 74 -14 57.5 8 c 128,-1,59
 41 30 41 30 41 59 c 0,60,61
 41 86 41 86 52.5 127 c 128,-1,62
 64 168 64 168 78.5 213 c 128,-1,63
 93 258 93 258 104.5 296 c 128,-1,64
 116 334 116 334 116 355 c 0,65,66
 116 371 116 371 99 371 c 0,67,68
 86 371 86 371 67.5 367.5 c 128,-1,69
 49 364 49 364 47 364 c 128,-1,70
 45 364 45 364 43 369.5 c 128,-1,71
 41 375 41 375 41 380 c 0,72,73
 41 387 41 387 44 387 c 0,74,75
 92 399 92 399 125 403.5 c 128,-1,76
 158 408 158 408 169 408 c 0,77,78
 183 408 183 408 188 400.5 c 128,-1,79
 193 393 193 393 193 383 c 0,80,81
 193 353 193 353 181 309.5 c 128,-1,82
 169 266 169 266 154 219.5 c 128,-1,83
 139 173 139 173 127 132.5 c 128,-1,84
 115 92 115 92 115 68 c 0,85,86
 115 48 115 48 122.5 40 c 128,-1,87
 130 32 130 32 143 32 c 0,88,89
 174 32 174 32 208.5 67.5 c 128,-1,90
 243 103 243 103 279 180 c 128,-1,91
 315 257 315 257 347 381 c 0,92,93
 350 394 350 394 354 397.5 c 128,-1,94
 358 401 358 401 370 403 c 0,95,96
 388 406 388 406 402.5 407 c 128,-1,97
 417 408 417 408 420 408 c 0,98,99
 427 408 427 408 427 402 c 0,100,101
 427 398 427 398 422 383 c 0,102,103
 409 343 409 343 394 293 c 128,-1,104
 379 243 379 243 366 195.5 c 128,-1,105
 353 148 353 148 345 112.5 c 128,-1,106
 337 77 337 77 337 66 c 0,0,1
EndSplineSet
Validated: 1048577
EndChar

StartChar: nwalme
Encoding: 31 57363 21
Width: 748
GlyphClass: 2
Flags: W
AnchorPoint: "xhook" 300 0 basechar 0
AnchorPoint: "TehtaBelow" 265 -125 basechar 0
AnchorPoint: "TehtaAbove" 440 550 basechar 0
LayerCount: 2
Fore
SplineSet
498 416 m 0,0,1
 527 416 527 416 550 406.5 c 128,-1,2
 573 397 573 397 587 374 c 1,3,-1
 590 375 l 1,4,5
 595 391 595 391 597.5 396 c 128,-1,6
 600 401 600 401 614 403 c 0,7,8
 633 406 633 406 647 407 c 128,-1,9
 661 408 661 408 664 408 c 0,10,11
 671 408 671 408 671 402 c 0,12,13
 671 398 671 398 666 383 c 0,14,15
 664 376 664 376 655 345.5 c 128,-1,16
 646 315 646 315 634 271.5 c 128,-1,17
 622 228 622 228 610 183.5 c 128,-1,18
 598 139 598 139 590.5 104 c 128,-1,19
 583 69 583 69 583 56 c 0,20,21
 583 49 583 49 586.5 40.5 c 128,-1,22
 590 32 590 32 605 32 c 0,23,24
 623 32 623 32 639.5 44 c 128,-1,25
 656 56 656 56 667.5 67.5 c 128,-1,26
 679 79 679 79 680 79 c 0,27,28
 684 79 684 79 691 72 c 128,-1,29
 698 65 698 65 698 62 c 0,30,31
 698 61 698 61 688 49.5 c 128,-1,32
 678 38 678 38 660 23 c 128,-1,33
 642 8 642 8 618.5 -3 c 128,-1,34
 595 -14 595 -14 567 -14 c 0,35,36
 511 -14 511 -14 511 41 c 0,37,38
 511 62 511 62 524 110 c 1,39,-1
 519 111 l 1,40,41
 492 61 492 61 455.5 23.5 c 128,-1,42
 419 -14 419 -14 366 -14 c 0,43,44
 328 -14 328 -14 304.5 6 c 128,-1,45
 281 26 281 26 270.5 56.5 c 128,-1,46
 260 87 260 87 260 117 c 0,47,48
 260 168 260 168 277.5 221 c 128,-1,49
 295 274 295 274 326.5 318 c 128,-1,50
 358 362 358 362 402 389 c 128,-1,51
 446 416 446 416 498 416 c 0,0,1
569 327 m 0,52,53
 569 352 569 352 553.5 369.5 c 128,-1,54
 538 387 538 387 507 387 c 0,55,56
 473 387 473 387 442.5 363.5 c 128,-1,57
 412 340 412 340 389 300.5 c 128,-1,58
 366 261 366 261 353 212 c 128,-1,59
 340 163 340 163 340 113 c 0,60,61
 340 79 340 79 351 55 c 128,-1,62
 362 31 362 31 390 31 c 0,63,64
 419 31 419 31 445.5 55 c 128,-1,65
 472 79 472 79 494.5 116.5 c 128,-1,66
 517 154 517 154 533.5 195.5 c 128,-1,67
 550 237 550 237 559.5 272.5 c 128,-1,68
 569 308 569 308 569 327 c 0,52,53
278 112 m 1,69,70
 261 80 261 80 237.5 51 c 128,-1,71
 214 22 214 22 185 3.5 c 128,-1,72
 156 -15 156 -15 120 -15 c 0,73,74
 81 -15 81 -15 57.5 4 c 128,-1,75
 34 23 34 23 23.5 52.5 c 128,-1,76
 13 82 13 82 13 113 c 0,77,78
 13 166 13 166 30.5 219 c 128,-1,79
 48 272 48 272 80.5 316.5 c 128,-1,80
 113 361 113 361 158 388 c 128,-1,81
 203 415 203 415 259 415 c 0,82,83
 285 415 285 415 307.5 405.5 c 128,-1,84
 330 396 330 396 346 376 c 1,85,-1
 278 112 l 1,69,70
328 328 m 0,86,87
 328 351 328 351 312.5 368.5 c 128,-1,88
 297 386 297 386 263 386 c 128,-1,89
 229 386 229 386 198.5 362 c 128,-1,90
 168 338 168 338 144 298.5 c 128,-1,91
 120 259 120 259 106.5 210.5 c 128,-1,92
 93 162 93 162 93 112 c 0,93,94
 93 81 93 81 104.5 55.5 c 128,-1,95
 116 30 116 30 144 30 c 0,96,97
 175 30 175 30 202.5 54 c 128,-1,98
 230 78 230 78 253 115.5 c 128,-1,99
 276 153 276 153 292.5 194.5 c 128,-1,100
 309 236 309 236 318.5 272 c 128,-1,101
 328 308 328 308 328 328 c 0,86,87
EndSplineSet
Validated: 1048581
EndChar

StartChar: oore
Encoding: 32 57364 22
Width: 508
GlyphClass: 2
Flags: W
AnchorPoint: "xhook" 320 0 basechar 0
AnchorPoint: "TehtaBelow" 195 -125 basechar 0
AnchorPoint: "TehtaAbove" 320 550 basechar 0
LayerCount: 2
Fore
SplineSet
190 383 m 0,0,1
 190 372 190 372 182 343 c 2,2,-1
 160 256 l 1,3,-1
 166 255 l 1,4,5
 213 334 213 334 262 375 c 128,-1,6
 311 416 311 416 364 416 c 0,7,8
 405 416 405 416 421.5 394.5 c 128,-1,9
 438 373 438 373 438 346 c 0,10,11
 438 325 438 325 429.5 293.5 c 128,-1,12
 421 262 421 262 408.5 226.5 c 128,-1,13
 396 191 396 191 383 157 c 128,-1,14
 370 123 370 123 361.5 95.5 c 128,-1,15
 353 68 353 68 353 54 c 0,16,17
 353 47 353 47 357.5 39.5 c 128,-1,18
 362 32 362 32 376 32 c 0,19,20
 393 32 393 32 409 44 c 128,-1,21
 425 56 425 56 436.5 67.5 c 128,-1,22
 448 79 448 79 449 79 c 0,23,24
 453 79 453 79 460 72 c 128,-1,25
 467 65 467 65 467 62 c 0,26,27
 467 61 467 61 457 49.5 c 128,-1,28
 447 38 447 38 429.5 23 c 128,-1,29
 412 8 412 8 388.5 -3 c 128,-1,30
 365 -14 365 -14 338 -14 c 0,31,32
 278 -14 278 -14 278 42 c 0,33,34
 278 70 278 70 290.5 112 c 128,-1,35
 303 154 303 154 319.5 198.5 c 128,-1,36
 336 243 336 243 348.5 281 c 128,-1,37
 361 319 361 319 361 338 c 0,38,39
 361 371 361 371 331 371 c 0,40,41
 297 371 297 371 252 326 c 128,-1,42
 207 281 207 281 166 199 c 128,-1,43
 125 117 125 117 100 7 c 0,44,45
 99 0 99 0 93 0 c 0,46,47
 66 -1 66 -1 45.5 -4 c 128,-1,48
 25 -7 25 -7 23 -7 c 0,49,50
 18 -7 18 -7 19 -3 c 0,51,52
 35 45 35 45 51.5 103 c 128,-1,53
 68 161 68 161 81.5 215 c 128,-1,54
 95 269 95 269 103.5 307.5 c 128,-1,55
 112 346 112 346 112 355 c 0,56,57
 112 371 112 371 95 371 c 0,58,59
 82 371 82 371 63.5 367.5 c 128,-1,60
 45 364 45 364 43 364 c 128,-1,61
 41 364 41 364 39 369.5 c 128,-1,62
 37 375 37 375 37 380 c 0,63,64
 37 387 37 387 40 387 c 0,65,66
 88 399 88 399 121.5 403.5 c 128,-1,67
 155 408 155 408 166 408 c 0,68,69
 180 408 180 408 185 400.5 c 128,-1,70
 190 393 190 393 190 383 c 0,0,1
EndSplineSet
Validated: 1048577
EndChar

StartChar: vala
Encoding: 33 57365 23
Width: 462
GlyphClass: 2
Flags: W
AnchorPoint: "xhook" 300 0 basechar 0
AnchorPoint: "TehtaAbove" 320 550 basechar 0
AnchorPoint: "TehtaBelow" 195 -125 basechar 0
LayerCount: 2
Fore
SplineSet
193 -14 m 0,0,1
 165 -14 165 -14 143 -4 c 128,-1,2
 121 6 121 6 106 28 c 1,3,-1
 103 27 l 1,4,5
 99 11 99 11 96 6 c 128,-1,6
 93 1 93 1 79 -1 c 0,7,8
 60 -2 60 -2 42.5 -4.5 c 128,-1,9
 25 -7 25 -7 23 -7 c 0,10,11
 19 -7 19 -7 19 -4 c 0,12,13
 19 -3 19 -3 22 5.5 c 128,-1,14
 25 14 25 14 27 21 c 0,15,16
 42 69 42 69 57.5 123.5 c 128,-1,17
 73 178 73 178 85 227.5 c 128,-1,18
 97 277 97 277 104.5 312 c 128,-1,19
 112 347 112 347 112 355 c 0,20,21
 112 371 112 371 95 371 c 0,22,23
 82 371 82 371 63.5 367.5 c 128,-1,24
 45 364 45 364 43 364 c 128,-1,25
 41 364 41 364 39 369.5 c 128,-1,26
 37 375 37 375 37 380 c 0,27,28
 37 387 37 387 40 387 c 0,29,30
 88 399 88 399 121.5 403.5 c 128,-1,31
 155 408 155 408 166 408 c 0,32,33
 180 408 180 408 185 400.5 c 128,-1,34
 190 393 190 393 190 383 c 128,-1,35
 190 373 190 373 184 350 c 128,-1,36
 178 327 178 327 167 288 c 1,37,-1
 172 287 l 1,38,39
 190 321 190 321 213 350 c 128,-1,40
 236 379 236 379 265.5 397.5 c 128,-1,41
 295 416 295 416 332 416 c 0,42,43
 371 416 371 416 393 396 c 128,-1,44
 415 376 415 376 424 346 c 128,-1,45
 433 316 433 316 433 284 c 0,46,47
 433 235 433 235 415.5 182.5 c 128,-1,48
 398 130 398 130 366 85.5 c 128,-1,49
 334 41 334 41 290 13.5 c 128,-1,50
 246 -14 246 -14 193 -14 c 0,0,1
124 74 m 0,51,52
 124 50 124 50 141.5 33 c 128,-1,53
 159 16 159 16 188 16 c 0,54,55
 222 16 222 16 252 39.5 c 128,-1,56
 282 63 282 63 304.5 102.5 c 128,-1,57
 327 142 327 142 340 189.5 c 128,-1,58
 353 237 353 237 353 285 c 0,59,60
 353 326 353 326 342 348.5 c 128,-1,61
 331 371 331 371 304 371 c 0,62,63
 276 371 276 371 249 347 c 128,-1,64
 222 323 222 323 199.5 285 c 128,-1,65
 177 247 177 247 160 206 c 128,-1,66
 143 165 143 165 133.5 129 c 128,-1,67
 124 93 124 93 124 74 c 0,51,52
EndSplineSet
Validated: 1048577
EndChar

StartChar: anna
Encoding: 34 57366 24
Width: 544
GlyphClass: 2
Flags: W
AnchorPoint: "xhook" 350 0 basechar 0
AnchorPoint: "TehtaAbove" 310 550 basechar 0
AnchorPoint: "TehtaBelow" 185 -125 basechar 0
LayerCount: 2
Fore
SplineSet
456 79 m 0,0,1
 460 79 460 79 467 72 c 128,-1,2
 474 65 474 65 474 62 c 0,3,4
 474 61 474 61 464 49.5 c 128,-1,5
 454 38 454 38 436 23 c 128,-1,6
 418 8 418 8 394.5 -3 c 128,-1,7
 371 -14 371 -14 343 -14 c 0,8,9
 310 -14 310 -14 298 3 c 128,-1,10
 286 20 286 20 286 42 c 0,11,12
 286 62 286 62 291 83 c 128,-1,13
 296 104 296 104 302 123 c 1,14,-1
 296 124 l 1,15,16
 259 60 259 60 215 23 c 128,-1,17
 171 -14 171 -14 115 -14 c 0,18,19
 75 -14 75 -14 58 8 c 128,-1,20
 41 30 41 30 41 59 c 0,21,22
 41 86 41 86 52.5 127 c 128,-1,23
 64 168 64 168 78.5 213 c 128,-1,24
 93 258 93 258 104.5 296 c 128,-1,25
 116 334 116 334 116 355 c 0,26,27
 116 371 116 371 99 371 c 0,28,29
 86 371 86 371 67.5 367.5 c 128,-1,30
 49 364 49 364 47 364 c 128,-1,31
 45 364 45 364 43 369.5 c 128,-1,32
 41 375 41 375 41 380 c 0,33,34
 41 387 41 387 44 387 c 0,35,36
 92 399 92 399 125.5 403.5 c 128,-1,37
 159 408 159 408 170 408 c 0,38,39
 184 408 184 408 189 400.5 c 128,-1,40
 194 393 194 393 194 383 c 0,41,42
 194 353 194 353 182 309.5 c 128,-1,43
 170 266 170 266 155 219.5 c 128,-1,44
 140 173 140 173 128 132.5 c 128,-1,45
 116 92 116 92 116 68 c 0,46,47
 116 48 116 48 124.5 40 c 128,-1,48
 133 32 133 32 148 32 c 0,49,50
 182 32 182 32 220 67.5 c 128,-1,51
 258 103 258 103 296.5 180 c 128,-1,52
 335 257 335 257 368 381 c 0,53,54
 372 394 372 394 375.5 397.5 c 128,-1,55
 379 401 379 401 391 403 c 0,56,57
 410 406 410 406 425 407 c 128,-1,58
 440 408 440 408 443 408 c 0,59,60
 450 408 450 408 450 402 c 0,61,62
 450 398 450 398 445 383 c 0,63,64
 432 343 432 343 417 291.5 c 128,-1,65
 402 240 402 240 389 190.5 c 128,-1,66
 376 141 376 141 367.5 104 c 128,-1,67
 359 67 359 67 359 56 c 0,68,69
 359 49 359 49 362.5 40.5 c 128,-1,70
 366 32 366 32 379 32 c 0,71,72
 399 32 399 32 416 44 c 128,-1,73
 433 56 433 56 444 67.5 c 128,-1,74
 455 79 455 79 456 79 c 0,0,1
EndSplineSet
Validated: 1048577
EndChar

StartChar: wilya
Encoding: 35 57367 25
Width: 500
GlyphClass: 2
Flags: W
AnchorPoint: "xhook" 310 0 basechar 0
AnchorPoint: "TehtaBelow" 185 -125 basechar 0
AnchorPoint: "TehtaAbove" 310 550 basechar 0
LayerCount: 2
Fore
SplineSet
264 416 m 0,0,1
 293 416 293 416 316 406.5 c 128,-1,2
 339 397 339 397 353 374 c 1,3,-1
 356 375 l 1,4,5
 361 391 361 391 363.5 396 c 128,-1,6
 366 401 366 401 380 403 c 0,7,8
 399 406 399 406 413 407 c 128,-1,9
 427 408 427 408 430 408 c 0,10,11
 437 408 437 408 437 402 c 0,12,13
 437 398 437 398 432 383 c 0,14,15
 430 376 430 376 421 345.5 c 128,-1,16
 412 315 412 315 400 271.5 c 128,-1,17
 388 228 388 228 376 183.5 c 128,-1,18
 364 139 364 139 356.5 104 c 128,-1,19
 349 69 349 69 349 56 c 0,20,21
 349 49 349 49 352.5 40.5 c 128,-1,22
 356 32 356 32 371 32 c 0,23,24
 389 32 389 32 405.5 44 c 128,-1,25
 422 56 422 56 433.5 67.5 c 128,-1,26
 445 79 445 79 446 79 c 0,27,28
 450 79 450 79 457 72 c 128,-1,29
 464 65 464 65 464 62 c 0,30,31
 464 61 464 61 454 49.5 c 128,-1,32
 444 38 444 38 426 23 c 128,-1,33
 408 8 408 8 384.5 -3 c 128,-1,34
 361 -14 361 -14 333 -14 c 0,35,36
 277 -14 277 -14 277 41 c 0,37,38
 277 62 277 62 290 110 c 1,39,-1
 285 111 l 1,40,41
 258 61 258 61 221.5 23.5 c 128,-1,42
 185 -14 185 -14 132 -14 c 0,43,44
 94 -14 94 -14 70.5 6 c 128,-1,45
 47 26 47 26 36.5 56.5 c 128,-1,46
 26 87 26 87 26 117 c 0,47,48
 26 168 26 168 43.5 221 c 128,-1,49
 61 274 61 274 92.5 318 c 128,-1,50
 124 362 124 362 168 389 c 128,-1,51
 212 416 212 416 264 416 c 0,0,1
335 327 m 0,52,53
 335 352 335 352 319.5 369.5 c 128,-1,54
 304 387 304 387 273 387 c 0,55,56
 239 387 239 387 208.5 363.5 c 128,-1,57
 178 340 178 340 155 300.5 c 128,-1,58
 132 261 132 261 119 212 c 128,-1,59
 106 163 106 163 106 113 c 0,60,61
 106 79 106 79 117 55 c 128,-1,62
 128 31 128 31 156 31 c 0,63,64
 185 31 185 31 211.5 55 c 128,-1,65
 238 79 238 79 260.5 116.5 c 128,-1,66
 283 154 283 154 299.5 195.5 c 128,-1,67
 316 237 316 237 325.5 272.5 c 128,-1,68
 335 308 335 308 335 327 c 0,52,53
EndSplineSet
Validated: 1048577
EndChar

StartChar: tinco_ext
Encoding: 36 57368 26
Width: 492
GlyphClass: 2
Flags: W
AnchorPoint: "xhook" 310 0 basechar 0
AnchorPoint: "TehtaBelow" 265 -125 basechar 0
AnchorPoint: "TehtaAbove" 390 550 basechar 0
LayerCount: 2
Fore
SplineSet
130 248 m 1,0,-1
 136 247 l 1,1,2
 183 326 183 326 232 367 c 128,-1,3
 281 408 281 408 334 408 c 0,4,5
 375 408 375 408 391.5 386.5 c 128,-1,6
 408 365 408 365 408 338 c 0,7,8
 408 317 408 317 399.5 285.5 c 128,-1,9
 391 254 391 254 378.5 218.5 c 128,-1,10
 366 183 366 183 353 149 c 128,-1,11
 340 115 340 115 331.5 87.5 c 128,-1,12
 323 60 323 60 323 46 c 0,13,14
 323 39 323 39 327.5 31.5 c 128,-1,15
 332 24 332 24 346 24 c 0,16,17
 363 24 363 24 379 36 c 128,-1,18
 395 48 395 48 406.5 59.5 c 128,-1,19
 418 71 418 71 419 71 c 0,20,21
 423 71 423 71 430 64 c 128,-1,22
 437 57 437 57 437 54 c 0,23,24
 437 53 437 53 427 41.5 c 128,-1,25
 417 30 417 30 399.5 15 c 128,-1,26
 382 -0 382 -0 358.5 -11 c 128,-1,27
 335 -22 335 -22 308 -22 c 0,28,29
 248 -22 248 -22 248 34 c 0,30,31
 248 62 248 62 260.5 104 c 128,-1,32
 273 146 273 146 289.5 190.5 c 128,-1,33
 306 235 306 235 318.5 273 c 128,-1,34
 331 311 331 311 331 330 c 0,35,36
 331 363 331 363 301 363 c 0,37,38
 267 363 267 363 222 318 c 128,-1,39
 177 273 177 273 136 191 c 128,-1,40
 95 109 95 109 70 -1 c 0,41,42
 69 -8 69 -8 63 -8 c 1,43,-1
 130 248 l 1,0,-1
156 291 m 1,44,-1
 87 23 l 2,45,46
 82 1 82 1 66 -62 c 128,-1,47
 50 -125 50 -125 26 -229 c 0,48,49
 25 -236 25 -236 19 -236 c 0,50,51
 -8 -237 -8 -237 -29 -240 c 128,-1,52
 -50 -243 -50 -243 -52 -243 c 0,53,54
 -57 -243 -57 -243 -56 -239 c 2,55,-1
 65 206 l 2,56,57
 88 291 88 291 110 370.5 c 128,-1,58
 132 450 132 450 150.5 517.5 c 128,-1,59
 169 585 169 585 182 634 c 0,60,61
 186 647 186 647 190 651 c 128,-1,62
 194 655 194 655 206 657 c 0,63,64
 225 660 225 660 240.5 661 c 128,-1,65
 256 662 256 662 259 662 c 0,66,67
 267 662 267 662 267 656 c 0,68,69
 267 652 267 652 262 637 c 0,70,71
 239 567 239 567 211 475 c 128,-1,72
 183 383 183 383 156 291 c 1,44,-1
EndSplineSet
Validated: 1048581
EndChar

StartChar: parma_ext
Encoding: 37 57369 27
Width: 472
GlyphClass: 2
Flags: W
AnchorPoint: "xhook" 300 0 basechar 0
AnchorPoint: "TehtaBelow" 275 -125 basechar 0
AnchorPoint: "TehtaAbove" 400 550 basechar 0
LayerCount: 2
Fore
SplineSet
155 291 m 1,0,-1
 159 290 l 1,1,2
 176 318 176 318 200.5 347 c 128,-1,3
 225 376 225 376 256 396 c 128,-1,4
 287 416 287 416 321 416 c 0,5,6
 373 416 373 416 397 381 c 128,-1,7
 421 346 421 346 421 288 c 0,8,9
 421 239 421 239 404 186 c 128,-1,10
 387 133 387 133 354.5 87.5 c 128,-1,11
 322 42 322 42 277 14 c 128,-1,12
 232 -14 232 -14 176 -14 c 0,13,14
 151 -14 151 -14 128 -4.5 c 128,-1,15
 105 5 105 5 88 24 c 1,16,-1
 86 23 l 1,17,18
 81 1 81 1 65 -62 c 128,-1,19
 49 -125 49 -125 25 -229 c 0,20,21
 24 -236 24 -236 18 -236 c 0,22,23
 -9 -237 -9 -237 -30 -240 c 128,-1,24
 -51 -243 -51 -243 -53 -243 c 0,25,26
 -58 -243 -58 -243 -57 -239 c 2,27,-1
 64 206 l 2,28,29
 87 291 87 291 109 370.5 c 128,-1,30
 131 450 131 450 149.5 517.5 c 128,-1,31
 168 585 168 585 181 634 c 0,32,33
 185 647 185 647 189 651 c 128,-1,34
 193 655 193 655 205 657 c 0,35,36
 224 660 224 660 239.5 661 c 128,-1,37
 255 662 255 662 258 662 c 0,38,39
 266 662 266 662 266 656 c 0,40,41
 266 652 266 652 261 637 c 0,42,43
 238 567 238 567 210 475 c 128,-1,44
 182 383 182 383 155 291 c 1,0,-1
105 74 m 0,45,46
 105 51 105 51 123.5 33.5 c 128,-1,47
 142 16 142 16 175 16 c 0,48,49
 213 16 213 16 243.5 42.5 c 128,-1,50
 274 69 274 69 295.5 111 c 128,-1,51
 317 153 317 153 329 200.5 c 128,-1,52
 341 248 341 248 341 289 c 0,53,54
 341 371 341 371 297 371 c 0,55,56
 266 371 266 371 237.5 346.5 c 128,-1,57
 209 322 209 322 184.5 284 c 128,-1,58
 160 246 160 246 142.5 204.5 c 128,-1,59
 125 163 125 163 115 127.5 c 128,-1,60
 105 92 105 92 105 74 c 0,45,46
EndSplineSet
Validated: 1048577
EndChar

StartChar: calma_ext
Encoding: 38 57370 28
Width: 467
GlyphClass: 2
Flags: W
AnchorPoint: "xhook" 60 0 basechar 0
AnchorPoint: "TehtaBelow" 55 -125 basechar 0
AnchorPoint: "TehtaAbove" 230 550 basechar 0
LayerCount: 2
Fore
SplineSet
392 291 m 1,0,-1
 323 23 l 2,1,2
 318 1 318 1 302 -62 c 128,-1,3
 286 -125 286 -125 262 -229 c 0,4,5
 261 -236 261 -236 255 -236 c 0,6,7
 228 -237 228 -237 207 -240 c 128,-1,8
 186 -243 186 -243 184 -243 c 0,9,10
 179 -243 179 -243 180 -239 c 2,11,-1
 301 206 l 2,12,13
 324 291 324 291 346 370.5 c 128,-1,14
 368 450 368 450 386.5 517.5 c 128,-1,15
 405 585 405 585 418 634 c 0,16,17
 422 647 422 647 426 651 c 128,-1,18
 430 655 430 655 442 657 c 0,19,20
 461 660 461 660 476.5 661 c 128,-1,21
 492 662 492 662 495 662 c 0,22,23
 503 662 503 662 503 656 c 0,24,25
 503 652 503 652 498 637 c 0,26,27
 475 567 475 567 447 475 c 128,-1,28
 419 383 419 383 392 291 c 1,0,-1
289 114 m 1,29,-1
 283 115 l 1,30,31
 246 51 246 51 202 14 c 128,-1,32
 158 -23 158 -23 102 -23 c 0,33,34
 62 -23 62 -23 45 -1 c 128,-1,35
 28 21 28 21 28 50 c 0,36,37
 28 77 28 77 39.5 118 c 128,-1,38
 51 159 51 159 65.5 204 c 128,-1,39
 80 249 80 249 91.5 287 c 128,-1,40
 103 325 103 325 103 346 c 0,41,42
 103 362 103 362 86 362 c 0,43,44
 73 362 73 362 54.5 358.5 c 128,-1,45
 36 355 36 355 34 355 c 128,-1,46
 32 355 32 355 30 360.5 c 128,-1,47
 28 366 28 366 28 371 c 0,48,49
 28 378 28 378 31 378 c 0,50,51
 79 390 79 390 112.5 394.5 c 128,-1,52
 146 399 146 399 157 399 c 0,53,54
 171 399 171 399 176 391.5 c 128,-1,55
 181 384 181 384 181 374 c 0,56,57
 181 344 181 344 169 300.5 c 128,-1,58
 157 257 157 257 142 210.5 c 128,-1,59
 127 164 127 164 115 123.5 c 128,-1,60
 103 83 103 83 103 59 c 0,61,62
 103 39 103 39 111.5 31 c 128,-1,63
 120 23 120 23 135 23 c 0,64,65
 169 23 169 23 207 58.5 c 128,-1,66
 245 94 245 94 283.5 171 c 128,-1,67
 322 248 322 248 355 372 c 1,68,-1
 289 114 l 1,29,-1
EndSplineSet
Validated: 1048581
EndChar

StartChar: quesse_ext
Encoding: 39 57371 29
Width: 468
GlyphClass: 2
Flags: W
AnchorPoint: "xhook" 70 0 basechar 0
AnchorPoint: "TehtaAbove" 230 550 basechar 0
AnchorPoint: "TehtaBelow" 55 -125 basechar 0
LayerCount: 2
Fore
SplineSet
383 291 m 1,0,-1
 314 23 l 2,1,2
 309 1 309 1 293 -62 c 128,-1,3
 277 -125 277 -125 253 -229 c 0,4,5
 252 -236 252 -236 246 -236 c 0,6,7
 219 -237 219 -237 198 -240 c 128,-1,8
 177 -243 177 -243 175 -243 c 0,9,10
 170 -243 170 -243 171 -239 c 2,11,-1
 292 206 l 2,12,13
 315 291 315 291 337 370.5 c 128,-1,14
 359 450 359 450 377.5 517.5 c 128,-1,15
 396 585 396 585 409 634 c 0,16,17
 413 647 413 647 417 651 c 128,-1,18
 421 655 421 655 433 657 c 0,19,20
 452 660 452 660 467.5 661 c 128,-1,21
 483 662 483 662 486 662 c 0,22,23
 494 662 494 662 494 656 c 0,24,25
 494 652 494 652 489 637 c 0,26,27
 466 567 466 567 438 475 c 128,-1,28
 410 383 410 383 383 291 c 1,0,-1
270 110 m 1,29,30
 253 78 253 78 229.5 49 c 128,-1,31
 206 20 206 20 177 1.5 c 128,-1,32
 148 -17 148 -17 112 -17 c 0,33,34
 73 -17 73 -17 49.5 2 c 128,-1,35
 26 21 26 21 15.5 50.5 c 128,-1,36
 5 80 5 80 5 111 c 0,37,38
 5 164 5 164 22.5 217 c 128,-1,39
 40 270 40 270 72.5 314.5 c 128,-1,40
 105 359 105 359 150 386 c 128,-1,41
 195 413 195 413 251 413 c 0,42,43
 277 413 277 413 299.5 403.5 c 128,-1,44
 322 394 322 394 338 374 c 1,45,-1
 270 110 l 1,29,30
320 326 m 0,46,47
 320 349 320 349 304.5 366.5 c 128,-1,48
 289 384 289 384 255 384 c 128,-1,49
 221 384 221 384 190.5 360 c 128,-1,50
 160 336 160 336 136 296.5 c 128,-1,51
 112 257 112 257 98.5 208.5 c 128,-1,52
 85 160 85 160 85 110 c 0,53,54
 85 79 85 79 96.5 53.5 c 128,-1,55
 108 28 108 28 136 28 c 0,56,57
 167 28 167 28 194.5 52 c 128,-1,58
 222 76 222 76 245 113.5 c 128,-1,59
 268 151 268 151 284.5 192.5 c 128,-1,60
 301 234 301 234 310.5 270 c 128,-1,61
 320 306 320 306 320 326 c 0,46,47
EndSplineSet
Validated: 1048581
EndChar

StartChar: ando_ext
Encoding: 40 57372 30
Width: 733
GlyphClass: 2
Flags: W
AnchorPoint: "xhook" 530 0 basechar 0
AnchorPoint: "TehtaBelow" 265 -125 basechar 0
AnchorPoint: "TehtaAbove" 440 550 basechar 0
LayerCount: 2
Fore
SplineSet
156 291 m 1,0,-1
 87 23 l 2,1,2
 82 1 82 1 66 -62 c 128,-1,3
 50 -125 50 -125 26 -229 c 0,4,5
 25 -236 25 -236 19 -236 c 0,6,7
 -8 -237 -8 -237 -29 -240 c 128,-1,8
 -50 -243 -50 -243 -52 -243 c 0,9,10
 -57 -243 -57 -243 -56 -239 c 2,11,-1
 65 206 l 2,12,13
 88 291 88 291 110 370.5 c 128,-1,14
 132 450 132 450 150.5 517.5 c 128,-1,15
 169 585 169 585 182 634 c 0,16,17
 186 647 186 647 190 651 c 128,-1,18
 194 655 194 655 206 657 c 0,19,20
 225 660 225 660 240.5 661 c 128,-1,21
 256 662 256 662 259 662 c 0,22,23
 267 662 267 662 267 656 c 0,24,25
 267 652 267 652 262 637 c 0,26,27
 239 567 239 567 211 475 c 128,-1,28
 183 383 183 383 156 291 c 1,0,-1
388 262 m 1,29,30
 436 342 436 342 482.5 379.5 c 128,-1,31
 529 417 529 417 578 417 c 0,32,33
 618 417 618 417 635 396.5 c 128,-1,34
 652 376 652 376 652 347 c 0,35,36
 652 326 652 326 643.5 294.5 c 128,-1,37
 635 263 635 263 622 227.5 c 128,-1,38
 609 192 609 192 596.5 158 c 128,-1,39
 584 124 584 124 575.5 96.5 c 128,-1,40
 567 69 567 69 567 55 c 0,41,42
 567 48 567 48 571.5 40.5 c 128,-1,43
 576 33 576 33 590 33 c 0,44,45
 607 33 607 33 623 45 c 128,-1,46
 639 57 639 57 650.5 68.5 c 128,-1,47
 662 80 662 80 663 80 c 0,48,49
 667 80 667 80 674 73 c 128,-1,50
 681 66 681 66 681 63 c 0,51,52
 681 62 681 62 671 50.5 c 128,-1,53
 661 39 661 39 643.5 24 c 128,-1,54
 626 9 626 9 602.5 -2 c 128,-1,55
 579 -13 579 -13 552 -13 c 0,56,57
 492 -13 492 -13 492 43 c 0,58,59
 492 71 492 71 504.5 113 c 128,-1,60
 517 155 517 155 533.5 199.5 c 128,-1,61
 550 244 550 244 562.5 282 c 128,-1,62
 575 320 575 320 575 339 c 0,63,64
 575 372 575 372 546 372 c 0,65,66
 512 372 512 372 468.5 326.5 c 128,-1,67
 425 281 425 281 383.5 199 c 128,-1,68
 342 117 342 117 313 8 c 0,69,70
 311 1 311 1 306 1 c 0,71,72
 279 0 279 0 259 -3 c 128,-1,73
 239 -6 239 -6 237 -6 c 0,74,75
 232 -6 232 -6 233 -2 c 0,76,77
 250 46 250 46 266.5 100.5 c 128,-1,78
 283 155 283 155 297 205.5 c 128,-1,79
 311 256 311 256 319.5 292.5 c 128,-1,80
 328 329 328 329 328 342 c 0,81,82
 328 372 328 372 302 372 c 0,83,84
 277 372 277 372 245.5 346 c 128,-1,85
 214 320 214 320 181.5 272 c 128,-1,86
 149 224 149 224 120 157 c 1,87,-1
 134 257 l 1,88,-1
 140 256 l 1,89,90
 187 335 187 335 234.5 376 c 128,-1,91
 282 417 282 417 335 417 c 0,92,93
 372 417 372 417 386 398 c 128,-1,94
 400 379 400 379 400 350 c 0,95,96
 400 331 400 331 394.5 307.5 c 128,-1,97
 389 284 389 284 382 263 c 1,98,-1
 388 262 l 1,29,30
EndSplineSet
Validated: 1048581
EndChar

StartChar: umbar_ext
Encoding: 41 57373 31
Width: 718
GlyphClass: 2
Flags: W
AnchorPoint: "xhook" 530 0 basechar 0
AnchorPoint: "TehtaBelow" 265 -125 basechar 0
AnchorPoint: "TehtaAbove" 440 550 basechar 0
LayerCount: 2
Fore
SplineSet
155 291 m 1,0,-1
 159 290 l 1,1,2
 176 318 176 318 200.5 347 c 128,-1,3
 225 376 225 376 256 396 c 128,-1,4
 287 416 287 416 321 416 c 0,5,6
 373 416 373 416 397 381 c 128,-1,7
 421 346 421 346 421 288 c 0,8,9
 421 239 421 239 404 186 c 128,-1,10
 387 133 387 133 354.5 87.5 c 128,-1,11
 322 42 322 42 277 14 c 128,-1,12
 232 -14 232 -14 176 -14 c 0,13,14
 151 -14 151 -14 128 -4.5 c 128,-1,15
 105 5 105 5 88 24 c 1,16,-1
 86 23 l 1,17,18
 81 1 81 1 65 -62 c 128,-1,19
 49 -125 49 -125 25 -229 c 0,20,21
 24 -236 24 -236 18 -236 c 0,22,23
 -9 -237 -9 -237 -30 -240 c 128,-1,24
 -51 -243 -51 -243 -53 -243 c 0,25,26
 -58 -243 -58 -243 -57 -239 c 2,27,-1
 64 206 l 2,28,29
 87 291 87 291 109 370.5 c 128,-1,30
 131 450 131 450 149.5 517.5 c 128,-1,31
 168 585 168 585 181 634 c 0,32,33
 185 647 185 647 189 651 c 128,-1,34
 193 655 193 655 205 657 c 0,35,36
 224 660 224 660 239.5 661 c 128,-1,37
 255 662 255 662 258 662 c 0,38,39
 266 662 266 662 266 656 c 0,40,41
 266 652 266 652 261 637 c 0,42,43
 238 567 238 567 210 475 c 128,-1,44
 182 383 182 383 155 291 c 1,0,-1
105 74 m 0,45,46
 105 51 105 51 123.5 33.5 c 128,-1,47
 142 16 142 16 175 16 c 0,48,49
 213 16 213 16 243.5 42.5 c 128,-1,50
 274 69 274 69 295.5 111 c 128,-1,51
 317 153 317 153 329 200.5 c 128,-1,52
 341 248 341 248 341 289 c 0,53,54
 341 371 341 371 297 371 c 0,55,56
 266 371 266 371 237.5 346.5 c 128,-1,57
 209 322 209 322 184.5 284 c 128,-1,58
 160 246 160 246 142.5 204.5 c 128,-1,59
 125 163 125 163 115 127.5 c 128,-1,60
 105 92 105 92 105 74 c 0,45,46
333 24 m 1,61,-1
 395 276 l 1,62,63
 412 306 412 306 438.5 338.5 c 128,-1,64
 465 371 465 371 498 393.5 c 128,-1,65
 531 416 531 416 566 416 c 0,66,67
 618 416 618 416 642 381 c 128,-1,68
 666 346 666 346 666 288 c 0,69,70
 666 239 666 239 649 186 c 128,-1,71
 632 133 632 133 599.5 87.5 c 128,-1,72
 567 42 567 42 522 14 c 128,-1,73
 477 -14 477 -14 421 -14 c 0,74,75
 396 -14 396 -14 373 -4.5 c 128,-1,76
 350 5 350 5 333 24 c 1,61,-1
350 74 m 0,77,78
 350 51 350 51 368.5 33.5 c 128,-1,79
 387 16 387 16 420 16 c 0,80,81
 458 16 458 16 488.5 42.5 c 128,-1,82
 519 69 519 69 540.5 111 c 128,-1,83
 562 153 562 153 574 200.5 c 128,-1,84
 586 248 586 248 586 289 c 0,85,86
 586 371 586 371 542 371 c 0,87,88
 511 371 511 371 482.5 346.5 c 128,-1,89
 454 322 454 322 429.5 284 c 128,-1,90
 405 246 405 246 387.5 204.5 c 128,-1,91
 370 163 370 163 360 127.5 c 128,-1,92
 350 92 350 92 350 74 c 0,77,78
EndSplineSet
Validated: 1048581
EndChar

StartChar: anga_ext
Encoding: 42 57374 32
Width: 663
GlyphClass: 2
Flags: W
AnchorPoint: "xhook" 270 0 basechar 0
AnchorPoint: "TehtaBelow" 185 -125 basechar 0
AnchorPoint: "TehtaAbove" 360 550 basechar 0
LayerCount: 2
Fore
SplineSet
584 291 m 1,0,-1
 515 23 l 2,1,2
 510 1 510 1 494 -62 c 128,-1,3
 478 -125 478 -125 454 -229 c 0,4,5
 453 -236 453 -236 447 -236 c 0,6,7
 420 -237 420 -237 399 -240 c 128,-1,8
 378 -243 378 -243 376 -243 c 0,9,10
 371 -243 371 -243 372 -239 c 2,11,-1
 493 206 l 2,12,13
 516 291 516 291 538 370.5 c 128,-1,14
 560 450 560 450 578.5 517.5 c 128,-1,15
 597 585 597 585 610 634 c 0,16,17
 614 647 614 647 618 651 c 128,-1,18
 622 655 622 655 634 657 c 0,19,20
 653 660 653 660 668.5 661 c 128,-1,21
 684 662 684 662 687 662 c 0,22,23
 695 662 695 662 695 656 c 0,24,25
 695 652 695 652 690 637 c 0,26,27
 667 567 667 567 639 475 c 128,-1,28
 611 383 611 383 584 291 c 1,0,-1
310 58 m 0,29,30
 310 39 310 39 316.5 31.5 c 128,-1,31
 323 24 323 24 336 24 c 0,32,33
 367 24 367 24 401.5 59.5 c 128,-1,34
 436 95 436 95 472 172 c 128,-1,35
 508 249 508 249 540 373 c 1,36,-1
 474 115 l 1,37,-1
 468 116 l 1,38,39
 434 52 434 52 395 15 c 128,-1,40
 356 -22 356 -22 305 -22 c 0,41,42
 269 -22 269 -22 253.5 -2.5 c 128,-1,43
 238 17 238 17 238 44 c 0,44,45
 238 58 238 58 243.5 78.5 c 128,-1,46
 249 99 249 99 254 115 c 1,47,-1
 248 116 l 1,48,49
 214 52 214 52 175 15 c 128,-1,50
 136 -22 136 -22 84 -22 c 0,51,52
 47 -22 47 -22 30.5 0 c 128,-1,53
 14 22 14 22 14 51 c 0,54,55
 14 78 14 78 25.5 119 c 128,-1,56
 37 160 37 160 51.5 205 c 128,-1,57
 66 250 66 250 77.5 288 c 128,-1,58
 89 326 89 326 89 347 c 0,59,60
 89 363 89 363 72 363 c 0,61,62
 59 363 59 363 40.5 359.5 c 128,-1,63
 22 356 22 356 20 356 c 128,-1,64
 18 356 18 356 16 361.5 c 128,-1,65
 14 367 14 367 14 372 c 0,66,67
 14 379 14 379 17 379 c 0,68,69
 65 391 65 391 98 395.5 c 128,-1,70
 131 400 131 400 142 400 c 0,71,72
 156 400 156 400 161 392.5 c 128,-1,73
 166 385 166 385 166 375 c 0,74,75
 166 345 166 345 154 301.5 c 128,-1,76
 142 258 142 258 127 211.5 c 128,-1,77
 112 165 112 165 100 124.5 c 128,-1,78
 88 84 88 84 88 60 c 0,79,80
 88 40 88 40 95.5 32 c 128,-1,81
 103 24 103 24 116 24 c 0,82,83
 147 24 147 24 181.5 59.5 c 128,-1,84
 216 95 216 95 252 172 c 128,-1,85
 288 249 288 249 320 373 c 0,86,87
 323 386 323 386 327 389.5 c 128,-1,88
 331 393 331 393 343 395 c 0,89,90
 361 398 361 398 375.5 399 c 128,-1,91
 390 400 390 400 393 400 c 0,92,93
 400 400 400 400 400 394 c 0,94,95
 400 390 400 390 395 375 c 0,96,97
 382 335 382 335 367 285 c 128,-1,98
 352 235 352 235 339 187.5 c 128,-1,99
 326 140 326 140 318 104.5 c 128,-1,100
 310 69 310 69 310 58 c 0,29,30
EndSplineSet
Validated: 1048581
EndChar

StartChar: ungwe_ext
Encoding: 43 57375 33
Width: 712
GlyphClass: 2
Flags: W
AnchorPoint: "xhook" 310 0 basechar 0
AnchorPoint: "TehtaBelow" 205 -125 basechar 0
AnchorPoint: "TehtaAbove" 380 550 basechar 0
LayerCount: 2
Fore
SplineSet
631 291 m 1,0,-1
 562 23 l 2,1,2
 557 1 557 1 541 -62 c 128,-1,3
 525 -125 525 -125 501 -229 c 0,4,5
 500 -236 500 -236 494 -236 c 0,6,7
 467 -237 467 -237 446 -240 c 128,-1,8
 425 -243 425 -243 423 -243 c 0,9,10
 418 -243 418 -243 419 -239 c 2,11,-1
 540 206 l 2,12,13
 563 291 563 291 585 370.5 c 128,-1,14
 607 450 607 450 625.5 517.5 c 128,-1,15
 644 585 644 585 657 634 c 0,16,17
 661 647 661 647 665 651 c 128,-1,18
 669 655 669 655 681 657 c 0,19,20
 700 660 700 660 715.5 661 c 128,-1,21
 731 662 731 662 734 662 c 0,22,23
 742 662 742 662 742 656 c 0,24,25
 742 652 742 652 737 637 c 0,26,27
 714 567 714 567 686 475 c 128,-1,28
 658 383 658 383 631 291 c 1,0,-1
518 110 m 1,29,30
 501 78 501 78 477.5 49 c 128,-1,31
 454 20 454 20 425 1.5 c 128,-1,32
 396 -17 396 -17 360 -17 c 0,33,34
 321 -17 321 -17 297.5 2 c 128,-1,35
 274 21 274 21 263.5 50.5 c 128,-1,36
 253 80 253 80 253 111 c 0,37,38
 253 164 253 164 270.5 217 c 128,-1,39
 288 270 288 270 320.5 314.5 c 128,-1,40
 353 359 353 359 398 386 c 128,-1,41
 443 413 443 413 499 413 c 0,42,43
 525 413 525 413 547.5 403.5 c 128,-1,44
 570 394 570 394 586 374 c 1,45,-1
 518 110 l 1,29,30
568 326 m 0,46,47
 568 349 568 349 552.5 366.5 c 128,-1,48
 537 384 537 384 503 384 c 128,-1,49
 469 384 469 384 438.5 360 c 128,-1,50
 408 336 408 336 384 296.5 c 128,-1,51
 360 257 360 257 346.5 208.5 c 128,-1,52
 333 160 333 160 333 110 c 0,53,54
 333 79 333 79 344.5 53.5 c 128,-1,55
 356 28 356 28 384 28 c 0,56,57
 415 28 415 28 442.5 52 c 128,-1,58
 470 76 470 76 493 113.5 c 128,-1,59
 516 151 516 151 532.5 192.5 c 128,-1,60
 549 234 549 234 558.5 270 c 128,-1,61
 568 306 568 306 568 326 c 0,46,47
273 111 m 1,62,63
 256 79 256 79 232.5 50 c 128,-1,64
 209 21 209 21 180 2.5 c 128,-1,65
 151 -16 151 -16 115 -16 c 0,66,67
 76 -16 76 -16 52.5 3 c 128,-1,68
 29 22 29 22 18.5 51.5 c 128,-1,69
 8 81 8 81 8 112 c 0,70,71
 8 165 8 165 25.5 218 c 128,-1,72
 43 271 43 271 75.5 315.5 c 128,-1,73
 108 360 108 360 153 387 c 128,-1,74
 198 414 198 414 254 414 c 0,75,76
 280 414 280 414 302.5 404.5 c 128,-1,77
 325 395 325 395 341 375 c 1,78,-1
 273 111 l 1,62,63
323 327 m 0,79,80
 323 350 323 350 307.5 367.5 c 128,-1,81
 292 385 292 385 258 385 c 128,-1,82
 224 385 224 385 193.5 361 c 128,-1,83
 163 337 163 337 139 297.5 c 128,-1,84
 115 258 115 258 101.5 209.5 c 128,-1,85
 88 161 88 161 88 111 c 0,86,87
 88 80 88 80 99.5 54.5 c 128,-1,88
 111 29 111 29 139 29 c 0,89,90
 170 29 170 29 197.5 53 c 128,-1,91
 225 77 225 77 248 114.5 c 128,-1,92
 271 152 271 152 287.5 193.5 c 128,-1,93
 304 235 304 235 313.5 271 c 128,-1,94
 323 307 323 307 323 327 c 0,79,80
EndSplineSet
Validated: 1048581
EndChar

StartChar: roomen
Encoding: 44 57376 34
Width: 488
GlyphClass: 2
Flags: W
AnchorPoint: "xhook" 120 360 basechar 0
AnchorPoint: "TehtaAbove" 280 550 basechar 0
AnchorPoint: "TehtaBelow" 305 -125 basechar 0
LayerCount: 2
Fore
SplineSet
-23 -149 m 1,0,1
 -23 -162 -23 -162 -16 -171 c 128,-1,2
 -9 -180 -9 -180 7 -180 c 0,3,4
 77 -180 77 -180 202 -4 c 1,5,6
 194 -4 194 -4 185 -5 c 128,-1,7
 176 -6 176 -6 174 -6 c 0,8,9
 169 -6 169 -6 169 -1 c 0,10,11
 165 70 165 70 159 135 c 128,-1,12
 153 200 153 200 145 247 c 0,13,14
 136 306 136 306 124 336.5 c 128,-1,15
 112 367 112 367 86 367 c 0,16,17
 72 367 72 367 59.5 359.5 c 128,-1,18
 47 352 47 352 38.5 344.5 c 128,-1,19
 30 337 30 337 28 337 c 128,-1,20
 26 337 26 337 19 344 c 128,-1,21
 12 351 12 351 12 353 c 128,-1,22
 12 355 12 355 27.5 370 c 128,-1,23
 43 385 43 385 68.5 399.5 c 128,-1,24
 94 414 94 414 125 414 c 0,25,26
 166 414 166 414 187 376 c 128,-1,27
 208 338 208 338 219 251 c 0,28,29
 226 201 226 201 230.5 145.5 c 128,-1,30
 235 90 235 90 236 50 c 1,31,-1
 239 50 l 1,32,33
 287 120 287 120 313.5 171 c 128,-1,34
 340 222 340 222 350.5 260 c 128,-1,35
 361 298 361 298 361 328 c 0,36,37
 361 354 361 354 358 367 c 128,-1,38
 355 380 355 380 347 397 c 1,39,40
 364 419 364 419 392 419 c 0,41,42
 409 419 409 419 422.5 407 c 128,-1,43
 436 395 436 395 436 371 c 0,44,45
 436 346 436 346 428 318.5 c 128,-1,46
 420 291 420 291 397 241 c 0,47,48
 356 155 356 155 270 27 c 0,49,50
 248 -5 248 -5 223 -39 c 128,-1,51
 198 -73 198 -73 175.5 -101.5 c 128,-1,52
 153 -130 153 -130 136 -148 c 0,53,54
 46 -247 46 -247 -25 -247 c 0,55,56
 -56 -247 -56 -247 -71.5 -231 c 128,-1,57
 -87 -215 -87 -215 -87 -195 c 0,58,59
 -87 -174 -87 -174 -72 -160.5 c 128,-1,60
 -57 -147 -57 -147 -38 -147 c 0,61,62
 -29 -147 -29 -147 -23 -149 c 1,0,1
EndSplineSet
Validated: 1048577
EndChar

StartChar: arda
Encoding: 45 57377 35
Width: 482
GlyphClass: 2
Flags: W
AnchorPoint: "xhook" 120 360 basechar 0
AnchorPoint: "TehtaBelow" 305 -125 basechar 0
AnchorPoint: "TehtaAbove" 280 550 basechar 0
LayerCount: 2
Fore
SplineSet
-27 -149 m 1,0,1
 -27 -162 -27 -162 -20 -171 c 128,-1,2
 -13 -180 -13 -180 3 -180 c 0,3,4
 73 -180 73 -180 198 -4 c 1,5,6
 190 -4 190 -4 181 -5 c 128,-1,7
 172 -6 172 -6 170 -6 c 0,8,9
 165 -6 165 -6 165 -1 c 0,10,11
 161 70 161 70 155 135 c 128,-1,12
 149 200 149 200 141 247 c 0,13,14
 132 306 132 306 120 336.5 c 128,-1,15
 108 367 108 367 82 367 c 0,16,17
 68 367 68 367 55.5 359.5 c 128,-1,18
 43 352 43 352 34.5 344.5 c 128,-1,19
 26 337 26 337 24 337 c 128,-1,20
 22 337 22 337 15 344 c 128,-1,21
 8 351 8 351 8 353 c 128,-1,22
 8 355 8 355 23.5 370 c 128,-1,23
 39 385 39 385 64.5 399.5 c 128,-1,24
 90 414 90 414 121 414 c 0,25,26
 162 414 162 414 183 376 c 128,-1,27
 204 338 204 338 215 251 c 0,28,29
 222 201 222 201 226.5 145.5 c 128,-1,30
 231 90 231 90 232 50 c 1,31,-1
 235 50 l 1,32,33
 283 120 283 120 309.5 171 c 128,-1,34
 336 222 336 222 346.5 260 c 128,-1,35
 357 298 357 298 357 328 c 0,36,37
 357 354 357 354 354 367 c 128,-1,38
 351 380 351 380 343 397 c 1,39,40
 360 419 360 419 388 419 c 0,41,42
 405 419 405 419 418.5 407 c 128,-1,43
 432 395 432 395 432 371 c 0,44,45
 432 346 432 346 424 318.5 c 128,-1,46
 416 291 416 291 393 241 c 0,47,48
 352 155 352 155 266 27 c 0,49,50
 244 -5 244 -5 219 -39 c 128,-1,51
 194 -73 194 -73 171.5 -101.5 c 128,-1,52
 149 -130 149 -130 132 -148 c 0,53,54
 42 -247 42 -247 -29 -247 c 0,55,56
 -60 -247 -60 -247 -75.5 -231 c 128,-1,57
 -91 -215 -91 -215 -91 -195 c 0,58,59
 -91 -174 -91 -174 -76 -160.5 c 128,-1,60
 -61 -147 -61 -147 -42 -147 c 0,61,62
 -33 -147 -33 -147 -27 -149 c 1,0,1
166 106 m 1,63,-1
 164 106 l 1,64,65
 137 60 137 60 111 22.5 c 128,-1,66
 85 -15 85 -15 58.5 -37.5 c 128,-1,67
 32 -60 32 -60 2 -60 c 0,68,69
 -26 -60 -26 -60 -40 -44.5 c 128,-1,70
 -54 -29 -54 -29 -54 -10 c 0,71,72
 -54 8 -54 8 -41.5 22.5 c 128,-1,73
 -29 37 -29 37 -7 37 c 0,74,75
 -1 37 -1 37 5 36 c 0,76,77
 8 7 8 7 35 7 c 0,78,79
 58 7 58 7 87.5 45 c 128,-1,80
 117 83 117 83 155 148 c 1,81,-1
 166 106 l 1,63,-1
EndSplineSet
Validated: 1048581
EndChar

StartChar: lambe
Encoding: 46 57378 36
Width: 564
GlyphClass: 2
Flags: W
AnchorPoint: "lambe_shook" 425 -100 basechar 0
AnchorPoint: "xhook" 35 0 basechar 0
AnchorPoint: "TehtaAbove" 320 550 basechar 0
AnchorPoint: "TehtaBelow" 270 25 basechar 0
LayerCount: 2
Fore
SplineSet
338 374 m 1,0,1
 292 374 292 374 255 350.5 c 128,-1,2
 218 327 218 327 190 287.5 c 128,-1,3
 162 248 162 248 142.5 199.5 c 128,-1,4
 123 151 123 151 113.5 100 c 128,-1,5
 104 49 104 49 104 2 c 0,6,7
 104 -83 104 -83 138.5 -134 c 128,-1,8
 173 -185 173 -185 246 -185 c 0,9,10
 299 -185 299 -185 341.5 -157.5 c 128,-1,11
 384 -130 384 -130 419 -86 c 0,12,13
 424 -80 424 -80 428 -80 c 0,14,15
 431 -80 431 -80 440.5 -86 c 128,-1,16
 450 -92 450 -92 450 -97 c 0,17,18
 450 -101 450 -101 434.5 -122 c 128,-1,19
 419 -143 419 -143 390 -168 c 128,-1,20
 361 -193 361 -193 320.5 -211.5 c 128,-1,21
 280 -230 280 -230 229 -230 c 0,22,23
 170 -230 170 -230 128 -205.5 c 128,-1,24
 86 -181 86 -181 66 -142 c 128,-1,25
 46 -103 46 -103 38.5 -52.5 c 128,-1,26
 31 -2 31 -2 35.5 46.5 c 0,27,28
 40 96 40 96 52 142 c 1,29,30
 99 266 99 266 168.5 335 c 128,-1,31
 238 404 238 404 344 405 c 1,32,-1
 338 374 l 1,0,1
-20 358.5 m 128,-1,34
 -23 365 -23 365 -23 370 c 1,35,36
 5 389 5 389 34 398 c 128,-1,37
 63 407 63 407 104 407 c 2,38,-1
 522 407 l 2,39,40
 575 407 575 407 596 413 c 0,41,42
 599 412 599 412 602 405.5 c 128,-1,43
 605 399 605 399 605 394 c 1,44,45
 577 375 577 375 548 366 c 128,-1,46
 519 357 519 357 478 357 c 2,47,-1
 60 357 l 2,48,49
 7 357 7 357 -14 351 c 0,50,33
 -17 352 -17 352 -20 358.5 c 128,-1,34
EndSplineSet
Validated: 37
EndChar

StartChar: alda
Encoding: 47 57379 37
Width: 476
GlyphClass: 2
Flags: W
AnchorPoint: "xhook" 70 0 basechar 0
AnchorPoint: "TehtaBelow" 200 -75 basechar 0
AnchorPoint: "TehtaAbove" 280 550 basechar 0
LayerCount: 2
Fore
SplineSet
105 -53 m 1,0,1
 94 -81 94 -81 94 -107 c 0,2,3
 94 -144 94 -144 120 -172 c 0,4,5
 151 -206 151 -206 197 -200 c 0,6,7
 238 -194 238 -194 264.5 -182.5 c 128,-1,8
 291 -171 291 -171 299 -152.5 c 128,-1,9
 307 -134 307 -134 309 -115.5 c 128,-1,10
 311 -97 311 -97 297 -71 c 128,-1,11
 283 -45 283 -45 271.5 -25.5 c 128,-1,12
 260 -6 260 -6 235.5 22.5 c 128,-1,13
 211 51 211 51 197.5 66 c 128,-1,14
 184 81 184 81 160 106 c 0,15,16
 155 111 155 111 152.5 114 c 128,-1,17
 150 117 150 117 146 121 c 128,-1,18
 142 125 142 125 139 128 c 0,19,20
 77 199 77 199 92.5 267 c 0,21,22
 108 334 108 334 187 378 c 0,23,24
 231 402 231 402 291 402 c 1,25,-1
 286 371 l 1,26,27
 240 371 240 371 206 344 c 1,28,29
 176 315 176 315 168.5 278.5 c 128,-1,30
 161 242 161 242 173.5 208.5 c 128,-1,31
 186 175 186 175 213 149 c 0,32,33
 257 106 257 106 285.5 72.5 c 128,-1,34
 314 39 314 39 337.5 -0.5 c 128,-1,35
 361 -40 361 -40 365 -73.5 c 128,-1,36
 369 -107 369 -107 353 -143 c 0,37,38
 337 -178 337 -178 297 -210 c 0,39,40
 271 -230 271 -230 232.5 -236 c 128,-1,41
 194 -242 194 -242 157.5 -235 c 0,42,43
 120 -228 120 -228 90 -214 c 0,44,45
 50 -194 50 -194 31.5 -164.5 c 128,-1,46
 13 -135 13 -135 13 -106 c 0,47,48
 13 -78 13 -78 29 -59.5 c 128,-1,49
 45 -41 45 -41 68 -41 c 0,50,51
 86 -41 86 -41 105 -53 c 1,0,1
-16 365.5 m 128,-1,53
 -19 372 -19 372 -19 377 c 1,54,55
 9 396 9 396 38 405 c 128,-1,56
 67 414 67 414 108 414 c 2,57,-1
 426 414 l 2,58,59
 479 414 479 414 500 420 c 0,60,61
 503 419 503 419 506 412.5 c 128,-1,62
 509 406 509 406 509 401 c 1,63,64
 481 382 481 382 452 373 c 128,-1,65
 423 364 423 364 382 364 c 2,66,-1
 64 364 l 2,67,68
 11 364 11 364 -10 358 c 0,69,52
 -13 359 -13 359 -16 365.5 c 128,-1,53
EndSplineSet
Validated: 1048613
EndChar

StartChar: silme
Encoding: 48 57380 38
Width: 394
GlyphClass: 2
Flags: W
AnchorPoint: "xhook" 110 0 basechar 0
AnchorPoint: "TehtaBelow" 135 -225 basechar 0
AnchorPoint: "TehtaAbove" 370 750 basechar 0
LayerCount: 2
Fore
SplineSet
295 559 m 1,0,-1
 293 562 l 1,1,2
 286 561 286 561 280.5 560.5 c 128,-1,3
 275 560 275 560 268 560 c 0,4,5
 242 560 242 560 217 567.5 c 128,-1,6
 192 575 192 575 175.5 591.5 c 128,-1,7
 159 608 159 608 159 633 c 0,8,9
 159 653 159 653 173 671 c 128,-1,10
 187 689 187 689 221 689 c 2,11,12
 220 689 220 689 224 689 c 1,13,-1
 231 688 l 1,14,15
 230 680 230 680 228 671.5 c 128,-1,16
 226 663 226 663 226 652 c 0,17,18
 226 615 226 615 245.5 603 c 128,-1,19
 265 591 265 591 292 591 c 0,20,21
 300 591 300 591 312.5 591.5 c 128,-1,22
 325 592 325 592 337 595 c 1,23,24
 366 614 366 614 390 628.5 c 128,-1,25
 414 643 414 643 439 656 c 1,26,27
 447 647 447 647 455 632 c 128,-1,28
 463 617 463 617 463 605 c 128,-1,29
 463 593 463 593 451.5 583 c 128,-1,30
 440 573 440 573 416.5 558 c 128,-1,31
 393 543 393 543 356 516 c 0,32,33
 311 483 311 483 261 438 c 128,-1,34
 211 393 211 393 168 343.5 c 128,-1,35
 125 294 125 294 98 247 c 128,-1,36
 71 200 71 200 71 162 c 0,37,38
 71 135 71 135 86 119 c 128,-1,39
 101 103 101 103 124.5 93 c 128,-1,40
 148 83 148 83 174 74 c 128,-1,41
 200 65 200 65 223.5 53 c 128,-1,42
 247 41 247 41 262 20.5 c 128,-1,43
 277 0 277 0 277 -33 c 0,44,45
 277 -69 277 -69 259 -101.5 c 128,-1,46
 241 -134 241 -134 213 -155 c 128,-1,47
 185 -176 185 -176 155 -176 c 0,48,49
 132 -176 132 -176 116.5 -163 c 128,-1,50
 101 -150 101 -150 101 -129 c 0,51,52
 101 -116 101 -116 107 -101 c 1,53,54
 125 -107 125 -107 153 -107 c 0,55,56
 182 -107 182 -107 206.5 -97.5 c 128,-1,57
 231 -88 231 -88 231 -66 c 0,58,59
 231 -47 231 -47 216 -36.5 c 128,-1,60
 201 -26 201 -26 177.5 -17.5 c 128,-1,61
 154 -9 154 -9 127.5 1 c 128,-1,62
 101 11 101 11 77.5 26.5 c 128,-1,63
 54 42 54 42 39 68 c 128,-1,64
 24 94 24 94 24 135 c 0,65,66
 24 180 24 180 46.5 234.5 c 128,-1,67
 69 289 69 289 107 347 c 128,-1,68
 145 405 145 405 194 459.5 c 128,-1,69
 243 514 243 514 295 559 c 1,0,-1
EndSplineSet
Validated: 1048581
EndChar

StartChar: silme_nuquerna
Encoding: 49 57381 39
Width: 426
GlyphClass: 2
Flags: W
AnchorPoint: "xhook" 100 400 basechar 0
AnchorPoint: "TehtaBelow" 260 -125 basechar 0
AnchorPoint: "TehtaAbove" 260 550 basechar 0
LayerCount: 2
Fore
SplineSet
206 -42 m 0,0,1
 182 -75 182 -75 158 -104 c 0,2,3
 139 -128 139 -128 119 -151 c 0,4,5
 28 -250 28 -250 -42 -250 c 0,6,7
 -73 -250 -73 -250 -88.5 -234 c 128,-1,8
 -104 -218 -104 -218 -104 -198 c 0,9,10
 -104 -177 -104 -177 -89 -163.5 c 128,-1,11
 -74 -150 -74 -150 -55 -150 c 0,12,13
 -46 -150 -46 -150 -40 -152 c 1,14,15
 -40 -165 -40 -165 -33 -174 c 128,-1,16
 -26 -183 -26 -183 -10 -183 c 0,17,18
 64 -183 64 -183 185 -7 c 0,19,20
 210 29 210 29 222 47 c 0,21,22
 247 83 247 83 269 129 c 128,-1,23
 291 175 291 175 306 226.5 c 128,-1,24
 321 278 321 278 320.5 320.5 c 128,-1,25
 320 363 320 363 293.5 391.5 c 128,-1,26
 267 420 267 420 213 421 c 0,27,28
 165 422 165 422 136 393.5 c 128,-1,29
 107 365 107 365 108 321 c 1,30,31
 94 304 94 304 69 304 c 0,32,33
 53 304 53 304 41 314.5 c 128,-1,34
 29 325 29 325 29 346 c 0,35,36
 29 372 29 372 52 401.5 c 128,-1,37
 75 431 75 431 118 452.5 c 128,-1,38
 161 474 161 474 221 474 c 0,39,40
 293 474 293 474 334 426 c 0,41,42
 358 398 358 398 368 363.5 c 128,-1,43
 378 329 378 329 377.5 297.5 c 128,-1,44
 377 266 377 266 363.5 226 c 128,-1,45
 350 186 350 186 336.5 157.5 c 128,-1,46
 323 129 323 129 297.5 89.5 c 128,-1,47
 272 50 272 50 258 30 c 128,-1,48
 244 10 244 10 219 -24 c 0,49,50
 210 -36 210 -36 206 -42 c 0,0,1
EndSplineSet
Validated: 1048609
EndChar

StartChar: esse
Encoding: 50 57382 40
Width: 410
GlyphClass: 2
Flags: W
AnchorPoint: "xhook" 110 0 basechar 0
AnchorPoint: "TehtaBelow" 135 -225 basechar 0
AnchorPoint: "TehtaAbove" 370 750 basechar 0
LayerCount: 2
Fore
SplineSet
182 403 m 0,0,1
 182 385 182 385 190.5 364.5 c 128,-1,2
 199 344 199 344 219 333 c 1,3,4
 234 341 234 341 258.5 351.5 c 128,-1,5
 283 362 283 362 305 362 c 0,6,7
 322 362 322 362 334.5 353.5 c 128,-1,8
 347 345 347 345 347 327 c 0,9,10
 347 305 347 305 329 291 c 128,-1,11
 311 277 311 277 280 277 c 0,12,13
 252 277 252 277 219 290 c 1,14,15
 153 261 153 261 120.5 223 c 128,-1,16
 88 185 88 185 88 149 c 0,17,18
 88 122 88 122 103 106 c 128,-1,19
 118 90 118 90 141.5 79.5 c 128,-1,20
 165 69 165 69 192 60.5 c 128,-1,21
 219 52 219 52 242.5 40.5 c 128,-1,22
 266 29 266 29 281 10.5 c 128,-1,23
 296 -8 296 -8 296 -39 c 0,24,25
 296 -73 296 -73 278 -104.5 c 128,-1,26
 260 -136 260 -136 232 -156 c 128,-1,27
 204 -176 204 -176 174 -176 c 0,28,29
 151 -176 151 -176 135.5 -163 c 128,-1,30
 120 -150 120 -150 120 -129 c 0,31,32
 120 -116 120 -116 126 -101 c 1,33,34
 144 -107 144 -107 171 -107 c 0,35,36
 200 -107 200 -107 225 -98.5 c 128,-1,37
 250 -90 250 -90 250 -69 c 0,38,39
 250 -52 250 -52 234 -42.5 c 128,-1,40
 218 -33 218 -33 192.5 -25 c 128,-1,41
 167 -17 167 -17 139 -7.5 c 128,-1,42
 111 2 111 2 85.5 17 c 128,-1,43
 60 32 60 32 44 57 c 128,-1,44
 28 82 28 82 28 121 c 0,45,46
 28 183 28 183 72.5 233 c 128,-1,47
 117 283 117 283 181 315 c 1,48,49
 130 354 130 354 130 415 c 0,50,51
 130 442 130 442 142 473.5 c 128,-1,52
 154 505 154 505 183 535.5 c 128,-1,53
 212 566 212 566 261 589 c 1,54,-1
 260 592 l 1,55,56
 225 593 225 593 198 607 c 128,-1,57
 171 621 171 621 171 655 c 0,58,59
 171 676 171 676 185.5 694 c 128,-1,60
 200 712 200 712 234 712 c 2,61,-1
 238 712 l 1,62,-1
 244 711 l 1,63,64
 238 689 238 689 238 672 c 0,65,66
 238 617 238 617 306 617 c 2,67,-1
 310 617 l 1,68,-1
 319 618 l 1,69,70
 351 629 351 629 380 636 c 128,-1,71
 409 643 409 643 449 649 c 1,72,73
 455 625 455 625 455 610 c 0,74,75
 455 588 455 588 443.5 580 c 128,-1,76
 432 572 432 572 412 569 c 0,77,78
 327 555 327 555 276.5 529 c 128,-1,79
 226 503 226 503 204 470.5 c 128,-1,80
 182 438 182 438 182 403 c 0,0,1
EndSplineSet
Validated: 1048577
EndChar

StartChar: esse_nuquerna
Encoding: 51 57383 41
Width: 452
GlyphClass: 2
Flags: W
AnchorPoint: "xhook" 36 0 basechar 0
AnchorPoint: "TehtaBelow" 96 -300 basechar 0
AnchorPoint: "TehtaAbove" 296 550 basechar 0
LayerCount: 2
Fore
SplineSet
175 87 m 0,0,1
 144 87 144 87 125.5 75 c 128,-1,2
 107 63 107 63 104 63 c 0,3,4
 103 63 103 63 96.5 70 c 128,-1,5
 90 77 90 77 90 78 c 0,6,7
 114 115 114 115 154.5 153.5 c 128,-1,8
 195 192 195 192 243.5 237.5 c 128,-1,9
 292 283 292 283 341 339 c 1,10,-1
 340 342 l 1,11,12
 326 338 326 338 315.5 335.5 c 128,-1,13
 305 333 305 333 292 333 c 0,14,15
 268 333 268 333 244 340 c 128,-1,16
 220 347 220 347 199.5 354 c 128,-1,17
 179 361 179 361 164 361 c 0,18,19
 145 361 145 361 136.5 350.5 c 128,-1,20
 128 340 128 340 128 328 c 0,21,22
 128 318 128 318 133.5 308 c 128,-1,23
 139 298 139 298 147 288 c 1,24,25
 144 274 144 274 135.5 267 c 128,-1,26
 127 260 127 260 116 260 c 0,27,28
 100 260 100 260 91 272 c 128,-1,29
 82 284 82 284 82 303 c 0,30,31
 82 334 82 334 104 359.5 c 128,-1,32
 126 385 126 385 158 400.5 c 128,-1,33
 190 416 190 416 218 416 c 0,34,35
 242 416 242 416 266.5 407.5 c 128,-1,36
 291 399 291 399 314 390 c 128,-1,37
 337 381 337 381 356 381 c 0,38,39
 374 381 374 381 387 388.5 c 128,-1,40
 400 396 400 396 408 403 c 128,-1,41
 416 410 416 410 417 410 c 0,42,43
 419 410 419 410 425.5 404 c 128,-1,44
 432 398 432 398 432 395 c 0,45,46
 414 365 414 365 383.5 330 c 128,-1,47
 353 295 353 295 316 258 c 128,-1,48
 279 221 279 221 241 185 c 128,-1,49
 203 149 203 149 170 117 c 1,50,-1
 171 114 l 1,51,52
 177 115 177 115 183.5 115.5 c 128,-1,53
 190 116 190 116 197 116 c 0,54,55
 236 116 236 116 269.5 100.5 c 128,-1,56
 303 85 303 85 323.5 53.5 c 128,-1,57
 344 22 344 22 344 -27 c 0,58,59
 344 -88 344 -88 314.5 -138 c 128,-1,60
 285 -188 285 -188 233.5 -217.5 c 128,-1,61
 182 -247 182 -247 115 -247 c 0,62,63
 46 -247 46 -247 5 -217.5 c 128,-1,64
 -36 -188 -36 -188 -36 -150 c 0,65,66
 -36 -127 -36 -127 -20 -111.5 c 128,-1,67
 -4 -96 -4 -96 20 -96 c 0,68,69
 32 -96 32 -96 41 -100 c 1,70,71
 36 -120 36 -120 36 -136 c 0,72,73
 36 -170 36 -170 58 -193 c 128,-1,74
 80 -216 80 -216 123 -216 c 0,75,76
 162 -216 162 -216 189.5 -198 c 128,-1,77
 217 -180 217 -180 234 -150.5 c 128,-1,78
 251 -121 251 -121 258.5 -87.5 c 128,-1,79
 266 -54 266 -54 266 -24 c 0,80,81
 266 5 266 5 258 30.5 c 128,-1,82
 250 56 250 56 230.5 71.5 c 128,-1,83
 211 87 211 87 175 87 c 0,0,1
EndSplineSet
Validated: 1048577
EndChar

StartChar: hyarmen
Encoding: 52 57384 42
Width: 488
GlyphClass: 2
Flags: W
AnchorPoint: "xhook" 340 0 basechar 0
AnchorPoint: "TehtaAbove" 440 550 basechar 0
AnchorPoint: "TehtaBelow" 155 -125 basechar 0
LayerCount: 2
Fore
SplineSet
265 304 m 1,0,-1
 261 305 l 1,1,2
 208 229 208 229 159.5 157.5 c 128,-1,3
 111 86 111 86 61 8 c 0,4,5
 57 2 57 2 54 1 c 128,-1,6
 51 0 51 0 43 -1 c 0,7,8
 32 -1 32 -1 15 -2 c 128,-1,9
 -2 -3 -2 -3 -15.5 -3.5 c 128,-1,10
 -29 -4 -29 -4 -32 -4 c 0,11,12
 -36 -4 -36 -4 -36.5 -1 c 128,-1,13
 -37 2 -37 2 -34 6 c 0,14,15
 41 110 41 110 114.5 206.5 c 128,-1,16
 188 303 188 303 266 404 c 1,17,-1
 266 429 l 2,18,19
 266 490 266 490 259 523.5 c 128,-1,20
 252 557 252 557 233.5 570.5 c 128,-1,21
 215 584 215 584 181 584 c 0,22,23
 157 584 157 584 136.5 579 c 128,-1,24
 116 574 116 574 102 569 c 1,25,26
 101 573 101 573 101 575 c 2,27,-1
 101 578 l 2,28,29
 101 613 101 613 126.5 639 c 128,-1,30
 152 665 152 665 197 665 c 0,31,32
 238 665 238 665 261 646.5 c 128,-1,33
 284 628 284 628 294 599 c 128,-1,34
 304 570 304 570 306.5 536.5 c 128,-1,35
 309 503 309 503 309 472 c 0,36,37
 309 446 309 446 308.5 419.5 c 128,-1,38
 308 393 308 393 308 367 c 2,39,-1
 308 271 l 2,40,41
 308 205 308 205 310 164.5 c 128,-1,42
 312 124 312 124 318.5 103 c 128,-1,43
 325 82 325 82 337.5 74.5 c 128,-1,44
 350 67 350 67 370 67 c 0,45,46
 388 67 388 67 411 75 c 1,47,48
 412 71 412 71 412 68 c 2,49,-1
 412 64 l 2,50,51
 412 36 412 36 392.5 12 c 128,-1,52
 373 -12 373 -12 344 -12 c 0,53,54
 294 -12 294 -12 279 42 c 128,-1,55
 264 96 264 96 264 188 c 2,56,-1
 264 242 l 1,57,-1
 265 304 l 1,0,-1
EndSplineSet
Validated: 1048577
EndChar

StartChar: hwesta_sindarinwa
Encoding: 53 57385 43
Width: 564
GlyphClass: 2
Flags: W
AnchorPoint: "TehtaAbove" 220 550 basechar 0
AnchorPoint: "TehtaBelow" 145 -125 basechar 0
AnchorPoint: "xhook" 310 0 basechar 0
LayerCount: 2
Fore
SplineSet
468 -11 m 1,0,1
 453 -10 453 -10 425 -12 c 128,-1,2
 397 -14 397 -14 375.5 -15 c 128,-1,3
 354 -16 354 -16 332 -13 c 128,-1,4
 310 -10 310 -10 297.5 3 c 128,-1,5
 285 16 285 16 285 40 c 0,6,7
 285 50 285 50 288.5 71.5 c 128,-1,8
 292 93 292 93 297 112 c 1,9,-1
 293 113 l 1,10,11
 276 82 276 82 252.5 52.5 c 128,-1,12
 229 23 229 23 200 4.5 c 128,-1,13
 171 -14 171 -14 135 -14 c 0,14,15
 93 -14 93 -14 69 6 c 128,-1,16
 45 26 45 26 35.5 55.5 c 128,-1,17
 26 85 26 85 26 114 c 0,18,19
 26 167 26 167 43.5 220 c 128,-1,20
 61 273 61 273 93.5 317.5 c 128,-1,21
 126 362 126 362 171 389 c 128,-1,22
 216 416 216 416 272 416 c 0,23,24
 298 416 298 416 321.5 406.5 c 128,-1,25
 345 397 345 397 360 379 c 1,26,-1
 362 379 l 1,27,28
 385 462 385 462 403 527 c 128,-1,29
 421 592 421 592 432 634 c 0,30,31
 436 647 436 647 440 651 c 128,-1,32
 444 655 444 655 456 657 c 0,33,34
 475 660 475 660 490.5 661 c 128,-1,35
 506 662 506 662 509 662 c 0,36,37
 517 662 517 662 517 656 c 0,38,39
 517 652 517 652 512 637 c 0,40,41
 499 597 499 597 482.5 543 c 128,-1,42
 466 489 466 489 448.5 429 c 128,-1,43
 431 369 431 369 415 309.5 c 128,-1,44
 399 250 399 250 386 198 c 128,-1,45
 373 146 373 146 365.5 109 c 128,-1,46
 358 72 358 72 358 57 c 0,47,48
 358 48 358 48 362 40 c 0,49,50
 364 37 364 37 387.5 33.5 c 128,-1,51
 411 30 411 30 420 30 c 1,52,-1
 468 -11 l 1,0,1
341 329 m 0,53,54
 341 352 341 352 325.5 369.5 c 128,-1,55
 310 387 310 387 276 387 c 128,-1,56
 242 387 242 387 211.5 363 c 128,-1,57
 181 339 181 339 157 299.5 c 128,-1,58
 133 260 133 260 119.5 211.5 c 128,-1,59
 106 163 106 163 106 113 c 0,60,61
 106 82 106 82 117.5 56.5 c 128,-1,62
 129 31 129 31 157 31 c 0,63,64
 188 31 188 31 216 55 c 128,-1,65
 244 79 244 79 267 116.5 c 128,-1,66
 290 154 290 154 306.5 195.5 c 128,-1,67
 323 237 323 237 332 273 c 128,-1,68
 341 309 341 309 341 329 c 0,53,54
356 -4 m 1,69,-1
 390 31 l 1,70,-1
 391 28 l 1,71,72
 399 29 399 29 408.5 29.5 c 128,-1,73
 418 30 418 30 425 30 c 0,74,75
 463 30 463 30 486.5 15.5 c 128,-1,76
 510 1 510 1 520.5 -20.5 c 128,-1,77
 531 -42 531 -42 531 -63 c 0,78,79
 531 -91 531 -91 517 -107.5 c 128,-1,80
 503 -124 503 -124 485 -124 c 0,81,82
 474 -124 474 -124 464 -117.5 c 128,-1,83
 454 -111 454 -111 446 -96 c 1,84,85
 471 -69 471 -69 471 -36 c 0,86,87
 471 -14 471 -14 457 -5.5 c 128,-1,88
 443 3 443 3 423 3 c 0,89,90
 387 2 387 2 356 -4 c 1,69,-1
EndSplineSet
Validated: 1048613
EndChar

StartChar: yanta
Encoding: 54 57386 44
Width: 474
GlyphClass: 2
Flags: W
AnchorPoint: "xhook" 270 0 basechar 0
AnchorPoint: "TehtaAbove" 270 550 basechar 0
AnchorPoint: "TehtaBelow" 145 -125 basechar 0
LayerCount: 2
Fore
SplineSet
207 306 m 1,0,-1
 203 307 l 1,1,2
 139 243 139 243 101.5 189 c 128,-1,3
 64 135 64 135 64 76 c 0,4,5
 64 63 64 63 66.5 44 c 128,-1,6
 69 25 69 25 78 7 c 1,7,8
 59 -14 59 -14 33 -14 c 0,9,10
 14 -14 14 -14 1 0 c 128,-1,11
 -12 14 -12 14 -12 42 c 0,12,13
 -12 75 -12 75 9 116 c 128,-1,14
 30 157 30 157 63 200.5 c 128,-1,15
 96 244 96 244 133 284.5 c 128,-1,16
 170 325 170 325 204 358 c 128,-1,17
 238 391 238 391 259 410 c 0,18,19
 262 413 262 413 264 413 c 0,20,21
 269 413 269 413 280 407 c 128,-1,22
 291 401 291 401 291 399 c 0,23,24
 291 398 291 398 286 372 c 128,-1,25
 281 346 281 346 276 300 c 128,-1,26
 271 254 271 254 271 194 c 0,27,28
 271 38 271 38 323 38 c 0,29,30
 341 38 341 38 355.5 47.5 c 128,-1,31
 370 57 370 57 379 66.5 c 128,-1,32
 388 76 388 76 389 76 c 0,33,34
 393 76 393 76 400 69 c 128,-1,35
 407 62 407 62 407 59 c 0,36,37
 407 58 407 58 397 46.5 c 128,-1,38
 387 35 387 35 369.5 21 c 128,-1,39
 352 7 352 7 329.5 -3.5 c 128,-1,40
 307 -14 307 -14 283 -14 c 0,41,42
 249 -14 249 -14 231 14.5 c 128,-1,43
 213 43 213 43 206 87.5 c 128,-1,44
 199 132 199 132 199 178 c 0,45,46
 199 215 199 215 202 249.5 c 128,-1,47
 205 284 205 284 207 306 c 1,0,-1
EndSplineSet
Validated: 1048577
EndChar

StartChar: uure
Encoding: 55 57387 45
Width: 412
GlyphClass: 2
Flags: W
AnchorPoint: "xhook" 270 0 basechar 0
AnchorPoint: "TehtaBelow" 145 -125 basechar 0
AnchorPoint: "TehtaAbove" 270 550 basechar 0
LayerCount: 2
Fore
SplineSet
240 416 m 0,0,1
 279 416 279 416 310 402 c 128,-1,2
 341 388 341 388 359.5 355.5 c 128,-1,3
 378 323 378 323 378 267 c 0,4,5
 378 238 378 238 370.5 200.5 c 128,-1,6
 363 163 363 163 346.5 125.5 c 128,-1,7
 330 88 330 88 303.5 56.5 c 128,-1,8
 277 25 277 25 238.5 5.5 c 128,-1,9
 200 -14 200 -14 149 -14 c 0,10,11
 112 -14 112 -14 79 0.5 c 128,-1,12
 46 15 46 15 26 48.5 c 128,-1,13
 6 82 6 82 6 138 c 0,14,15
 6 174 6 174 18.5 221.5 c 128,-1,16
 31 269 31 269 58.5 313.5 c 128,-1,17
 86 358 86 358 131 387 c 128,-1,18
 176 416 176 416 240 416 c 0,0,1
152 13 m 0,19,20
 190 13 190 13 218 42 c 128,-1,21
 246 71 246 71 265 115.5 c 128,-1,22
 284 160 284 160 293 208.5 c 128,-1,23
 302 257 302 257 302 297 c 0,24,25
 302 320 302 320 297 341 c 128,-1,26
 292 362 292 362 278 376 c 128,-1,27
 264 390 264 390 237 390 c 0,28,29
 198 390 198 390 169 361.5 c 128,-1,30
 140 333 140 333 121.5 288.5 c 128,-1,31
 103 244 103 244 93.5 195.5 c 128,-1,32
 84 147 84 147 84 108 c 0,33,34
 84 85 84 85 89.5 63 c 128,-1,35
 95 41 95 41 110 27 c 128,-1,36
 125 13 125 13 152 13 c 0,19,20
EndSplineSet
Validated: 1048577
EndChar

StartChar: aara
Encoding: 56 57388 46
Width: 322
GlyphClass: 2
Flags: W
AnchorPoint: "xhook" 240 0 basechar 0
AnchorPoint: "TehtaBelow" 260 -125 basechar 0
AnchorPoint: "TehtaAbove" 260 550 basechar 0
LayerCount: 2
Fore
SplineSet
-30 -217 m 0,0,1
 8 -217 8 -217 33 -166.5 c 128,-1,2
 58 -116 58 -116 84 -10 c 0,3,4
 101 58 101 58 115 116.5 c 128,-1,5
 129 175 129 175 144.5 238 c 128,-1,6
 160 301 160 301 179 381 c 0,7,8
 182 394 182 394 186 397.5 c 128,-1,9
 190 401 190 401 202 403 c 0,10,11
 221 406 221 406 235.5 407 c 128,-1,12
 250 408 250 408 253 408 c 0,13,14
 261 408 261 408 261 401 c 0,15,16
 261 398 261 398 252.5 363.5 c 128,-1,17
 244 329 244 329 229.5 272.5 c 128,-1,18
 215 216 215 216 196 144.5 c 128,-1,19
 177 73 177 73 157 -3 c 0,20,21
 128 -114 128 -114 80.5 -180.5 c 128,-1,22
 33 -247 33 -247 -42 -247 c 0,23,24
 -88 -247 -88 -247 -111.5 -230 c 128,-1,25
 -135 -213 -135 -213 -135 -188 c 0,26,27
 -135 -166 -135 -166 -121.5 -154.5 c 128,-1,28
 -108 -143 -108 -143 -89 -143 c 0,29,30
 -77 -143 -77 -143 -66 -147 c 1,31,32
 -67 -152 -67 -152 -67.5 -157 c 128,-1,33
 -68 -162 -68 -162 -68 -167 c 0,34,35
 -68 -189 -68 -189 -59.5 -203 c 128,-1,36
 -51 -217 -51 -217 -30 -217 c 0,0,1
EndSplineSet
Validated: 1048577
EndChar

StartChar: halla
Encoding: 57 57389 47
Width: 298
GlyphClass: 2
Flags: W
AnchorPoint: "xhook" 70 0 basechar 0
AnchorPoint: "TehtaAbove" 250 750 basechar 0
AnchorPoint: "TehtaBelow" 75 -125 basechar 0
LayerCount: 2
Fore
SplineSet
202 79 m 0,0,1
 206 79 206 79 213 72 c 128,-1,2
 220 65 220 65 220 62 c 0,3,4
 220 61 220 61 210 49.5 c 128,-1,5
 200 38 200 38 182 23 c 128,-1,6
 164 8 164 8 140.5 -3 c 128,-1,7
 117 -14 117 -14 89 -14 c 0,8,9
 60 -14 60 -14 44.5 1.5 c 128,-1,10
 29 17 29 17 29 44 c 0,11,12
 29 59 29 59 38.5 103 c 128,-1,13
 48 147 48 147 63.5 208 c 128,-1,14
 79 269 79 269 97 336 c 128,-1,15
 115 403 115 403 131.5 464.5 c 128,-1,16
 148 526 148 526 161 571.5 c 128,-1,17
 174 617 174 617 178 634 c 0,18,19
 182 647 182 647 186 651 c 128,-1,20
 190 655 190 655 202 657 c 0,21,22
 221 660 221 660 236.5 661 c 128,-1,23
 252 662 252 662 255 662 c 0,24,25
 263 662 263 662 263 656 c 0,26,27
 263 652 263 652 258 637 c 0,28,29
 245 598 245 598 229 543.5 c 128,-1,30
 213 489 213 489 195.5 428 c 128,-1,31
 178 367 178 367 162 306.5 c 128,-1,32
 146 246 146 246 132.5 194 c 128,-1,33
 119 142 119 142 111.5 106 c 128,-1,34
 104 70 104 70 104 57 c 0,35,36
 104 48 104 48 108.5 40 c 128,-1,37
 113 32 113 32 125 32 c 0,38,39
 145 32 145 32 162 44 c 128,-1,40
 179 56 179 56 190 67.5 c 128,-1,41
 201 79 201 79 202 79 c 0,0,1
EndSplineSet
Validated: 1048577
EndChar

StartChar: telco
Encoding: 58 57390 48
Width: 260
GlyphClass: 2
Flags: W
AnchorPoint: "xhook" 70 0 basechar 0
AnchorPoint: "TehtaAbove" 200 550 basechar 0
AnchorPoint: "TehtaBelow" 75 -125 basechar 0
LayerCount: 2
Fore
SplineSet
199 79 m 0,0,1
 203 79 203 79 210 72 c 128,-1,2
 217 65 217 65 217 62 c 0,3,4
 217 61 217 61 207 49.5 c 128,-1,5
 197 38 197 38 179 23 c 128,-1,6
 161 8 161 8 137.5 -3 c 128,-1,7
 114 -14 114 -14 86 -14 c 0,8,9
 28 -14 28 -14 28 42 c 0,10,11
 28 61 28 61 35 95 c 128,-1,12
 42 129 42 129 53 170.5 c 128,-1,13
 64 212 64 212 76.5 253.5 c 128,-1,14
 89 295 89 295 99.5 329 c 128,-1,15
 110 363 110 363 115 381 c 0,16,17
 119 394 119 394 122.5 397.5 c 128,-1,18
 126 401 126 401 138 403 c 0,19,20
 157 406 157 406 173 407 c 128,-1,21
 189 408 189 408 192 408 c 0,22,23
 199 408 199 408 199 402 c 0,24,25
 199 398 199 398 194 383 c 0,26,27
 186 360 186 360 174.5 324 c 128,-1,28
 163 288 163 288 150.5 246.5 c 128,-1,29
 138 205 138 205 127.5 165.5 c 128,-1,30
 117 126 117 126 110 96 c 128,-1,31
 103 66 103 66 103 54 c 0,32,33
 103 47 103 47 106.5 39.5 c 128,-1,34
 110 32 110 32 122 32 c 0,35,36
 142 32 142 32 159 44 c 128,-1,37
 176 56 176 56 187 67.5 c 128,-1,38
 198 79 198 79 199 79 c 0,0,1
EndSplineSet
Validated: 1048577
EndChar

StartChar: stemless_tinco
Encoding: 59 57392 49
Width: 406
GlyphClass: 2
Flags: W
AnchorPoint: "xhook" 80 0 basechar 0
AnchorPoint: "TehtaBelow" 135 -125 basechar 0
AnchorPoint: "TehtaAbove" 260 550 basechar 0
LayerCount: 2
Fore
SplineSet
88 107 m 1,0,1
 78 87 78 87 78 64 c 0,2,3
 78 45 78 45 90 30.5 c 128,-1,4
 102 16 102 16 130 16 c 0,5,6
 169 16 169 16 196.5 43 c 128,-1,7
 224 70 224 70 242 111.5 c 128,-1,8
 260 153 260 153 268 196 c 128,-1,9
 276 239 276 239 276 271 c 0,10,11
 276 313 276 313 259.5 344 c 128,-1,12
 243 375 243 375 198 375 c 0,13,14
 165 375 165 375 139.5 360.5 c 128,-1,15
 114 346 114 346 96 326 c 128,-1,16
 78 306 78 306 66 291 c 0,17,18
 61 285 61 285 59 285 c 0,19,20
 56 285 56 285 47 290 c 128,-1,21
 38 295 38 295 38 298 c 128,-1,22
 38 301 38 301 49.5 319.5 c 128,-1,23
 61 338 61 338 84 360.5 c 128,-1,24
 107 383 107 383 141.5 399.5 c 128,-1,25
 176 416 176 416 221 416 c 0,26,27
 284 416 284 416 320 378 c 128,-1,28
 356 340 356 340 356 268 c 0,29,30
 356 221 356 221 340 171.5 c 128,-1,31
 324 122 324 122 294 80 c 128,-1,32
 264 38 264 38 221 12 c 128,-1,33
 178 -14 178 -14 123 -14 c 0,34,35
 67 -14 67 -14 37.5 11.5 c 128,-1,36
 8 37 8 37 8 66 c 0,37,38
 8 89 8 89 22.5 103.5 c 128,-1,39
 37 118 37 118 56 118 c 0,40,41
 73 118 73 118 88 107 c 1,0,1
EndSplineSet
Validated: 1048577
EndChar

StartChar: stemless_parma
Encoding: 60 57393 50
Width: 413
GlyphClass: 2
Flags: W
AnchorPoint: "xhook" 320 0 basechar 0
AnchorPoint: "TehtaAbove" 260 550 basechar 0
AnchorPoint: "TehtaBelow" 135 -125 basechar 0
LayerCount: 2
Fore
SplineSet
69 44 m 1,0,-1
 71 40 l 1,1,2
 91 47 91 47 126 54.5 c 128,-1,3
 161 62 161 62 200.5 68 c 128,-1,4
 240 74 240 74 273 74 c 0,5,6
 308 74 308 74 328.5 65 c 128,-1,7
 349 56 349 56 349 34 c 0,8,9
 349 26 349 26 346.5 16.5 c 128,-1,10
 344 7 344 7 338 -4 c 1,11,12
 308 2 308 2 277.5 4.5 c 128,-1,13
 247 7 247 7 206 7 c 0,14,15
 118 7 118 7 60 1.5 c 128,-1,16
 2 -4 2 -4 -3 -4 c 0,17,18
 -6 -4 -6 -4 -9 2.5 c 128,-1,19
 -12 9 -12 9 -12 14 c 0,20,21
 -12 18 -12 18 -11 19 c 0,22,23
 22 48 22 48 60 74 c 2,24,-1
 136 126 l 1,25,-1
 207 180 l 1,26,27
 206 180 206 180 258 240 c 1,28,-1
 278 313 l 1,29,30
 278 339 278 339 263.5 362.5 c 128,-1,31
 249 386 249 386 214 386 c 0,32,33
 183 386 183 386 158 371.5 c 128,-1,34
 133 357 133 357 133 323 c 0,35,36
 133 309 133 309 139 291 c 1,37,38
 124 273 124 273 100 273 c 0,39,40
 85 273 85 273 73.5 282.5 c 128,-1,41
 62 292 62 292 62 311 c 0,42,43
 62 336 62 336 83.5 360 c 128,-1,44
 105 384 105 384 142.5 400 c 128,-1,45
 180 416 180 416 228 416 c 0,46,47
 284 416 284 416 320.5 391.5 c 128,-1,48
 357 367 357 367 357 317 c 0,49,50
 357 287 357 287 344.5 260.5 c 128,-1,51
 332 234 332 234 300 204 c 128,-1,52
 268 174 268 174 212 135.5 c 128,-1,53
 156 97 156 97 69 44 c 1,0,-1
EndSplineSet
Validated: 1048609
EndChar

StartChar: stemless_calma
Encoding: 61 57394 51
Width: 393
GlyphClass: 2
Flags: W
AnchorPoint: "xhook" 200 0 basechar 0
AnchorPoint: "TehtaBelow" 145 -125 basechar 0
AnchorPoint: "TehtaAbove" 270 550 basechar 0
LayerCount: 2
Fore
SplineSet
266 296 m 1,0,1
 271 307 271 307 273.5 319 c 128,-1,2
 276 331 276 331 276 342 c 0,3,4
 276 360 276 360 266 373 c 128,-1,5
 256 386 256 386 230 386 c 0,6,7
 193 386 193 386 165.5 360 c 128,-1,8
 138 334 138 334 119.5 295 c 128,-1,9
 101 256 101 256 92 213.5 c 128,-1,10
 83 171 83 171 83 138 c 0,11,12
 83 110 83 110 89.5 84 c 128,-1,13
 96 58 96 58 113.5 42 c 128,-1,14
 131 26 131 26 163 26 c 0,15,16
 201 26 201 26 232 48 c 128,-1,17
 263 70 263 70 289 105 c 0,18,19
 294 111 294 111 297 111 c 128,-1,20
 300 111 300 111 308.5 106 c 128,-1,21
 317 101 317 101 317 96 c 0,22,23
 317 95 317 95 306 78 c 128,-1,24
 295 61 295 61 272.5 39.5 c 128,-1,25
 250 18 250 18 217 2 c 128,-1,26
 184 -14 184 -14 139 -14 c 0,27,28
 74 -14 74 -14 38.5 26 c 128,-1,29
 3 66 3 66 3 133 c 0,30,31
 3 180 3 180 19 230 c 128,-1,32
 35 280 35 280 65.5 322 c 128,-1,33
 96 364 96 364 140 390 c 128,-1,34
 184 416 184 416 239 416 c 0,35,36
 278 416 278 416 301.5 403 c 128,-1,37
 325 390 325 390 335.5 371 c 128,-1,38
 346 352 346 352 346 333 c 0,39,40
 346 309 346 309 332 294.5 c 128,-1,41
 318 280 318 280 300 280 c 0,42,43
 281 280 281 280 266 296 c 1,0,1
EndSplineSet
Validated: 1048577
EndChar

StartChar: telco_ligating
Encoding: 63 57396 52
Width: 374
GlyphClass: 2
Flags: W
AnchorPoint: "xhook" 50 0 basechar 0
AnchorPoint: "TehtaAbove" 260 550 basechar 0
AnchorPoint: "TehtaBelow" 155 -125 basechar 0
LayerCount: 2
Fore
SplineSet
4 -3 m 1,0,-1
 62 203 l 2,1,2
 80 266 80 266 104 314 c 128,-1,3
 128 362 128 362 164.5 389 c 128,-1,4
 201 416 201 416 256 416 c 0,5,6
 306 416 306 416 328 395.5 c 128,-1,7
 350 375 350 375 350 353 c 0,8,9
 350 336 350 336 339 322.5 c 128,-1,10
 328 309 328 309 307 309 c 0,11,12
 294 309 294 309 281 314 c 1,13,14
 282 320 282 320 282 324 c 2,15,-1
 282 332 l 2,16,17
 282 352 282 352 276 369 c 128,-1,18
 270 386 270 386 245 386 c 0,19,20
 221 386 221 386 204 370 c 128,-1,21
 187 354 187 354 171 313 c 128,-1,22
 155 272 155 272 135 197.5 c 128,-1,23
 115 123 115 123 85 7 c 0,24,25
 83 0 83 0 78 0 c 0,26,27
 51 -1 51 -1 30.5 -4 c 128,-1,28
 10 -7 10 -7 8 -7 c 0,29,30
 4 -7 4 -7 4 -4 c 2,31,-1
 4 -3 l 1,0,-1
EndSplineSet
Validated: 1048577
EndChar

StartChar: anna_open
Encoding: 65 57398 53
Width: 418
GlyphClass: 2
Flags: W
AnchorPoint: "xhook" 220 0 basechar 0
AnchorPoint: "TehtaBelow" 135 -125 basechar 0
AnchorPoint: "TehtaAbove" 260 550 basechar 0
LayerCount: 2
Fore
SplineSet
278 388 m 1,0,1
 284 399 284 399 294.5 406.5 c 128,-1,2
 305 414 305 414 321 414 c 0,3,4
 347 414 347 414 360.5 394 c 128,-1,5
 374 374 374 374 379 346 c 128,-1,6
 384 318 384 318 384 294 c 0,7,8
 384 246 384 246 369 192.5 c 128,-1,9
 354 139 354 139 324.5 92 c 128,-1,10
 295 45 295 45 251 15.5 c 128,-1,11
 207 -14 207 -14 150 -14 c 0,12,13
 101 -14 101 -14 64 14.5 c 128,-1,14
 27 43 27 43 27 101 c 0,15,16
 27 127 27 127 36.5 162 c 128,-1,17
 46 197 46 197 58 234 c 128,-1,18
 70 271 70 271 79.5 303.5 c 128,-1,19
 89 336 89 336 89 355 c 0,20,21
 89 371 89 371 72 371 c 0,22,23
 59 371 59 371 40.5 367.5 c 128,-1,24
 22 364 22 364 20 364 c 128,-1,25
 18 364 18 364 16 369.5 c 128,-1,26
 14 375 14 375 14 380 c 0,27,28
 14 387 14 387 17 387 c 0,29,30
 65 399 65 399 98.5 403.5 c 128,-1,31
 132 408 132 408 143 408 c 0,32,33
 157 408 157 408 162 400.5 c 128,-1,34
 167 393 167 393 167 383 c 0,35,36
 167 357 167 357 157 320 c 128,-1,37
 147 283 147 283 134.5 242 c 128,-1,38
 122 201 122 201 112 164.5 c 128,-1,39
 102 128 102 128 102 103 c 0,40,41
 102 71 102 71 118 48 c 128,-1,42
 134 25 134 25 169 25 c 0,43,44
 205 25 205 25 233 45 c 128,-1,45
 261 65 261 65 279.5 97 c 128,-1,46
 298 129 298 129 308 167 c 128,-1,47
 318 205 318 205 318 241 c 0,48,49
 318 282 318 282 309 318.5 c 128,-1,50
 300 355 300 355 278 388 c 1,0,1
EndSplineSet
Validated: 1048577
EndChar

StartChar: christopher_qu
Encoding: 66 57399 54
Width: 500
GlyphClass: 2
Flags: W
AnchorPoint: "TehtaBelow" 125 -125 basechar 0
AnchorPoint: "TehtaAbove" 340 550 basechar 0
AnchorPoint: "xhook" 110 0 basechar 0
LayerCount: 2
Fore
SplineSet
319 112 m 5,0,-1
 315 113 l 5,1,2
 298 81 298 81 274.5 52 c 132,-1,3
 251 23 251 23 222 4.5 c 132,-1,4
 193 -14 193 -14 157 -14 c 4,5,6
 118 -14 118 -14 94.5 5 c 132,-1,7
 71 24 71 24 60.5 53.5 c 132,-1,8
 50 83 50 83 50 114 c 4,9,10
 50 167 50 167 67.5 220 c 132,-1,11
 85 273 85 273 117.5 317.5 c 132,-1,12
 150 362 150 362 195 389 c 132,-1,13
 240 416 240 416 296 416 c 4,14,15
 322 416 322 416 344.5 406.5 c 132,-1,16
 367 397 367 397 383 377 c 5,17,-1
 386 378 l 5,18,19
 391 392 391 392 394.5 397 c 132,-1,20
 398 402 398 402 409 403 c 4,21,22
 428 406 428 406 441.5 407 c 132,-1,23
 455 408 455 408 458 408 c 4,24,25
 460 408 460 408 463 407.5 c 132,-1,26
 466 407 466 407 466 402 c 4,27,28
 466 399 466 399 464.5 395 c 132,-1,29
 463 391 463 391 461 383 c 4,30,31
 449 339 449 339 438 301 c 132,-1,32
 427 263 427 263 416.5 223 c 132,-1,33
 406 183 406 183 394 133 c 4,34,35
 375 58 375 58 353 -37.5 c 132,-1,36
 331 -133 331 -133 311 -229 c 4,37,38
 310 -236 310 -236 304 -236 c 4,39,40
 279 -237 279 -237 257 -240 c 132,-1,41
 235 -243 235 -243 233 -243 c 4,42,43
 228 -243 228 -243 229 -239 c 4,44,45
 238 -204 238 -204 247 -171 c 132,-1,46
 256 -138 256 -138 266 -99 c 132,-1,47
 276 -60 276 -60 288.5 -9 c 132,-1,48
 301 42 301 42 319 112 c 5,0,-1
365 329 m 4,49,50
 365 352 365 352 349.5 369.5 c 132,-1,51
 334 387 334 387 300 387 c 132,-1,52
 266 387 266 387 235.5 363 c 132,-1,53
 205 339 205 339 181 299.5 c 132,-1,54
 157 260 157 260 143.5 211.5 c 132,-1,55
 130 163 130 163 130 113 c 4,56,57
 130 82 130 82 141.5 56.5 c 132,-1,58
 153 31 153 31 181 31 c 4,59,60
 212 31 212 31 239.5 55 c 132,-1,61
 267 79 267 79 290 116.5 c 132,-1,62
 313 154 313 154 329.5 195.5 c 132,-1,63
 346 237 346 237 355.5 273 c 132,-1,64
 365 309 365 309 365 329 c 4,49,50
129 -7 m 5,65,66
 98 0 98 0 62 -1 c 4,67,68
 42 -1 42 -1 28 -9.5 c 132,-1,69
 14 -18 14 -18 14 -40 c 4,70,71
 14 -73 14 -73 39 -100 c 5,72,73
 31 -115 31 -115 21 -121.5 c 132,-1,74
 11 -128 11 -128 0 -128 c 4,75,76
 -18 -128 -18 -128 -32 -111.5 c 132,-1,77
 -46 -95 -46 -95 -46 -67 c 4,78,79
 -46 -46 -46 -46 -35.5 -24.5 c 132,-1,80
 -25 -3 -25 -3 -1.5 11.5 c 132,-1,81
 22 26 22 26 60 26 c 4,82,83
 67 26 67 26 76.5 25.5 c 132,-1,84
 86 25 86 25 94 24 c 5,85,-1
 95 27 l 5,86,-1
 129 -7 l 5,65,66
EndSplineSet
Validated: 1048613
EndChar

StartChar: bombadil_hw
Encoding: 68 57401 55
Width: 566
GlyphClass: 2
Flags: W
AnchorPoint: "xhook" 320 0 basechar 0
AnchorPoint: "TehtaBelow" 155 -125 basechar 0
AnchorPoint: "TehtaAbove" 120 550 basechar 0
LayerCount: 2
Fore
SplineSet
444 564 m 1,0,1
 444 584 444 584 436.5 590 c 128,-1,2
 429 596 429 596 417 596 c 0,3,4
 401 596 401 596 380.5 582 c 128,-1,5
 360 568 360 568 327 528 c 128,-1,6
 294 488 294 488 240 409 c 1,7,8
 245 409 245 409 248 409.5 c 128,-1,9
 251 410 251 410 252 410 c 0,10,11
 257 410 257 410 257 405 c 0,12,13
 263 335 263 335 269.5 276 c 128,-1,14
 276 217 276 217 283 172 c 0,15,16
 294 105 294 105 307 69 c 128,-1,17
 320 33 320 33 345 33 c 0,18,19
 362 33 362 33 378 44 c 128,-1,20
 394 55 394 55 404.5 66 c 128,-1,21
 415 77 415 77 416 77 c 0,22,23
 420 77 420 77 427 70 c 128,-1,24
 434 63 434 63 434 60 c 0,25,26
 434 59 434 59 424.5 47.5 c 128,-1,27
 415 36 415 36 397.5 22 c 128,-1,28
 380 8 380 8 357.5 -3 c 128,-1,29
 335 -14 335 -14 308 -14 c 0,30,31
 275 -14 275 -14 256.5 6 c 128,-1,32
 238 26 238 26 227 70 c 128,-1,33
 216 114 216 114 206 185 c 0,34,35
 202 216 202 216 197.5 252 c 128,-1,36
 193 288 193 288 188 331 c 1,37,38
 129 240 129 240 97.5 176 c 128,-1,39
 66 112 66 112 66 65 c 0,40,41
 66 36 66 36 84 7 c 1,42,43
 76 -3 76 -3 64 -8.5 c 128,-1,44
 52 -14 52 -14 40 -14 c 0,45,46
 22 -14 22 -14 7 -1.5 c 128,-1,47
 -8 11 -8 11 -8 38 c 0,48,49
 -8 61 -8 61 10.5 104 c 128,-1,50
 29 147 29 147 72.5 219.5 c 128,-1,51
 116 292 116 292 192 401 c 0,52,53
 248 482 248 482 287 533.5 c 128,-1,54
 326 585 326 585 354.5 613.5 c 128,-1,55
 383 642 383 642 405 653.5 c 128,-1,56
 427 665 427 665 449 665 c 0,57,58
 479 665 479 665 492.5 649 c 128,-1,59
 506 633 506 633 506 614 c 128,-1,60
 506 595 506 595 493 578.5 c 128,-1,61
 480 562 480 562 459 562 c 0,62,63
 452 562 452 562 444 564 c 1,0,1
EndSplineSet
Validated: 1048577
EndChar

StartChar: tengwa_mh
Encoding: 69 57402 56
Width: 704
GlyphClass: 2
Flags: W
AnchorPoint: "xhook" 450 0 basechar 0
AnchorPoint: "TehtaAbove" 450 550 basechar 0
AnchorPoint: "TehtaBelow" 275 -125 basechar 0
LayerCount: 2
Fore
SplineSet
466 -6 m 1,0,-1
 500 28 l 1,1,-1
 501 25 l 1,2,3
 509 26 509 26 518.5 26.5 c 128,-1,4
 528 27 528 27 535 27 c 0,5,6
 573 27 573 27 596.5 12.5 c 128,-1,7
 620 -2 620 -2 630.5 -23.5 c 128,-1,8
 641 -45 641 -45 641 -66 c 0,9,10
 641 -94 641 -94 627 -110.5 c 128,-1,11
 613 -127 613 -127 595 -127 c 0,12,13
 584 -127 584 -127 574 -120.5 c 128,-1,14
 564 -114 564 -114 556 -99 c 1,15,16
 581 -72 581 -72 581 -39 c 0,17,18
 581 -17 581 -17 567 -8.5 c 128,-1,19
 553 0 553 0 533 0 c 0,20,21
 497 0 497 0 466 -6 c 1,0,-1
174 -13 m 0,22,23
 146 -13 146 -13 124 -3 c 128,-1,24
 102 7 102 7 87 29 c 1,25,-1
 84 28 l 1,26,27
 80 12 80 12 77 7 c 128,-1,28
 74 2 74 2 60 -0 c 0,29,30
 41 -1 41 -1 23.5 -3.5 c 128,-1,31
 6 -6 6 -6 4 -6 c 0,32,33
 0 -6 0 -6 0 -3 c 0,34,35
 0 -2 0 -2 3 6.5 c 128,-1,36
 6 15 6 15 8 22 c 0,37,38
 23 70 23 70 38.5 124.5 c 128,-1,39
 54 179 54 179 66 228.5 c 128,-1,40
 78 278 78 278 85.5 313 c 128,-1,41
 93 348 93 348 93 356 c 0,42,43
 93 372 93 372 76 372 c 0,44,45
 63 372 63 372 44.5 368.5 c 128,-1,46
 26 365 26 365 24 365 c 128,-1,47
 22 365 22 365 20 370.5 c 128,-1,48
 18 376 18 376 18 381 c 0,49,50
 18 388 18 388 21 388 c 0,51,52
 69 400 69 400 102.5 404.5 c 128,-1,53
 136 409 136 409 147 409 c 0,54,55
 161 409 161 409 166 401.5 c 128,-1,56
 171 394 171 394 171 384 c 128,-1,57
 171 374 171 374 165 351 c 128,-1,58
 159 328 159 328 148 289 c 1,59,-1
 153 288 l 1,60,61
 171 322 171 322 194 351 c 128,-1,62
 217 380 217 380 246.5 398.5 c 128,-1,63
 276 417 276 417 313 417 c 0,64,65
 352 417 352 417 374 397 c 128,-1,66
 396 377 396 377 405 347 c 128,-1,67
 414 317 414 317 414 285 c 0,68,69
 414 236 414 236 396.5 183.5 c 128,-1,70
 379 131 379 131 347 86.5 c 128,-1,71
 315 42 315 42 271 14.5 c 128,-1,72
 227 -13 227 -13 174 -13 c 0,22,23
105 75 m 0,73,74
 105 51 105 51 122.5 34 c 128,-1,75
 140 17 140 17 169 17 c 0,76,77
 203 17 203 17 233 40.5 c 128,-1,78
 263 64 263 64 285.5 103.5 c 128,-1,79
 308 143 308 143 321 190.5 c 128,-1,80
 334 238 334 238 334 286 c 0,81,82
 334 327 334 327 323 349.5 c 128,-1,83
 312 372 312 372 285 372 c 0,84,85
 257 372 257 372 230 348 c 128,-1,86
 203 324 203 324 180.5 286 c 128,-1,87
 158 248 158 248 141 207 c 128,-1,88
 124 166 124 166 114.5 130 c 128,-1,89
 105 94 105 94 105 75 c 0,73,74
329 26 m 1,90,-1
 391 278 l 1,91,92
 408 308 408 308 434.5 340.5 c 128,-1,93
 461 373 461 373 494 395.5 c 128,-1,94
 527 418 527 418 562 418 c 0,95,96
 614 418 614 418 638 383 c 128,-1,97
 662 348 662 348 662 290 c 0,98,99
 662 241 662 241 645 188 c 128,-1,100
 628 135 628 135 595.5 89.5 c 128,-1,101
 563 44 563 44 518 16 c 128,-1,102
 473 -12 473 -12 417 -12 c 0,103,104
 392 -12 392 -12 369 -2.5 c 128,-1,105
 346 7 346 7 329 26 c 1,90,-1
346 76 m 0,106,107
 346 53 346 53 364.5 35.5 c 128,-1,108
 383 18 383 18 416 18 c 0,109,110
 454 18 454 18 484.5 44.5 c 128,-1,111
 515 71 515 71 536.5 113 c 128,-1,112
 558 155 558 155 570 202.5 c 128,-1,113
 582 250 582 250 582 291 c 0,114,115
 582 373 582 373 538 373 c 0,116,117
 507 373 507 373 478.5 348.5 c 128,-1,118
 450 324 450 324 425.5 286 c 128,-1,119
 401 248 401 248 383.5 206.5 c 128,-1,120
 366 165 366 165 356 129.5 c 128,-1,121
 346 94 346 94 346 76 c 0,106,107
EndSplineSet
Validated: 1048581
EndChar

StartChar: tengwa_mh_beleriand
Encoding: 70 57403 57
Width: 465
GlyphClass: 2
Flags: W
AnchorPoint: "xhook" 240 0 basechar 0
AnchorPoint: "TehtaBelow" 175 -125 basechar 0
AnchorPoint: "TehtaAbove" 300 550 basechar 0
LayerCount: 2
Fore
SplineSet
231 -10 m 1,0,-1
 265 25 l 1,1,-1
 266 22 l 1,2,3
 274 23 274 23 283.5 23.5 c 128,-1,4
 293 24 293 24 300 24 c 0,5,6
 338 24 338 24 361.5 9.5 c 128,-1,7
 385 -5 385 -5 395.5 -26.5 c 128,-1,8
 406 -48 406 -48 406 -69 c 0,9,10
 406 -97 406 -97 392 -113.5 c 128,-1,11
 378 -130 378 -130 360 -130 c 0,12,13
 349 -130 349 -130 339 -123.5 c 128,-1,14
 329 -117 329 -117 321 -102 c 1,15,16
 346 -75 346 -75 346 -42 c 0,17,18
 346 -20 346 -20 332 -11.5 c 128,-1,19
 318 -3 318 -3 298 -3 c 0,20,21
 262 -4 262 -4 231 -10 c 1,0,-1
186 -15 m 0,22,23
 158 -15 158 -15 136 -5 c 128,-1,24
 114 5 114 5 99 27 c 1,25,-1
 96 26 l 1,26,27
 92 10 92 10 89 5 c 128,-1,28
 86 0 86 0 72 -2 c 0,29,30
 53 -3 53 -3 35.5 -5.5 c 128,-1,31
 18 -8 18 -8 16 -8 c 0,32,33
 12 -8 12 -8 12 -5 c 0,34,35
 12 -4 12 -4 15 4.5 c 128,-1,36
 18 13 18 13 20 20 c 0,37,38
 35 68 35 68 50.5 122.5 c 128,-1,39
 66 177 66 177 78 226.5 c 128,-1,40
 90 276 90 276 97.5 311 c 128,-1,41
 105 346 105 346 105 354 c 0,42,43
 105 370 105 370 88 370 c 0,44,45
 75 370 75 370 56.5 366.5 c 128,-1,46
 38 363 38 363 36 363 c 128,-1,47
 34 363 34 363 32 368.5 c 128,-1,48
 30 374 30 374 30 379 c 0,49,50
 30 386 30 386 33 386 c 0,51,52
 81 398 81 398 114.5 402.5 c 128,-1,53
 148 407 148 407 159 407 c 0,54,55
 173 407 173 407 178 399.5 c 128,-1,56
 183 392 183 392 183 382 c 128,-1,57
 183 372 183 372 177 349 c 128,-1,58
 171 326 171 326 160 287 c 1,59,-1
 165 286 l 1,60,61
 183 320 183 320 206 349 c 128,-1,62
 229 378 229 378 258.5 396.5 c 128,-1,63
 288 415 288 415 325 415 c 0,64,65
 364 415 364 415 386 395 c 128,-1,66
 408 375 408 375 417 345 c 128,-1,67
 426 315 426 315 426 283 c 0,68,69
 426 234 426 234 408.5 181.5 c 128,-1,70
 391 129 391 129 359 84.5 c 128,-1,71
 327 40 327 40 283 12.5 c 128,-1,72
 239 -15 239 -15 186 -15 c 0,22,23
117 73 m 0,73,74
 117 49 117 49 134.5 32 c 128,-1,75
 152 15 152 15 181 15 c 0,76,77
 215 15 215 15 245 38.5 c 128,-1,78
 275 62 275 62 297.5 101.5 c 128,-1,79
 320 141 320 141 333 188.5 c 128,-1,80
 346 236 346 236 346 284 c 0,81,82
 346 325 346 325 335 347.5 c 128,-1,83
 324 370 324 370 297 370 c 0,84,85
 269 370 269 370 242 346 c 128,-1,86
 215 322 215 322 192.5 284 c 128,-1,87
 170 246 170 246 153 205 c 128,-1,88
 136 164 136 164 126.5 128 c 128,-1,89
 117 92 117 92 117 73 c 0,73,74
EndSplineSet
Validated: 1048581
EndChar

StartChar: lowdham_hw
Encoding: 71 57404 58
Width: 454
GlyphClass: 2
Flags: W
AnchorPoint: "xhook" 130 360 basechar 0
AnchorPoint: "TehtaBelow" 305 -125 basechar 0
AnchorPoint: "TehtaAbove" 350 550 basechar 0
LayerCount: 2
Fore
SplineSet
-53 -149 m 1,0,1
 -53 -162 -53 -162 -46 -171 c 128,-1,2
 -39 -180 -39 -180 -23 -180 c 0,3,4
 47 -180 47 -180 172 -4 c 2,5,-1
 209 50 l 2,6,7
 257 120 257 120 283.5 171 c 128,-1,8
 310 222 310 222 320.5 260 c 128,-1,9
 331 298 331 298 331 328 c 0,10,11
 331 354 331 354 328 367 c 128,-1,12
 325 380 325 380 317 397 c 1,13,14
 334 419 334 419 362 419 c 0,15,16
 379 419 379 419 392.5 407 c 128,-1,17
 406 395 406 395 406 371 c 0,18,19
 406 346 406 346 398 318.5 c 128,-1,20
 390 291 390 291 367 241 c 0,21,22
 326 155 326 155 240 27 c 0,23,24
 218 -5 218 -5 193 -39 c 128,-1,25
 168 -73 168 -73 145.5 -101.5 c 128,-1,26
 123 -130 123 -130 106 -148 c 0,27,28
 16 -247 16 -247 -55 -247 c 0,29,30
 -86 -247 -86 -247 -101.5 -231 c 128,-1,31
 -117 -215 -117 -215 -117 -195 c 0,32,33
 -117 -174 -117 -174 -102 -160.5 c 128,-1,34
 -87 -147 -87 -147 -68 -147 c 0,35,36
 -59 -147 -59 -147 -53 -149 c 1,0,1
230 94 m 0,37,38
 234 94 234 94 241 87 c 128,-1,39
 248 80 248 80 248 77 c 0,40,41
 248 76 248 76 238 64.5 c 128,-1,42
 228 53 228 53 210 38 c 128,-1,43
 192 23 192 23 168.5 12 c 128,-1,44
 145 1 145 1 117 1 c 0,45,46
 88 1 88 1 72.5 16.5 c 128,-1,47
 57 32 57 32 57 59 c 0,48,49
 57 74 57 74 66.5 118 c 128,-1,50
 76 162 76 162 91.5 223 c 128,-1,51
 107 284 107 284 125 351 c 128,-1,52
 143 418 143 418 159.5 479.5 c 128,-1,53
 176 541 176 541 189 586.5 c 128,-1,54
 202 632 202 632 206 649 c 0,55,56
 210 662 210 662 214 666 c 128,-1,57
 218 670 218 670 230 672 c 0,58,59
 249 675 249 675 264.5 676 c 128,-1,60
 280 677 280 677 283 677 c 0,61,62
 291 677 291 677 291 671 c 0,63,64
 291 667 291 667 286 652 c 0,65,66
 273 613 273 613 257 558.5 c 128,-1,67
 241 504 241 504 223.5 443 c 128,-1,68
 206 382 206 382 190 321.5 c 128,-1,69
 174 261 174 261 160.5 209 c 128,-1,70
 147 157 147 157 139.5 121 c 128,-1,71
 132 85 132 85 132 72 c 0,72,73
 132 63 132 63 136.5 55 c 128,-1,74
 141 47 141 47 153 47 c 0,75,76
 173 47 173 47 190 59 c 128,-1,77
 207 71 207 71 218 82.5 c 128,-1,78
 229 94 229 94 230 94 c 0,37,38
EndSplineSet
Validated: 1048581
EndChar

StartChar: vaiya
Encoding: 72 57405 59
Width: 468
GlyphClass: 2
Flags: W
AnchorPoint: "xhook" 210 0 basechar 0
AnchorPoint: "TehtaAbove" 270 550 basechar 0
AnchorPoint: "TehtaBelow" 145 -125 basechar 0
LayerCount: 2
Fore
SplineSet
216 6 m 1,0,-1
 250 41 l 1,1,-1
 251 38 l 1,2,3
 259 39 259 39 268.5 39.5 c 128,-1,4
 278 40 278 40 285 40 c 0,5,6
 323 40 323 40 346.5 25.5 c 128,-1,7
 370 11 370 11 380.5 -10.5 c 128,-1,8
 391 -32 391 -32 391 -53 c 0,9,10
 391 -81 391 -81 377 -97.5 c 128,-1,11
 363 -114 363 -114 345 -114 c 0,12,13
 334 -114 334 -114 324 -107.5 c 128,-1,14
 314 -101 314 -101 306 -86 c 1,15,16
 331 -59 331 -59 331 -26 c 0,17,18
 331 -4 331 -4 317 4.5 c 128,-1,19
 303 13 303 13 283 13 c 0,20,21
 247 12 247 12 216 6 c 1,0,-1
253 430 m 0,22,23
 292 430 292 430 323 416 c 128,-1,24
 354 402 354 402 372.5 369.5 c 128,-1,25
 391 337 391 337 391 281 c 0,26,27
 391 252 391 252 383.5 214.5 c 128,-1,28
 376 177 376 177 359.5 139.5 c 128,-1,29
 343 102 343 102 316.5 70.5 c 128,-1,30
 290 39 290 39 251.5 19.5 c 128,-1,31
 213 0 213 0 162 -0 c 0,32,33
 125 0 125 0 92 14.5 c 128,-1,34
 59 29 59 29 39 62.5 c 128,-1,35
 19 96 19 96 19 152 c 0,36,37
 19 188 19 188 31.5 235.5 c 128,-1,38
 44 283 44 283 71.5 327.5 c 128,-1,39
 99 372 99 372 144 401 c 128,-1,40
 189 430 189 430 253 430 c 0,22,23
165 27 m 0,41,42
 203 27 203 27 231 56 c 128,-1,43
 259 85 259 85 278 129.5 c 128,-1,44
 297 174 297 174 306 222.5 c 128,-1,45
 315 271 315 271 315 311 c 0,46,47
 315 334 315 334 310 355 c 128,-1,48
 305 376 305 376 291 390 c 128,-1,49
 277 404 277 404 250 404 c 0,50,51
 211 404 211 404 182 375.5 c 128,-1,52
 153 347 153 347 134.5 302.5 c 128,-1,53
 116 258 116 258 106.5 209.5 c 128,-1,54
 97 161 97 161 97 122 c 0,55,56
 97 99 97 99 102.5 77 c 128,-1,57
 108 55 108 55 123 41 c 128,-1,58
 138 27 138 27 165 27 c 0,41,42
EndSplineSet
Validated: 1048581
EndChar

StartChar: sarince_end
Encoding: 95 57432 60
Width: 306
GlyphClass: 2
Flags: W
AnchorPoint: "lambe_shook" -200 30 mark 0
AnchorPoint: "TehtaAbove" 120 350 basechar 0
AnchorPoint: "TehtaBelow" 55 -275 basechar 0
LayerCount: 2
Fore
SplineSet
-13 -201.5 m 128,-1,1
 -31 -186 -31 -186 -31 -160 c 0,2,3
 -31 -130 -31 -130 -9 -113 c 128,-1,4
 13 -96 13 -96 42 -96 c 0,5,6
 49 -96 49 -96 52 -97 c 0,7,8
 59 -134 59 -134 71 -149 c 128,-1,9
 83 -164 83 -164 107 -164 c 0,10,11
 147 -164 147 -164 175 -138.5 c 128,-1,12
 203 -113 203 -113 203 -72 c 256,13,14
 203 -31 203 -31 180 -15.5 c 128,-1,15
 157 0 157 0 95 0 c 2,16,-1
 -180 0 l 2,17,18
 -201 0 -201 0 -208 7 c 128,-1,19
 -215 14 -215 14 -215 35 c 256,20,21
 -215 56 -215 56 -208 63 c 128,-1,22
 -201 70 -201 70 -180 70 c 2,23,-1
 145 70 l 2,24,25
 269 70 269 70 269 -33 c 0,26,27
 269 -79 269 -79 236.5 -121.5 c 128,-1,28
 204 -164 204 -164 151.5 -190.5 c 128,-1,29
 99 -217 99 -217 42 -217 c 0,30,0
 5 -217 5 -217 -13 -201.5 c 128,-1,1
EndSplineSet
Validated: 1048577
EndChar

StartChar: tehta_circumflex
Encoding: 98 57435 61
Width: 0
GlyphClass: 2
Flags: W
AnchorPoint: "mkmk_up" -100 800 basemark 0
AnchorPoint: "mkmk_up" -150 550 mark 0
AnchorPoint: "TehtaAbove" -150 550 mark 0
LayerCount: 2
Fore
SplineSet
-143 656 m 2,0,-1
 -113 656 l 2,1,2
 -108 656 -108 656 -105 653.5 c 128,-1,3
 -102 651 -102 651 -100 642 c 2,4,-1
 -58 481 l 2,5,6
 -56 473 -56 473 -56 471 c 0,7,8
 -56 468 -56 468 -63 465 c 128,-1,9
 -70 462 -70 462 -74 462 c 0,10,11
 -76 462 -76 462 -81 471 c 2,12,-1
 -140 583 l 1,13,-1
 -146 583 l 1,14,-1
 -265 469 l 2,15,16
 -272 462 -272 462 -275 462 c 0,17,18
 -279 462 -279 462 -284.5 467.5 c 128,-1,19
 -290 473 -290 473 -290 475 c 0,20,21
 -290 478 -290 478 -284 485 c 2,22,-1
 -162 642 l 2,23,24
 -155 651 -155 651 -151.5 653.5 c 128,-1,25
 -148 656 -148 656 -143 656 c 2,0,-1
EndSplineSet
Validated: 1048577
EndChar

StartChar: tehta_caron
Encoding: 99 57436 62
Width: 0
GlyphClass: 2
Flags: W
AnchorPoint: "mkmk_up" -110 800 basemark 0
AnchorPoint: "mkmk_up" -160 550 mark 0
AnchorPoint: "TehtaAbove" -160 550 mark 0
LayerCount: 2
Fore
SplineSet
-177 462 m 2,0,-1
 -207 462 l 2,1,2
 -212 462 -212 462 -215 464.5 c 128,-1,3
 -218 467 -218 467 -220 476 c 2,4,-1
 -262 637 l 2,5,6
 -264 645 -264 645 -264 647 c 0,7,8
 -264 650 -264 650 -257 653 c 128,-1,9
 -250 656 -250 656 -246 656 c 0,10,11
 -243 656 -243 656 -239 647 c 2,12,-1
 -180 535 l 1,13,-1
 -174 535 l 1,14,-1
 -55 649 l 2,15,16
 -48 656 -48 656 -45 656 c 0,17,18
 -41 656 -41 656 -35.5 650.5 c 128,-1,19
 -30 645 -30 645 -30 643 c 0,20,21
 -30 640 -30 640 -36 633 c 2,22,-1
 -158 476 l 2,23,24
 -165 467 -165 467 -168.5 464.5 c 128,-1,25
 -172 462 -172 462 -177 462 c 2,0,-1
EndSplineSet
Validated: 1048577
EndChar

StartChar: digit_zero
Encoding: 113 57456 63
Width: 406
GlyphClass: 2
Flags: W
AnchorPoint: "TehtaBelow" 135 -125 basechar 0
AnchorPoint: "TehtaAbove" 260 550 basechar 0
LayerCount: 2
Fore
SplineSet
88 107 m 1,0,1
 78 87 78 87 78 64 c 0,2,3
 78 45 78 45 90 30.5 c 128,-1,4
 102 16 102 16 130 16 c 0,5,6
 169 16 169 16 196.5 43 c 128,-1,7
 224 70 224 70 242 111.5 c 128,-1,8
 260 153 260 153 268 196 c 128,-1,9
 276 239 276 239 276 271 c 0,10,11
 276 313 276 313 259.5 344 c 128,-1,12
 243 375 243 375 198 375 c 0,13,14
 165 375 165 375 139.5 360.5 c 128,-1,15
 114 346 114 346 96 326 c 128,-1,16
 78 306 78 306 66 291 c 0,17,18
 61 285 61 285 59 285 c 0,19,20
 56 285 56 285 47 290 c 128,-1,21
 38 295 38 295 38 298 c 128,-1,22
 38 301 38 301 49.5 319.5 c 128,-1,23
 61 338 61 338 84 360.5 c 128,-1,24
 107 383 107 383 141.5 399.5 c 128,-1,25
 176 416 176 416 221 416 c 0,26,27
 284 416 284 416 320 378 c 128,-1,28
 356 340 356 340 356 268 c 0,29,30
 356 221 356 221 340 171.5 c 128,-1,31
 324 122 324 122 294 80 c 128,-1,32
 264 38 264 38 221 12 c 128,-1,33
 178 -14 178 -14 123 -14 c 0,34,35
 67 -14 67 -14 37.5 11.5 c 128,-1,36
 8 37 8 37 8 66 c 0,37,38
 8 89 8 89 22.5 103.5 c 128,-1,39
 37 118 37 118 56 118 c 0,40,41
 73 118 73 118 88 107 c 1,0,1
EndSplineSet
Validated: 1048577
EndChar

StartChar: digit_one
Encoding: 114 57457 64
Width: 398
GlyphClass: 2
Flags: W
AnchorPoint: "TehtaBelow" 147 -125 basechar 0
AnchorPoint: "TehtaAbove" 252 550 basechar 0
LayerCount: 2
Fore
SplineSet
388 416 m 1,0,1
 384 361 384 361 360 344.5 c 128,-1,2
 336 328 336 328 280 328 c 0,3,4
 242 328 242 328 203 331 c 1,5,6
 181 256 181 256 168.5 197 c 128,-1,7
 156 138 156 138 156 111 c 128,-1,8
 156 84 156 84 167 73.5 c 128,-1,9
 178 63 178 63 199 63 c 128,-1,10
 220 63 220 63 254 72 c 1,11,12
 255 68 255 68 255 66 c 2,13,-1
 255 64 l 2,14,15
 255 29 255 29 228.5 8.5 c 128,-1,16
 202 -12 202 -12 169 -12 c 0,17,18
 137 -12 137 -12 116.5 9.5 c 128,-1,19
 96 31 96 31 96 67 c 0,20,21
 96 94 96 94 104 129 c 128,-1,22
 112 164 112 164 123.5 202 c 128,-1,23
 135 240 135 240 146 275 c 128,-1,24
 157 310 157 310 164 335 c 1,25,26
 154 336 154 336 144 336 c 2,27,-1
 125 336 l 2,28,29
 79 336 79 336 61.5 325 c 128,-1,30
 44 314 44 314 29 294 c 0,31,32
 25 289 25 289 23 289 c 0,33,34
 18 289 18 289 11 293.5 c 128,-1,35
 4 298 4 298 4 302 c 0,36,37
 31 357 31 357 72 384.5 c 128,-1,38
 113 412 113 412 175 412 c 0,39,40
 193 412 193 412 220 410.5 c 128,-1,41
 247 409 247 409 293 409 c 0,42,43
 328 409 328 409 345.5 410.5 c 128,-1,44
 363 412 363 412 388 416 c 1,0,1
EndSplineSet
Validated: 1048577
EndChar

StartChar: digit_two
Encoding: 115 57458 65
Width: 563
GlyphClass: 2
Flags: W
AnchorPoint: "TehtaBelow" 238 -125 basechar 0
AnchorPoint: "TehtaAbove" 333 550 basechar 0
LayerCount: 2
Fore
SplineSet
541 416 m 1,0,1
 538 378 538 378 527 359 c 128,-1,2
 516 340 516 340 491.5 334.5 c 128,-1,3
 467 329 467 329 421 329 c 2,4,-1
 404 329 l 1,5,6
 381 253 381 253 370.5 196 c 128,-1,7
 360 139 360 139 360 109 c 0,8,9
 360 84 360 84 372 74 c 128,-1,10
 384 64 384 64 401 64 c 128,-1,11
 418 64 418 64 438 71 c 1,12,13
 439 68 439 68 439 66 c 2,14,-1
 439 63 l 2,15,16
 439 29 439 29 416 8.5 c 128,-1,17
 393 -12 393 -12 366 -12 c 0,18,19
 338 -12 338 -12 319.5 7.5 c 128,-1,20
 301 27 301 27 301 60 c 0,21,22
 301 96 301 96 311.5 142 c 128,-1,23
 322 188 322 188 337 237 c 128,-1,24
 352 286 352 286 364 331 c 1,25,26
 315 332 315 332 241.5 334.5 c 128,-1,27
 168 337 168 337 153 337 c 2,28,-1
 121 337 l 2,29,30
 79 337 79 337 62 322.5 c 128,-1,31
 44.99609375 307.99609375 44.99609375 307.99609375 34 292 c 0,32,33
 31 288 31 288 28 288 c 0,34,35
 23 288 23 288 16.5 292.5 c 128,-1,36
 10 297 10 297 10 299 c 0,37,38
 62 413 62 413 156 413 c 0,39,40
 260 413 260 413 262.8125 412.3984375 c 0,41,42
 264 412 264 412 278 412 c 0,43,44
 300.908203125 411.823242188 300.908203125 411.823242188 348.08984375 410.747070312 c 128,-1,45
 395.272460938 409.670898438 395.272460938 409.670898438 418.180664062 409.518554688 c 128,-1,46
 441.088867188 409.365234375 441.088867188 409.365234375 486.5 410.5 c 0,47,48
 511.715820312 411.661132812 511.715820312 411.661132812 541 416 c 1,0,1
210.654296875 338.9140625 m 1,49,50
 196.279296875 289.91015625 196.279296875 289.91015625 176.154296875 194.9140625 c 0,51,52
 163.653320312 135.9140625 163.653320312 135.9140625 163.654296875 108.9140625 c 128,-1,53
 163.654296875 81.9140625 163.654296875 81.9140625 174.654296875 71.4140625 c 128,-1,54
 185.654296875 60.9140625 185.654296875 60.9140625 206.654296875 60.9140625 c 128,-1,55
 227.654296875 60.9140625 227.654296875 60.9140625 261.654296875 69.9140625 c 1,56,57
 262.654296875 65.9111328125 262.654296875 65.9111328125 262.654296875 64.4140625 c 2,58,-1
 262.654296875 61.9140625 l 2,59,60
 262.654296875 26.9140625 262.654296875 26.9140625 236.154296875 6.4140625 c 128,-1,61
 209.654296875 -14.0849609375 209.654296875 -14.0849609375 176.654296875 -14.0859375 c 0,62,63
 144.653320312 -14.0859375 144.653320312 -14.0859375 124.154296875 7.4140625 c 128,-1,64
 103.654296875 28.9150390625 103.654296875 28.9150390625 103.654296875 64.9140625 c 0,65,66
 103.654296875 91.9140625 103.654296875 91.9140625 111.654296875 126.9140625 c 128,-1,67
 119.654296875 161.915039062 119.654296875 161.915039062 131.154296875 199.9140625 c 128,-1,68
 142.653320312 237.915039062 142.653320312 237.915039062 153.654296875 272.9140625 c 0,69,70
 158.002929688 286.75 158.002929688 286.75 164.5078125 311.6875 c 128,-1,71
 171.013671875 336.625976562 171.013671875 336.625976562 171.654296875 338.9140625 c 2,72,-1
 210.654296875 338.9140625 l 1,49,50
EndSplineSet
Validated: 1048613
EndChar

StartChar: digit_three
Encoding: 116 57459 66
Width: 742
GlyphClass: 2
Flags: W
AnchorPoint: "TehtaAbove" 399 550 basechar 0
AnchorPoint: "TehtaBelow" 314 -125 basechar 0
LayerCount: 2
Fore
SplineSet
721 416 m 1,0,1
 718 378 718 378 707 359 c 128,-1,2
 696 340 696 340 671.5 334.5 c 128,-1,3
 647 329 647 329 601 329 c 2,4,-1
 584 329 l 1,5,6
 561 253 561 253 550.5 196 c 128,-1,7
 540 139 540 139 540 109 c 0,8,9
 540 84 540 84 552 74 c 128,-1,10
 564 64 564 64 581 64 c 128,-1,11
 598 64 598 64 618 71 c 1,12,13
 619 68 619 68 619 66 c 2,14,-1
 619 63 l 2,15,16
 619 29 619 29 596 8.5 c 128,-1,17
 573 -12 573 -12 546 -12 c 0,18,19
 518 -12 518 -12 499.5 7.5 c 128,-1,20
 481 27 481 27 481 60 c 0,21,22
 481 96 481 96 491.5 142 c 128,-1,23
 502 188 502 188 517 237 c 128,-1,24
 532 286 532 286 544 331 c 1,25,-1
 359.5 335 l 1,26,-1
 192 336 l 1,27,-1
 153 337 l 1,28,-1
 121 337 l 2,29,30
 79 337 79 337 62 322.5 c 128,-1,31
 44.99609375 307.99609375 44.99609375 307.99609375 34 292 c 0,32,33
 31 288 31 288 28 288 c 0,34,35
 23 288 23 288 16.5 292.5 c 128,-1,36
 10 297 10 297 10 299 c 0,37,38
 62 413 62 413 156 413 c 0,39,40
 267 413 267 413 458 412 c 0,41,42
 465.134765625 411.962890625 465.134765625 411.962890625 563.24609375 410.056640625 c 128,-1,43
 661.357421875 408.151367188 661.357421875 408.151367188 666.5 410.5 c 0,44,45
 691.715820312 411.661132812 691.715820312 411.661132812 721 416 c 1,0,1
390.654296875 338.9140625 m 1,46,47
 376.279296875 289.91015625 376.279296875 289.91015625 356.154296875 194.9140625 c 0,48,49
 343.653320312 135.9140625 343.653320312 135.9140625 343.654296875 108.9140625 c 128,-1,50
 343.654296875 81.9140625 343.654296875 81.9140625 354.654296875 71.4140625 c 128,-1,51
 365.654296875 60.9140625 365.654296875 60.9140625 386.654296875 60.9140625 c 128,-1,52
 407.654296875 60.9140625 407.654296875 60.9140625 441.654296875 69.9140625 c 1,53,54
 442.654296875 65.9111328125 442.654296875 65.9111328125 442.654296875 64.4140625 c 2,55,-1
 442.654296875 61.9140625 l 2,56,57
 442.654296875 26.9140625 442.654296875 26.9140625 416.154296875 6.4140625 c 128,-1,58
 389.654296875 -14.0849609375 389.654296875 -14.0849609375 356.654296875 -14.0859375 c 0,59,60
 324.653320312 -14.0859375 324.653320312 -14.0859375 304.154296875 7.4140625 c 128,-1,61
 283.654296875 28.9150390625 283.654296875 28.9150390625 283.654296875 64.9140625 c 0,62,63
 283.654296875 91.9140625 283.654296875 91.9140625 291.654296875 126.9140625 c 128,-1,64
 299.654296875 161.915039062 299.654296875 161.915039062 311.154296875 199.9140625 c 128,-1,65
 322.653320312 237.915039062 322.653320312 237.915039062 333.654296875 272.9140625 c 0,66,67
 338.002929688 286.75 338.002929688 286.75 344.5078125 311.6875 c 128,-1,68
 351.013671875 336.625976562 351.013671875 336.625976562 351.654296875 338.9140625 c 2,69,-1
 390.654296875 338.9140625 l 1,46,47
190.861328125 340.60546875 m 1,70,71
 176.494140625 291.625 176.494140625 291.625 156.361328125 196.60546875 c 0,72,73
 143.861328125 137.60546875 143.861328125 137.60546875 143.861328125 110.60546875 c 128,-1,74
 143.861328125 83.60546875 143.861328125 83.60546875 154.861328125 73.10546875 c 128,-1,75
 165.862304688 62.60546875 165.862304688 62.60546875 186.861328125 62.60546875 c 128,-1,76
 207.861328125 62.60546875 207.861328125 62.60546875 241.861328125 71.60546875 c 1,77,78
 242.861328125 67.60546875 242.861328125 67.60546875 242.861328125 66.10546875 c 2,79,-1
 242.861328125 63.60546875 l 2,80,81
 242.861328125 28.60546875 242.861328125 28.60546875 216.361328125 8.10546875 c 128,-1,82
 189.862304688 -12.39453125 189.862304688 -12.39453125 156.861328125 -12.39453125 c 0,83,84
 124.861328125 -12.39453125 124.861328125 -12.39453125 104.361328125 9.10546875 c 128,-1,85
 83.8623046875 30.60546875 83.8623046875 30.60546875 83.861328125 66.60546875 c 0,86,87
 83.861328125 93.60546875 83.861328125 93.60546875 91.861328125 128.60546875 c 128,-1,88
 99.8623046875 163.60546875 99.8623046875 163.60546875 111.361328125 201.60546875 c 128,-1,89
 122.861328125 239.60546875 122.861328125 239.60546875 133.861328125 274.60546875 c 0,90,91
 138.2109375 288.444335938 138.2109375 288.444335938 144.721679688 313.400390625 c 128,-1,92
 151.231445312 338.356445312 151.231445312 338.356445312 151.861328125 340.60546875 c 2,93,-1
 190.861328125 340.60546875 l 1,70,71
EndSplineSet
Validated: 1048613
EndChar

StartChar: digit_four
Encoding: 117 57460 67
Width: 330
GlyphClass: 2
Flags: W
AnchorPoint: "TehtaBelow" 60 -300 basechar 0
LayerCount: 2
Fore
SplineSet
58 -163 m 0,0,1
 58 -184 58 -184 67 -200.5 c 128,-1,2
 76 -217 76 -217 100 -217 c 0,3,4
 123 -217 123 -217 135 -200 c 128,-1,5
 147 -183 147 -183 153 -146 c 1,6,7
 158 -145 158 -145 163 -144.5 c 128,-1,8
 168 -144 168 -144 172 -144 c 0,9,10
 192 -144 192 -144 201.5 -155 c 128,-1,11
 211 -166 211 -166 211 -180 c 0,12,13
 211 -209 211 -209 178 -228 c 128,-1,14
 145 -247 145 -247 101 -247 c 0,15,16
 48 -247 48 -247 19.5 -217.5 c 128,-1,17
 -9 -188 -9 -188 -9 -136 c 0,18,19
 -9 -111 -9 -111 -3.5 -79 c 128,-1,20
 2 -47 2 -47 8 -21 c 0,21,22
 19 30 19 30 36.5 99 c 128,-1,23
 54 168 54 168 73.5 244.5 c 128,-1,24
 93 321 93 321 113 395 c 128,-1,25
 133 469 133 469 150 531.5 c 128,-1,26
 167 594 167 594 178 634 c 0,27,28
 182 647 182 647 186 651 c 128,-1,29
 190 655 190 655 202 657 c 0,30,31
 221 660 221 660 236.5 661 c 128,-1,32
 252 662 252 662 255 662 c 0,33,34
 263 662 263 662 263 656 c 0,35,36
 263 652 263 652 258 637 c 0,37,38
 245 598 245 598 225.5 531.5 c 128,-1,39
 206 465 206 465 183.5 384 c 128,-1,40
 161 303 161 303 139 218.5 c 128,-1,41
 117 134 117 134 98.5 57.5 c 128,-1,42
 80 -19 80 -19 69 -77.5 c 128,-1,43
 58 -136 58 -136 58 -163 c 0,0,1
EndSplineSet
Validated: 1048577
EndChar

StartChar: digit_five
Encoding: 118 57461 68
Width: 568
GlyphClass: 2
Flags: W
AnchorPoint: "TehtaAbove" 399 550 basechar 0
AnchorPoint: "TehtaBelow" 200 -300 basechar 0
LayerCount: 2
Fore
SplineSet
58 -163 m 0,0,1
 58 -184 58 -184 67 -200.5 c 128,-1,2
 76 -217 76 -217 100 -217 c 0,3,4
 123 -217 123 -217 135 -200 c 128,-1,5
 147 -183 147 -183 153 -146 c 1,6,7
 158 -145 158 -145 163 -144.5 c 128,-1,8
 168 -144 168 -144 172 -144 c 0,9,10
 192 -144 192 -144 201.5 -155 c 128,-1,11
 211 -166 211 -166 211 -180 c 0,12,13
 211 -209 211 -209 178 -228 c 128,-1,14
 145 -247 145 -247 101 -247 c 0,15,16
 48 -247 48 -247 19.5 -217.5 c 128,-1,17
 -9 -188 -9 -188 -9 -136 c 0,18,19
 -9 -111 -9 -111 -3.5 -79 c 128,-1,20
 2 -47 2 -47 8 -21 c 0,21,22
 19 30 19 30 36.5 99 c 128,-1,23
 54 168 54 168 73.5 244.5 c 128,-1,24
 93 321 93 321 113 395 c 128,-1,25
 133 469 133 469 150 531.5 c 128,-1,26
 167 594 167 594 178 634 c 0,27,28
 182 647 182 647 186 651 c 128,-1,29
 190 655 190 655 202 657 c 0,30,31
 221 660 221 660 236.5 661 c 128,-1,32
 252 662 252 662 255 662 c 0,33,34
 263 662 263 662 263 656 c 0,35,36
 263 652 263 652 258 637 c 0,37,38
 245 598 245 598 225.5 531.5 c 128,-1,39
 206 465 206 465 183.5 384 c 128,-1,40
 161 303 161 303 139 218.5 c 128,-1,41
 117 134 117 134 98.5 57.5 c 128,-1,42
 80 -19 80 -19 69 -77.5 c 128,-1,43
 58 -136 58 -136 58 -163 c 0,0,1
536 416 m 1,44,45
 531.999511719 360.999511719 531.999511719 360.999511719 508 344.5 c 128,-1,46
 484 328 484 328 428 328 c 0,47,48
 390.000488281 328 390.000488281 328 351 331 c 1,49,50
 328.999511719 256 328.999511719 256 316.5 197 c 128,-1,51
 304.000488281 138.000488281 304.000488281 138.000488281 304 111 c 128,-1,52
 304 84 304 84 315 73.5 c 128,-1,53
 325.999511719 63 325.999511719 63 347 63 c 128,-1,54
 368 63 368 63 402 72 c 1,55,56
 403.000488281 67.9995117188 403.000488281 67.9995117188 403 66 c 2,57,-1
 403 64 l 2,58,59
 403 29.0004882812 403 29.0004882812 376.5 8.5 c 128,-1,60
 349.999511719 -12.0004882812 349.999511719 -12.0004882812 317 -12 c 0,61,62
 285.000488281 -12 285.000488281 -12 264.5 9.5 c 128,-1,63
 243.999511719 30.9995117188 243.999511719 30.9995117188 244 67 c 0,64,65
 244 94 244 94 252 129 c 128,-1,66
 259.999511719 163.999511719 259.999511719 163.999511719 271.5 202 c 128,-1,67
 283.000488281 239.999511719 283.000488281 239.999511719 294 275 c 128,-1,68
 304.999511719 309.999511719 304.999511719 309.999511719 312 335 c 1,69,70
 302 336 302 336 292 336 c 2,71,-1
 233 336 l 2,72,73
 183.001265148 336 183.001265148 336 165.5 325 c 1,74,-1
 180 384.5 l 1,75,76
 197.824756428 420.217298966 197.824756428 420.217298966 323 412 c 0,77,78
 328.734103084 411.623556273 328.734103084 411.623556273 343.704281666 411.320820907 c 128,-1,79
 358.674460248 411.018085542 358.674460248 411.018085542 368 410.5 c 0,80,81
 395 409 395 409 441 409 c 0,82,83
 475.999511719 409 475.999511719 409 493.5 410.5 c 128,-1,84
 511.000488281 412 511.000488281 412 536 416 c 1,44,45
EndSplineSet
Validated: 1048613
EndChar

StartChar: digit_six
Encoding: 119 57462 69
Width: 716
GlyphClass: 2
Flags: W
AnchorPoint: "TehtaAbove" 449 550 basechar 0
AnchorPoint: "TehtaBelow" 230 -300 basechar 0
LayerCount: 2
Fore
SplineSet
58 -163 m 0,0,1
 58 -184 58 -184 67 -200.5 c 128,-1,2
 76 -217 76 -217 100 -217 c 0,3,4
 122.999511719 -217 122.999511719 -217 135 -200 c 128,-1,5
 147 -183.000488281 147 -183.000488281 153 -146 c 1,6,7
 157.998538012 -144.999706574 157.998538012 -144.999706574 163 -144.5 c 128,-1,8
 167.999511719 -144.000488281 167.999511719 -144.000488281 172 -144 c 0,9,10
 191.999511719 -144 191.999511719 -144 201.5 -155 c 128,-1,11
 210.999511719 -165.999511719 210.999511719 -165.999511719 211 -180 c 0,12,13
 211 -208.999511719 211 -208.999511719 178 -228 c 128,-1,14
 145 -247.000488281 145 -247.000488281 101 -247 c 0,15,16
 48.0004882812 -247 48.0004882812 -247 19.5 -217.5 c 128,-1,17
 -9 -187.999511719 -9 -187.999511719 -9 -136 c 0,18,19
 -9 -110.999511719 -9 -110.999511719 -3.5 -79 c 128,-1,20
 2.00257165854 -46.9883680744 2.00257165854 -46.9883680744 8 -21 c 0,21,22
 18.9995117188 30 18.9995117188 30 36.5 99 c 128,-1,23
 54.0004882812 168 54.0004882812 168 73.5 244.5 c 128,-1,24
 93 321 93 321 113 395 c 128,-1,25
 132.999511719 468.999511719 132.999511719 468.999511719 150 531.5 c 128,-1,26
 166.999511719 594.000488281 166.999511719 594.000488281 178 634 c 0,27,28
 182 647 182 647 186 651 c 128,-1,29
 190.000488281 655.000488281 190.000488281 655.000488281 202 657 c 0,30,31
 221.000488281 660 221.000488281 660 236.5 661 c 128,-1,32
 251.999511719 662.000488281 251.999511719 662.000488281 255 662 c 0,33,34
 262.999511719 662 262.999511719 662 263 656 c 0,35,36
 263 651.999511719 263 651.999511719 258 637 c 0,37,38
 244.999511719 598 244.999511719 598 225.5 531.5 c 128,-1,39
 206 465.000488281 206 465.000488281 183.5 384 c 128,-1,40
 161 303 161 303 139 218.5 c 128,-1,41
 116.999511719 134.000488281 116.999511719 134.000488281 98.5 57.5 c 128,-1,42
 80.0004882812 -19 80.0004882812 -19 69 -77.5 c 128,-1,43
 58.0004882812 -136 58.0004882812 -136 58 -163 c 0,0,1
328.5234375 334.78125 m 1,44,45
 309.572735137 270.178016696 309.572735137 270.178016696 294.0234375 196.78125 c 0,46,47
 281.522460938 137.781738281 281.522460938 137.781738281 281.5234375 110.78125 c 128,-1,48
 281.5234375 83.78125 281.5234375 83.78125 292.5234375 73.28125 c 128,-1,49
 303.522949219 62.78125 303.522949219 62.78125 324.5234375 62.78125 c 128,-1,50
 345.5234375 62.78125 345.5234375 62.78125 379.5234375 71.78125 c 1,51,52
 380.5234375 67.7783174487 380.5234375 67.7783174487 380.5234375 66.28125 c 2,53,-1
 380.5234375 63.78125 l 2,54,55
 380.5234375 28.7817382812 380.5234375 28.7817382812 354.0234375 8.28125 c 128,-1,56
 327.522949219 -12.2177734375 327.522949219 -12.2177734375 294.5234375 -12.21875 c 0,57,58
 262.522460938 -12.21875 262.522460938 -12.21875 242.0234375 9.28125 c 128,-1,59
 221.522949219 30.7822265625 221.522949219 30.7822265625 221.5234375 66.78125 c 0,60,61
 221.5234375 93.78125 221.5234375 93.78125 229.5234375 128.78125 c 128,-1,62
 237.522949219 163.782226562 237.522949219 163.782226562 249.0234375 201.78125 c 128,-1,63
 260.522460938 239.782226562 260.522460938 239.782226562 271.5234375 274.78125 c 128,-1,64
 282.522949219 309.782226562 282.522949219 309.782226562 289.5234375 334.78125 c 1,65,-1
 328.5234375 334.78125 l 1,44,45
526.498046875 335.725585938 m 1,66,67
 507.552015655 271.133975972 507.552015655 271.133975972 491.998046875 197.725585938 c 0,68,69
 479.498535156 138.726074219 479.498535156 138.726074219 479.498046875 111.725585938 c 128,-1,70
 479.498046875 84.7255859375 479.498046875 84.7255859375 490.498046875 74.2255859375 c 128,-1,71
 501.499023438 63.7255859375 501.499023438 63.7255859375 522.498046875 63.7255859375 c 128,-1,72
 543.498046875 63.7255859375 543.498046875 63.7255859375 577.498046875 72.7255859375 c 1,73,74
 578.498535156 68.7250976562 578.498535156 68.7250976562 578.498046875 67.2255859375 c 2,75,-1
 578.498046875 64.7255859375 l 2,76,77
 578.498046875 29.7260742188 578.498046875 29.7260742188 551.998046875 9.2255859375 c 128,-1,78
 525.499023438 -11.2749023438 525.499023438 -11.2749023438 492.498046875 -11.2744140625 c 0,79,80
 460.498535156 -11.2744140625 460.498535156 -11.2744140625 439.998046875 10.2255859375 c 128,-1,81
 419.499023438 31.7250976562 419.499023438 31.7250976562 419.498046875 67.7255859375 c 0,82,83
 419.498046875 94.7255859375 419.498046875 94.7255859375 427.498046875 129.725585938 c 128,-1,84
 435.499023438 164.725097656 435.499023438 164.725097656 446.998046875 202.725585938 c 128,-1,85
 458.498535156 240.725097656 458.498535156 240.725097656 469.498046875 275.725585938 c 128,-1,86
 480.499023438 310.725097656 480.499023438 310.725097656 487.498046875 335.725585938 c 1,87,-1
 526.498046875 335.725585938 l 1,66,67
705.036132812 412.8046875 m 1,88,89
 702.036132812 374.805175781 702.036132812 374.805175781 691.036132812 355.8046875 c 128,-1,90
 680.036621094 336.804199219 680.036621094 336.804199219 655.536132812 331.3046875 c 128,-1,91
 631.036621094 325.804199219 631.036621094 325.804199219 585.036132812 325.8046875 c 0,92,93
 562.70550447 325.778855154 562.70550447 325.778855154 520.440444586 328.157275847 c 128,-1,94
 478.175384702 330.53569654 478.175384702 330.53569654 471.036132812 330.8046875 c 0,95,96
 462.006346514 331.139287329 462.006346514 331.139287329 393.672335483 331.805798639 c 128,-1,97
 325.338324453 332.472309949 325.338324453 332.472309949 316.036132812 332.8046875 c 2,98,-1
 277.036132812 333.8046875 l 1,99,-1
 245.036132812 333.8046875 l 2,100,101
 203.036132812 333.8046875 203.036132812 333.8046875 186.036132812 319.3046875 c 128,-1,102
 169.036178215 304.803821446 169.036178215 304.803821446 158.036132812 288.8046875 c 0,103,104
 155.036132812 284.804199219 155.036132812 284.804199219 152.036132812 284.8046875 c 0,105,106
 147.036621094 284.8046875 147.036621094 284.8046875 140.536132812 289.3046875 c 128,-1,107
 134.036621094 293.8046875 134.036621094 293.8046875 134.036132812 295.8046875 c 0,108,109
 186.036621094 409.8046875 186.036621094 409.8046875 280.036132812 409.8046875 c 0,110,111
 413.050774101 409.8046875 413.050774101 409.8046875 442.036132812 408.8046875 c 128,-1,112
 470.874305279 407.809815705 470.874305279 407.809815705 506.036132812 406.8046875 c 128,-1,113
 541.037109375 405.804199219 541.037109375 405.804199219 592.036132812 405.8046875 c 0,114,115
 623.036621094 405.8046875 623.036621094 405.8046875 650.536132812 407.3046875 c 128,-1,116
 678.040779293 408.80488767 678.040779293 408.80488767 705.036132812 412.8046875 c 1,88,89
EndSplineSet
Validated: 1048613
EndChar

StartChar: digit_seven
Encoding: 120 57463 70
Width: 292
GlyphClass: 2
Flags: W
AnchorPoint: "TehtaBelow" -70 -300 basechar 0
LayerCount: 2
Fore
SplineSet
44 2 m 1,0,1
 29 17 29 17 29 44 c 0,2,3
 29 59 29 59 38.5 103 c 128,-1,4
 48 147 48 147 63.5 208 c 128,-1,5
 79 269 79 269 97 336 c 128,-1,6
 115 403 115 403 131.5 464.5 c 128,-1,7
 148 526 148 526 161 571.5 c 128,-1,8
 174 617 174 617 178 634 c 0,9,10
 182 647 182 647 186 651 c 128,-1,11
 190 655 190 655 202 657 c 0,12,13
 221 660 221 660 236.5 661 c 128,-1,14
 252 662 252 662 255 662 c 0,15,16
 263 662 263 662 263 656 c 0,17,18
 263 652 263 652 258 637 c 0,19,20
 245 598 245 598 229 543.5 c 128,-1,21
 213 489 213 489 195.5 428 c 128,-1,22
 178 367 178 367 162 306.5 c 128,-1,23
 146 246 146 246 132 194 c 0,24,25
 120 142 120 142 112 106 c 1,26,-1
 44 2 l 1,0,1
-105 -219 m 0,27,28
 -67 -219 -67 -219 -42 -168.5 c 128,-1,29
 -17 -118 -17 -118 9 -12 c 1,30,-1
 127 401 l 1,31,32
 146 404 146 404 160.5 405 c 128,-1,33
 175 406 175 406 178 406 c 0,34,35
 186 406 186 406 186 399 c 0,36,37
 186 396 186 396 177.5 361.5 c 128,-1,38
 169 327 169 327 154.5 270.5 c 128,-1,39
 140 214 140 214 121 142.5 c 128,-1,40
 102 71 102 71 82 -5 c 0,41,42
 53 -116 53 -116 5.5 -182.5 c 128,-1,43
 -42 -249 -42 -249 -117 -249 c 0,44,45
 -163 -249 -163 -249 -186.5 -232 c 128,-1,46
 -210 -215 -210 -215 -210 -190 c 0,47,48
 -210 -168 -210 -168 -196.5 -156.5 c 128,-1,49
 -183 -145 -183 -145 -164 -145 c 0,50,51
 -152 -145 -152 -145 -141 -149 c 1,52,53
 -142 -154 -142 -154 -142.5 -159 c 128,-1,54
 -143 -164 -143 -164 -143 -169 c 0,55,56
 -143 -191 -143 -191 -134.5 -205 c 128,-1,57
 -126 -219 -126 -219 -105 -219 c 0,27,28
EndSplineSet
Validated: 1048581
EndChar

StartChar: digit_eight
Encoding: 121 57464 71
Width: 485
GlyphClass: 2
Flags: W
AnchorPoint: "TehtaAbove" 410 550 basechar 0
AnchorPoint: "TehtaBelow" 235 -125 basechar 0
LayerCount: 2
Fore
SplineSet
71 0 m 1,0,1
 56 15 56 15 56 43 c 0,2,3
 56 58 56 58 65.5 102 c 128,-1,4
 75 146 75 146 90.5 207 c 128,-1,5
 106 268 106 268 124 335 c 128,-1,6
 142 402 142 402 158.5 463.5 c 128,-1,7
 175 525 175 525 188 570.5 c 128,-1,8
 201 616 201 616 205 633 c 0,9,10
 209 646 209 646 213 650 c 128,-1,11
 217 654 217 654 229 656 c 0,12,13
 248 659 248 659 263.5 660 c 128,-1,14
 279 661 279 661 282 661 c 0,15,16
 290 661 290 661 290 655 c 0,17,18
 290 651 290 651 285 636 c 0,19,20
 272 597 272 597 256 542.5 c 128,-1,21
 240 488 240 488 222.5 427 c 128,-1,22
 205 366 205 366 189 305.5 c 128,-1,23
 173 245 173 245 159.5 193 c 128,-1,24
 146 141 146 141 138 105 c 1,25,-1
 71 0 l 1,0,1
-78 -220 m 0,26,27
 -40 -220 -40 -220 -15 -169.5 c 128,-1,28
 10 -119 10 -119 36 -13 c 1,29,-1
 154 400 l 1,30,31
 173 403 173 403 187.5 404 c 128,-1,32
 202 405 202 405 205 405 c 0,33,34
 213 405 213 405 213 398 c 0,35,36
 213 395 213 395 204.5 360.5 c 128,-1,37
 196 326 196 326 181.5 269.5 c 128,-1,38
 167 213 167 213 148 141.5 c 128,-1,39
 129 70 129 70 109 -6 c 0,40,41
 80 -117 80 -117 32.5 -183.5 c 128,-1,42
 -15 -250 -15 -250 -90 -250 c 0,43,44
 -136 -250 -136 -250 -159.5 -233 c 128,-1,45
 -183 -216 -183 -216 -183 -191 c 0,46,47
 -183 -169 -183 -169 -169.5 -157.5 c 128,-1,48
 -156 -146 -156 -146 -137 -146 c 0,49,50
 -125 -146 -125 -146 -114 -150 c 1,51,52
 -115 -155 -115 -155 -115.5 -160 c 128,-1,53
 -116 -165 -116 -165 -116 -170 c 0,54,55
 -116 -192 -116 -192 -107.5 -206 c 128,-1,56
 -99 -220 -99 -220 -78 -220 c 0,26,27
117 29 m 1,57,-1
 179 281 l 1,58,59
 196 311 196 311 222.5 343.5 c 128,-1,60
 249 376 249 376 282 398.5 c 128,-1,61
 315 421 315 421 350 421 c 0,62,63
 402 421 402 421 426 386 c 128,-1,64
 450 351 450 351 450 293 c 0,65,66
 450 244 450 244 433 191 c 128,-1,67
 416 138 416 138 383.5 92.5 c 128,-1,68
 351 47 351 47 306 19 c 128,-1,69
 261 -9 261 -9 205 -9 c 0,70,71
 180 -9 180 -9 157 0.5 c 128,-1,72
 134 10 134 10 117 29 c 1,57,-1
134 79 m 0,73,74
 134 56 134 56 152.5 38.5 c 128,-1,75
 171 21 171 21 204 21 c 0,76,77
 242 21 242 21 272.5 47.5 c 128,-1,78
 303 74 303 74 324.5 116 c 128,-1,79
 346 158 346 158 358 205.5 c 128,-1,80
 370 253 370 253 370 294 c 0,81,82
 370 376 370 376 326 376 c 0,83,84
 295 376 295 376 266.5 351.5 c 128,-1,85
 238 327 238 327 213.5 289 c 128,-1,86
 189 251 189 251 171.5 209.5 c 128,-1,87
 154 168 154 168 144 132.5 c 128,-1,88
 134 97 134 97 134 79 c 0,73,74
EndSplineSet
Validated: 1048581
EndChar

StartChar: digit_nine
Encoding: 122 57465 72
Width: 716
GlyphClass: 2
Flags: W
AnchorPoint: "TehtaAbove" 480 550 basechar 0
AnchorPoint: "TehtaBelow" 305 -125 basechar 0
LayerCount: 2
Fore
SplineSet
63 0 m 1,0,1
 48 15 48 15 48 43 c 0,2,3
 48 58 48 58 57.5 102 c 128,-1,4
 67 146 67 146 82.5 207 c 128,-1,5
 98 268 98 268 116 335 c 128,-1,6
 134 402 134 402 150.5 463.5 c 128,-1,7
 167 525 167 525 180 570.5 c 128,-1,8
 193 616 193 616 197 633 c 0,9,10
 201 646 201 646 205 650 c 128,-1,11
 209 654 209 654 221 656 c 0,12,13
 240 659 240 659 255.5 660 c 128,-1,14
 271 661 271 661 274 661 c 0,15,16
 282 661 282 661 282 655 c 0,17,18
 282 651 282 651 277 636 c 0,19,20
 264 597 264 597 248 542.5 c 128,-1,21
 232 488 232 488 214.5 427 c 128,-1,22
 197 366 197 366 181 305.5 c 128,-1,23
 165 245 165 245 151.5 193 c 128,-1,24
 138 141 138 141 130 105 c 1,25,-1
 63 0 l 1,0,1
-86 -220 m 0,26,27
 -48 -220 -48 -220 -23 -169.5 c 128,-1,28
 2 -119 2 -119 28 -13 c 1,29,-1
 146 400 l 1,30,31
 165 403 165 403 179.5 404 c 128,-1,32
 194 405 194 405 197 405 c 0,33,34
 205 405 205 405 205 398 c 0,35,36
 205 395 205 395 196.5 360.5 c 128,-1,37
 188 326 188 326 173.5 269.5 c 128,-1,38
 159 213 159 213 140 141.5 c 128,-1,39
 121 70 121 70 101 -6 c 0,40,41
 72 -117 72 -117 24.5 -183.5 c 128,-1,42
 -23 -250 -23 -250 -98 -250 c 0,43,44
 -144 -250 -144 -250 -167.5 -233 c 128,-1,45
 -191 -216 -191 -216 -191 -191 c 0,46,47
 -191 -169 -191 -169 -177.5 -157.5 c 128,-1,48
 -164 -146 -164 -146 -145 -146 c 0,49,50
 -133 -146 -133 -146 -122 -150 c 1,51,52
 -123 -155 -123 -155 -123.5 -160 c 128,-1,53
 -124 -165 -124 -165 -124 -170 c 0,54,55
 -124 -192 -124 -192 -115.5 -206 c 128,-1,56
 -107 -220 -107 -220 -86 -220 c 0,26,27
109 29 m 1,57,-1
 171 281 l 1,58,59
 188 311 188 311 214.5 343.5 c 128,-1,60
 241 376 241 376 274 398.5 c 128,-1,61
 307 421 307 421 342 421 c 0,62,63
 394 421 394 421 418 386 c 128,-1,64
 442 351 442 351 442 293 c 0,65,66
 442 244 442 244 425 191 c 128,-1,67
 408 138 408 138 375.5 92.5 c 128,-1,68
 343 47 343 47 298 19 c 128,-1,69
 253 -9 253 -9 197 -9 c 0,70,71
 172 -9 172 -9 149 0.5 c 128,-1,72
 126 10 126 10 109 29 c 1,57,-1
126 79 m 0,73,74
 126 56 126 56 144.5 38.5 c 128,-1,75
 163 21 163 21 196 21 c 0,76,77
 234 21 234 21 264.5 47.5 c 128,-1,78
 295 74 295 74 316.5 116 c 128,-1,79
 338 158 338 158 350 205.5 c 128,-1,80
 362 253 362 253 362 294 c 0,81,82
 362 376 362 376 318 376 c 0,83,84
 287 376 287 376 258.5 351.5 c 128,-1,85
 230 327 230 327 205.5 289 c 128,-1,86
 181 251 181 251 163.5 209.5 c 128,-1,87
 146 168 146 168 136 132.5 c 128,-1,88
 126 97 126 97 126 79 c 0,73,74
354 29 m 1,89,-1
 416 281 l 1,90,91
 433 311 433 311 459.5 343.5 c 128,-1,92
 486 376 486 376 519 398.5 c 128,-1,93
 552 421 552 421 587 421 c 0,94,95
 639 421 639 421 663 386 c 128,-1,96
 687 351 687 351 687 293 c 0,97,98
 687 244 687 244 670 191 c 128,-1,99
 653 138 653 138 620.5 92.5 c 128,-1,100
 588 47 588 47 543 19 c 128,-1,101
 498 -9 498 -9 442 -9 c 0,102,103
 417 -9 417 -9 394 0.5 c 128,-1,104
 371 10 371 10 354 29 c 1,89,-1
371 79 m 0,105,106
 371 56 371 56 389.5 38.5 c 128,-1,107
 408 21 408 21 441 21 c 0,108,109
 479 21 479 21 509.5 47.5 c 128,-1,110
 540 74 540 74 561.5 116 c 128,-1,111
 583 158 583 158 595 205.5 c 128,-1,112
 607 253 607 253 607 294 c 0,113,114
 607 376 607 376 563 376 c 0,115,116
 532 376 532 376 503.5 351.5 c 128,-1,117
 475 327 475 327 450.5 289 c 128,-1,118
 426 251 426 251 408.5 209.5 c 128,-1,119
 391 168 391 168 381 132.5 c 128,-1,120
 371 97 371 97 371 79 c 0,105,106
EndSplineSet
Validated: 1048581
EndChar

StartChar: digit_ten
Encoding: 123 57466 73
Width: 488
GlyphClass: 2
Flags: W
AnchorPoint: "TehtaAbove" 380 550 basechar 0
AnchorPoint: "TehtaBelow" 205 -125 basechar 0
LayerCount: 2
Fore
SplineSet
116 166 m 1,0,1
 105 138 105 138 105 112 c 0,2,3
 105 74 105 74 130.5 46.5 c 128,-1,4
 156 19 156 19 208 19 c 0,5,6
 263 19 263 19 296 49.5 c 128,-1,7
 329 80 329 80 329 129 c 0,8,9
 329 164 329 164 313 190 c 128,-1,10
 297 216 297 216 271.5 236.5 c 128,-1,11
 246 257 246 257 217.5 276.5 c 128,-1,12
 189 296 189 296 163.5 319 c 128,-1,13
 138 342 138 342 122 372.5 c 128,-1,14
 106 403 106 403 106 445 c 0,15,16
 106 495 106 495 130 534.5 c 128,-1,17
 154 574 154 574 198 597.5 c 128,-1,18
 242 621 242 621 302 621 c 1,19,-1
 297 590 l 1,20,21
 251 590 251 590 216.5 563 c 128,-1,22
 182 536 182 536 182 483 c 0,23,24
 182 446 182 446 198.5 419 c 128,-1,25
 215 392 215 392 240.5 370.5 c 128,-1,26
 266 349 266 349 295.5 329 c 128,-1,27
 325 309 325 309 350.5 286 c 128,-1,28
 376 263 376 263 392.5 233 c 128,-1,29
 409 203 409 203 409 161 c 0,30,31
 409 110 409 110 382 70.5 c 128,-1,32
 355 31 355 31 308 8.5 c 128,-1,33
 261 -14 261 -14 200 -14 c 0,34,35
 141 -14 141 -14 101.5 5.5 c 128,-1,36
 62 25 62 25 43 54.5 c 128,-1,37
 24 84 24 84 24 113 c 0,38,39
 24 141 24 141 40 159.5 c 128,-1,40
 56 178 56 178 79 178 c 0,41,42
 97 178 97 178 116 166 c 1,0,1
EndSplineSet
Validated: 1048577
EndChar

StartChar: digit_eleven
Encoding: 124 57467 74
Width: 464
GlyphClass: 2
Flags: W
AnchorPoint: "TehtaBelow" 120 -300 basechar 0
LayerCount: 2
Fore
SplineSet
106 166 m 1,0,1
 95 138 95 138 95 112 c 0,2,3
 95 74 95 74 120.5 46.5 c 128,-1,4
 146 19 146 19 198 19 c 0,5,6
 253 19 253 19 286 49.5 c 128,-1,7
 319 80 319 80 319 129 c 0,8,9
 319 164 319 164 303 190 c 128,-1,10
 287 216 287 216 261.5 236.5 c 128,-1,11
 236 257 236 257 207.5 276.5 c 128,-1,12
 179 296 179 296 153.5 319 c 128,-1,13
 128 342 128 342 112 372.5 c 128,-1,14
 96 403 96 403 96 445 c 0,15,16
 96 495 96 495 120 534.5 c 128,-1,17
 144 574 144 574 188 597.5 c 128,-1,18
 232 621 232 621 292 621 c 1,19,-1
 287 590 l 1,20,21
 241 590 241 590 206.5 563 c 128,-1,22
 172 536 172 536 172 483 c 0,23,24
 172 446 172 446 188.5 419 c 128,-1,25
 205 392 205 392 230.5 370.5 c 128,-1,26
 256 349 256 349 285.5 329 c 128,-1,27
 315 309 315 309 340.5 286 c 128,-1,28
 366 263 366 263 382.5 233 c 128,-1,29
 399 203 399 203 399 161 c 0,30,31
 399 110 399 110 372 70.5 c 128,-1,32
 345 31 345 31 298 8.5 c 128,-1,33
 251 -14 251 -14 190 -14 c 0,34,35
 131 -14 131 -14 91.5 5.5 c 128,-1,36
 52 25 52 25 33 54.5 c 128,-1,37
 14 84 14 84 14 113 c 0,38,39
 14 141 14 141 30 159.5 c 128,-1,40
 46 178 46 178 69 178 c 0,41,42
 87 178 87 178 106 166 c 1,0,1
26 -74 m 1,43,44
 15 -102 15 -102 15 -128 c 0,45,46
 15 -166 15 -166 40.5 -193.5 c 128,-1,47
 66 -221 66 -221 118 -221 c 0,48,49
 173 -221 173 -221 206 -190.5 c 128,-1,50
 239 -160 239 -160 239 -111 c 0,51,52
 239 -76 239 -76 223 -50 c 128,-1,53
 207 -24 207 -24 181 -4 c 1,54,-1
 274 26 l 2,55,56
 277 23 277 23 281.5 19.5 c 128,-1,57
 286 16 286 16 287 15 c 128,-1,58
 288 14 288 14 290.5 11.5 c 128,-1,59
 293 9 293 9 294.5 7 c 128,-1,60
 296 5 296 5 298 1.5 c 128,-1,61
 300 -2 300 -2 302 -7 c 0,62,63
 318 -37 318 -37 319 -79 c 0,64,65
 319 -130 319 -130 292 -169.5 c 128,-1,66
 265 -209 265 -209 218 -231.5 c 128,-1,67
 171 -254 171 -254 110 -254 c 0,68,69
 51 -254 51 -254 11.5 -234.5 c 128,-1,70
 -28 -215 -28 -215 -47 -185.5 c 128,-1,71
 -66 -156 -66 -156 -66 -127 c 0,72,73
 -66 -99 -66 -99 -50 -80.5 c 128,-1,74
 -34 -62 -34 -62 -11 -62 c 0,75,76
 7 -62 7 -62 26 -74 c 1,43,44
EndSplineSet
Validated: 1048581
EndChar

StartChar: digit_twelve
Encoding: 125 57468 75
Width: 444
GlyphClass: 2
Flags: W
AnchorPoint: "TehtaBelow" 140 -300 basechar 0
LayerCount: 2
Fore
SplineSet
114 -151 m 0,0,1
 151 -151 151 -151 181 -128.5 c 128,-1,2
 211 -106 211 -106 235 -68.5 c 128,-1,3
 259 -31 259 -31 276.5 15 c 128,-1,4
 294 61 294 61 305 108 c 1,5,-1
 301 109 l 1,6,7
 250 49 250 49 177 49 c 0,8,9
 117 49 117 49 78.5 87 c 128,-1,10
 40 125 40 125 40 196 c 0,11,12
 40 256 40 256 68 306 c 128,-1,13
 96 356 96 356 142.5 386 c 128,-1,14
 189 416 189 416 243 416 c 0,15,16
 316 416 316 416 356 366.5 c 128,-1,17
 396 317 396 317 396 222 c 0,18,19
 396 152 396 152 374.5 81 c 128,-1,20
 353 10 353 10 314 -49.5 c 128,-1,21
 275 -109 275 -109 222.5 -145 c 128,-1,22
 170 -181 170 -181 108 -181 c 0,23,24
 81 -181 81 -181 52.5 -173 c 128,-1,25
 24 -165 24 -165 5 -147 c 128,-1,26
 -14 -129 -14 -129 -14 -101 c 0,27,28
 -14 -76 -14 -76 0 -64.5 c 128,-1,29
 14 -53 14 -53 29 -53 c 0,30,31
 34 -53 34 -53 39.5 -54 c 128,-1,32
 45 -55 45 -55 49 -57 c 1,33,34
 48 -113 48 -113 67.5 -132 c 128,-1,35
 87 -151 87 -151 114 -151 c 0,0,1
119 193 m 0,36,37
 119 147 119 147 139 115.5 c 128,-1,38
 159 84 159 84 197 84 c 0,39,40
 221 84 221 84 249.5 99.5 c 128,-1,41
 278 115 278 115 299 151.5 c 128,-1,42
 320 188 320 188 320 251 c 0,43,44
 320 284 320 284 312.5 315 c 128,-1,45
 305 346 305 346 288 366.5 c 128,-1,46
 271 387 271 387 242 387 c 0,47,48
 211 387 211 387 188 368 c 128,-1,49
 165 349 165 349 149.5 319 c 128,-1,50
 134 289 134 289 126.5 255.5 c 128,-1,51
 119 222 119 222 119 193 c 0,36,37
EndSplineSet
Validated: 1048609
EndChar

StartChar: uni10FB
Encoding: 3 4347 76
Width: 286
GlyphClass: 1
Flags: W
LayerCount: 2
Fore
SplineSet
66 103 m 0
 87 102 87 102 100 90 c 0
 113 78 113 78 113 56 c 0
 114 33 114 33 98 10 c 0
 82 -13 82 -13 55 -13 c 0
 36 -14 36 -14 21 0 c 0
 6 14 6 14 6 38 c 0
 6 62 6 62 22 82 c 0
 38 102 38 102 66 103 c 0
140 402 m 0
 161 402 161 402 174 390 c 0
 187 378 187 378 187 355 c 0
 188 332 188 332 172 309 c 0
 156 286 156 286 129 286 c 0
 110 286 110 286 95 300 c 0
 80 314 80 314 80 337 c 0
 80 362 80 362 96 382 c 0
 112 402 112 402 140 402 c 0
EndSplineSet
Refer: 77 57440 N 1 0 0 1 136 -28 0
Validated: 33
EndChar

StartChar: pusta
Encoding: 100 57440 77
Width: 252
GlyphClass: 1
Flags: W
LayerCount: 2
Fore
SplineSet
101 272 m 0,0,1
 122 272 122 272 135 259.5 c 128,-1,2
 148 247 148 247 148 225 c 0,3,4
 148 202 148 202 132.5 179 c 128,-1,5
 117 156 117 156 90 156 c 0,6,7
 71 156 71 156 56 169.5 c 128,-1,8
 41 183 41 183 41 207 c 128,-1,9
 41 231 41 231 56.5 251.5 c 128,-1,10
 72 272 72 272 101 272 c 0,0,1
EndSplineSet
Validated: 1
EndChar

StartChar: pusta_double
Encoding: 101 57441 78
Width: 292
GlyphClass: 1
Flags: W
LayerCount: 2
Fore
SplineSet
80 103 m 0,0,1
 101 103 101 103 114 90.5 c 128,-1,2
 127 78 127 78 127 56 c 0,3,4
 127 33 127 33 111.5 10 c 128,-1,5
 96 -13 96 -13 69 -13 c 0,6,7
 50 -13 50 -13 35 0.5 c 128,-1,8
 20 14 20 14 20 38 c 128,-1,9
 20 62 20 62 35.5 82.5 c 128,-1,10
 51 103 51 103 80 103 c 0,0,1
154 402 m 0,11,12
 175 402 175 402 188 389.5 c 128,-1,13
 201 377 201 377 201 355 c 0,14,15
 201 332 201 332 185.5 309 c 128,-1,16
 170 286 170 286 143 286 c 0,17,18
 124 286 124 286 109 299.5 c 128,-1,19
 94 313 94 313 94 337 c 128,-1,20
 94 361 94 361 109.5 381.5 c 128,-1,21
 125 402 125 402 154 402 c 0,11,12
EndSplineSet
Validated: 1
EndChar

StartChar: pusta_triple
Encoding: 102 57442 79
Width: 220
GlyphClass: 1
Flags: W
LayerCount: 2
Fore
SplineSet
47 88 m 0,0,1
 62 88 62 88 73 77.5 c 128,-1,2
 84 67 84 67 84 50 c 0,3,4
 84 32 84 32 71 15 c 128,-1,5
 58 -2 58 -2 36 -2 c 0,6,7
 22 -2 22 -2 10 9 c 128,-1,8
 -2 20 -2 20 -2 39 c 128,-1,9
 -2 58 -2 58 11.5 73 c 128,-1,10
 25 88 25 88 47 88 c 0,0,1
94 278 m 0,11,12
 109 278 109 278 120 267.5 c 128,-1,13
 131 257 131 257 131 240 c 0,14,15
 131 222 131 222 118 205 c 128,-1,16
 105 188 105 188 83 188 c 0,17,18
 69 188 69 188 57 199 c 128,-1,19
 45 210 45 210 45 229 c 128,-1,20
 45 248 45 248 58.5 263 c 128,-1,21
 72 278 72 278 94 278 c 0,11,12
94 278 m 0,22,23
 109 278 109 278 120 267.5 c 128,-1,24
 131 257 131 257 131 240 c 0,25,26
 131 222 131 222 118 205 c 128,-1,27
 105 188 105 188 83 188 c 0,28,29
 69 188 69 188 57 199 c 128,-1,30
 45 210 45 210 45 229 c 128,-1,31
 45 248 45 248 58.5 263 c 128,-1,32
 72 278 72 278 94 278 c 0,22,23
141 468 m 4,33,34
 156 468 156 468 167 457.5 c 132,-1,35
 178 447 178 447 178 430 c 4,36,37
 178 412 178 412 165 395 c 132,-1,38
 152 378 152 378 130 378 c 4,39,40
 116 378 116 378 104 389 c 132,-1,41
 92 400 92 400 92 419 c 132,-1,42
 92 438 92 438 105.5 453 c 132,-1,43
 119 468 119 468 141 468 c 4,33,34
EndSplineSet
Validated: 5
EndChar

StartChar: pusta_quadruple
Encoding: 103 57443 80
Width: 292
GlyphClass: 1
Flags: W
LayerCount: 2
Fore
SplineSet
80 103 m 0
 101 102 101 102 114 90 c 0
 127 78 127 78 127 56 c 0
 128 33 128 33 112 10 c 0
 96 -13 96 -13 69 -13 c 0
 50 -14 50 -14 35 0 c 0
 20 14 20 14 20 38 c 0
 20 62 20 62 36 82 c 0
 52 102 52 102 80 103 c 0
154 402 m 0
 175 402 175 402 188 390 c 0
 201 378 201 378 201 355 c 0
 202 332 202 332 186 309 c 0
 170 286 170 286 143 286 c 0
 124 286 124 286 109 300 c 0
 94 314 94 314 94 337 c 0
 94 362 94 362 110 382 c 0
 126 402 126 402 154 402 c 0
EndSplineSet
Refer: 77 57440 S 1 0 0 1 -90 -18 0
Refer: 77 57440 S 1 0 0 1 150 -18 0
Validated: 32801
EndChar

StartChar: pusta_quintuple
Encoding: 104 57444 81
Width: 292
GlyphClass: 1
Flags: W
LayerCount: 2
Fore
SplineSet
80 103 m 0
 101 102 101 102 114 90 c 0
 127 78 127 78 127 56 c 0
 128 33 128 33 112 10 c 0
 96 -13 96 -13 69 -13 c 0
 50 -14 50 -14 35 0 c 0
 20 14 20 14 20 38 c 0
 20 62 20 62 36 82 c 0
 52 102 52 102 80 103 c 0
154 402 m 0
 175 402 175 402 188 390 c 0
 201 378 201 378 201 355 c 0
 202 332 202 332 186 309 c 0
 170 286 170 286 143 286 c 0
 124 286 124 286 109 300 c 0
 94 314 94 314 94 337 c 0
 94 362 94 362 110 382 c 0
 126 402 126 402 154 402 c 0
EndSplineSet
Refer: 77 57440 N 1 0 0 1 20 -18 0
Refer: 77 57440 N 1 0 0 1 -120 -18 0
Refer: 77 57440 S 1 0 0 1 160 -18 0
Validated: 32801
EndChar

StartChar: tengwa_exclamation
Encoding: 105 57445 82
Width: 264
GlyphClass: 1
Flags: W
LayerCount: 2
Fore
SplineSet
149 348 m 0,0,1
 141 314 141 314 131 271 c 128,-1,2
 121 228 121 228 110 183.5 c 128,-1,3
 99 139 99 139 89.5 102.5 c 128,-1,4
 80 66 80 66 74 44 c 0,5,6
 61 -4 61 -4 40.5 -41.5 c 128,-1,7
 20 -79 20 -79 -7.5 -100 c 128,-1,8
 -35 -121 -35 -121 -73 -121 c 0,9,10
 -103 -121 -103 -121 -120.5 -108 c 128,-1,11
 -138 -95 -138 -95 -138 -75 c 0,12,13
 -138 -60 -138 -60 -127.5 -51.5 c 128,-1,14
 -117 -43 -117 -43 -103 -43 c 0,15,16
 -90 -43 -90 -43 -78 -49 c 1,17,18
 -79 -54 -79 -54 -80.5 -61.5 c 128,-1,19
 -82 -69 -82 -69 -82 -76 c 0,20,21
 -82 -85 -82 -85 -78 -92.5 c 128,-1,22
 -74 -100 -74 -100 -63 -100 c 0,23,24
 -44 -100 -44 -100 -30 -70 c 128,-1,25
 -16 -40 -16 -40 1 24 c 0,26,27
 15 76 15 76 33.5 154 c 128,-1,28
 52 232 52 232 76 338 c 0,29,30
 92 410 92 410 133.5 449.5 c 128,-1,31
 175 489 175 489 241 489 c 0,32,33
 283 489 283 489 302 474 c 128,-1,34
 321 459 321 459 321 443 c 0,35,36
 321 428 321 428 311 418 c 128,-1,37
 301 408 301 408 286 408 c 0,38,39
 272 408 272 408 260 414 c 1,40,41
 262 421 262 421 262 429 c 0,42,43
 262 447 262 447 254 457.5 c 128,-1,44
 246 468 246 468 229 468 c 0,45,46
 202 468 202 468 183 442 c 128,-1,47
 164 416 164 416 149 348 c 0,0,1
EndSplineSet
Validated: 1
EndChar

StartChar: tengwa_question
Encoding: 106 57446 83
Width: 516
GlyphClass: 1
Flags: W
LayerCount: 2
Fore
SplineSet
481 545 m 0,0,1
 481 505 481 505 465.5 479.5 c 128,-1,2
 450 454 450 454 427 436.5 c 128,-1,3
 404 419 404 419 381.5 405.5 c 128,-1,4
 359 392 359 392 343.5 376 c 128,-1,5
 328 360 328 360 328 336 c 0,6,7
 328 309 328 309 345.5 286.5 c 128,-1,8
 363 264 363 264 386 241 c 128,-1,9
 409 218 409 218 426.5 188.5 c 128,-1,10
 444 159 444 159 444 119 c 0,11,12
 444 77 444 77 422.5 47.5 c 128,-1,13
 401 18 401 18 366.5 2 c 128,-1,14
 332 -14 332 -14 293 -14 c 0,15,16
 247 -14 247 -14 218 -0.5 c 128,-1,17
 189 13 189 13 175.5 33 c 128,-1,18
 162 53 162 53 162 72 c 128,-1,19
 162 91 162 91 173.5 104.5 c 128,-1,20
 185 118 185 118 205 118 c 0,21,22
 213 118 213 118 221.5 115 c 128,-1,23
 230 112 230 112 237 104 c 1,24,25
 234 95 234 95 232 85.5 c 128,-1,26
 230 76 230 76 230 68 c 0,27,28
 230 46 230 46 244.5 30.5 c 128,-1,29
 259 15 259 15 295 15 c 0,30,31
 342 15 342 15 358 38 c 128,-1,32
 374 61 374 61 374 95 c 0,33,34
 374 128 374 128 357.5 153 c 128,-1,35
 341 178 341 178 319.5 200 c 128,-1,36
 298 222 298 222 281.5 246.5 c 128,-1,37
 265 271 265 271 265 303 c 0,38,39
 265 333 265 333 277.5 353 c 128,-1,40
 290 373 290 373 309 387 c 128,-1,41
 328 401 328 401 347 413 c 0,42,43
 376 431 376 431 394.5 458 c 128,-1,44
 413 485 413 485 413 537 c 0,45,46
 413 576 413 576 394.5 606.5 c 128,-1,47
 376 637 376 637 334 637 c 0,48,49
 296 637 296 637 274 616.5 c 128,-1,50
 252 596 252 596 236.5 549 c 128,-1,51
 221 502 221 502 203 421 c 0,52,53
 183 330 183 330 166 260.5 c 128,-1,54
 149 191 149 191 133.5 129 c 128,-1,55
 118 67 118 67 100 0 c 0,56,57
 69 -115 69 -115 22 -181 c 128,-1,58
 -25 -247 -25 -247 -103 -247 c 0,59,60
 -148 -247 -148 -247 -171 -230 c 128,-1,61
 -194 -213 -194 -213 -194 -188 c 0,62,63
 -194 -166 -194 -166 -180.5 -154.5 c 128,-1,64
 -167 -143 -167 -143 -148 -143 c 0,65,66
 -136 -143 -136 -143 -125 -147 c 1,67,68
 -126 -152 -126 -152 -126.5 -157 c 128,-1,69
 -127 -162 -127 -162 -127 -167 c 0,70,71
 -127 -189 -127 -189 -119 -203 c 128,-1,72
 -111 -217 -111 -217 -91 -217 c 0,73,74
 -51 -217 -51 -217 -27.5 -172 c 128,-1,75
 -4 -127 -4 -127 21 -30 c 0,76,77
 46 68 46 68 69 163.5 c 128,-1,78
 92 259 92 259 114 361 c 2,79,-1
 122 397 l 1,80,-1
 133 445 l 2,81,82
 158 552 158 552 209.5 608.5 c 128,-1,83
 261 665 261 665 342 665 c 0,84,85
 390 665 390 665 421 647.5 c 128,-1,86
 452 630 452 630 466.5 602.5 c 128,-1,87
 481 575 481 575 481 545 c 0,0,1
EndSplineSet
Validated: 1
EndChar

StartChar: tengwa_parenthesis
Encoding: 107 57447 84
Width: 422
GlyphClass: 1
Flags: W
LayerCount: 2
Fore
SplineSet
41 -1 m 2,0,-1
 162 482 l 2,1,2
 168 508 168 508 172 525.5 c 128,-1,3
 176 543 176 543 176 554 c 0,4,5
 176 574 176 574 162.5 578.5 c 128,-1,6
 149 583 149 583 115 585 c 0,7,8
 113 585 113 585 113 591 c 0,9,10
 113 596 113 596 115 603 c 128,-1,11
 117 610 117 610 121 610 c 0,12,13
 130 610 130 610 151 609 c 128,-1,14
 172 608 172 608 195.5 607.5 c 128,-1,15
 219 607 219 607 233 607 c 0,16,17
 259 607 259 607 292.5 608.5 c 128,-1,18
 326 610 326 610 342 610 c 0,19,20
 344 610 344 610 344 604 c 0,21,22
 344 599 344 599 342 592 c 128,-1,23
 340 585 340 585 337 585 c 0,24,25
 304 583 304 583 288.5 577 c 128,-1,26
 273 571 273 571 265 550.5 c 128,-1,27
 257 530 257 530 245 482 c 2,28,-1
 136 46 l 2,29,30
 108 -68 108 -68 53.5 -129.5 c 128,-1,31
 -1 -191 -1 -191 -74 -191 c 0,32,33
 -129 -191 -129 -191 -151.5 -172 c 128,-1,34
 -174 -153 -174 -153 -174 -131 c 0,35,36
 -174 -112 -174 -112 -161 -97 c 128,-1,37
 -148 -82 -148 -82 -124 -82 c 0,38,39
 -113 -82 -113 -82 -100 -87 c 1,40,41
 -101 -94 -101 -94 -101.5 -99.5 c 128,-1,42
 -102 -105 -102 -105 -102 -110 c 0,43,44
 -102 -157 -102 -157 -60 -157 c 0,45,46
 -20 -157 -20 -157 1 -115.5 c 128,-1,47
 22 -74 22 -74 41 -1 c 2,0,-1
346 33 m 0,48,49
 350 33 350 33 357 26 c 128,-1,50
 364 19 364 19 364 16 c 0,51,52
 364 15 364 15 354 3.5 c 128,-1,53
 344 -8 344 -8 326 -23 c 128,-1,54
 308 -38 308 -38 284.5 -49 c 128,-1,55
 261 -60 261 -60 233 -60 c 0,56,57
 204 -60 204 -60 188.5 -44.5 c 128,-1,58
 173 -29 173 -29 173 -2 c 0,59,60
 173 13 173 13 182.5 57 c 128,-1,61
 192 101 192 101 207.5 162 c 128,-1,62
 223 223 223 223 241 290 c 128,-1,63
 259 357 259 357 275.5 418.5 c 128,-1,64
 292 480 292 480 305 525.5 c 128,-1,65
 318 571 318 571 322 588 c 0,66,67
 326 601 326 601 330 605 c 128,-1,68
 334 609 334 609 346 611 c 0,69,70
 365 614 365 614 380.5 615 c 128,-1,71
 396 616 396 616 399 616 c 0,72,73
 407 616 407 616 407 610 c 0,74,75
 407 606 407 606 402 591 c 0,76,77
 389 552 389 552 373 497.5 c 128,-1,78
 357 443 357 443 339.5 382 c 128,-1,79
 322 321 322 321 306 260.5 c 128,-1,80
 290 200 290 200 276.5 148 c 128,-1,81
 263 96 263 96 255.5 60 c 128,-1,82
 248 24 248 24 248 11 c 0,83,84
 248 2 248 2 252.5 -6 c 128,-1,85
 257 -14 257 -14 269 -14 c 0,86,87
 289 -14 289 -14 306 -2 c 128,-1,88
 323 10 323 10 334 21.5 c 128,-1,89
 345 33 345 33 346 33 c 0,48,49
EndSplineSet
Validated: 5
EndChar

StartChar: tengwa_section
Encoding: 108 57448 85
Width: 627
GlyphClass: 1
Flags: W
LayerCount: 2
Fore
SplineSet
362.5 150 m 128,-1,1
 336 155 336 155 296 165 c 0,2,3
 255 175 255 175 229.5 180 c 128,-1,4
 204 185 204 185 177 185 c 0,5,6
 143 185 143 185 122 179 c 128,-1,7
 101 173 101 173 83 159 c 1,8,9
 78 161 78 161 73.5 167 c 128,-1,10
 69 173 69 173 69 177 c 0,11,12
 103 217 103 217 137.5 236 c 128,-1,13
 172 255 172 255 221 255 c 0,14,15
 248 255 248 255 273.5 250 c 128,-1,16
 299 245 299 245 340 235 c 0,17,18
 380 225 380 225 406.5 220 c 128,-1,19
 433 215 433 215 459 215 c 0,20,21
 493 215 493 215 514 221 c 128,-1,22
 535 227 535 227 553 241 c 1,23,24
 558 239 558 239 562.5 233 c 128,-1,25
 567 227 567 227 567 223 c 0,26,27
 533 183 533 183 498.5 164 c 128,-1,28
 464 145 464 145 415 145 c 0,29,0
 389 145 389 145 362.5 150 c 128,-1,1
EndSplineSet
Validated: 1
EndChar

StartChar: tengwa_section_double
Encoding: 109 57449 86
Width: 643
GlyphClass: 1
Flags: W
LayerCount: 2
Fore
SplineSet
388.5 245 m 132,-1,1
 362 250 362 250 322 260 c 4,2,3
 281 270 281 270 255.5 275 c 132,-1,4
 230 280 230 280 203 280 c 4,5,6
 169 280 169 280 148 274 c 132,-1,7
 127 268 127 268 109 254 c 5,8,9
 104 256 104 256 99.5 262 c 132,-1,10
 95 268 95 268 95 272 c 4,11,12
 129 312 129 312 163.5 331 c 132,-1,13
 198 350 198 350 247 350 c 4,14,15
 274 350 274 350 299.5 345 c 132,-1,16
 325 340 325 340 366 330 c 4,17,18
 406 320 406 320 432.5 315 c 132,-1,19
 459 310 459 310 485 310 c 4,20,21
 519 310 519 310 540 316 c 132,-1,22
 561 322 561 322 579 336 c 5,23,24
 584 334 584 334 588.5 328 c 132,-1,25
 593 322 593 322 593 318 c 4,26,27
 559 278 559 278 524.5 259 c 132,-1,28
 490 240 490 240 441 240 c 4,29,0
 415 240 415 240 388.5 245 c 132,-1,1
93.5 141 m 128,-1,31
 128 160 128 160 177 160 c 0,32,33
 204 160 204 160 229.5 155 c 128,-1,34
 255 150 255 150 296 140 c 0,35,36
 336 130 336 130 362.5 125 c 128,-1,37
 389 120 389 120 415 120 c 0,38,39
 449 120 449 120 470 126 c 128,-1,40
 491 132 491 132 509 146 c 1,41,42
 514 144 514 144 518.5 138 c 128,-1,43
 523 132 523 132 523 128 c 0,44,45
 489 88 489 88 454.5 69 c 128,-1,46
 420 50 420 50 371 50 c 0,47,48
 345 50 345 50 318.5 55 c 128,-1,49
 292 60 292 60 252 70 c 0,50,51
 211 80 211 80 185.5 85 c 128,-1,52
 160 90 160 90 133 90 c 0,53,54
 99 90 99 90 78 84 c 128,-1,55
 57 78 57 78 39 64 c 1,56,57
 34 66 34 66 29.5 72 c 128,-1,58
 25 78 25 78 25 82 c 0,59,30
 59 122 59 122 93.5 141 c 128,-1,31
EndSplineSet
Validated: 1
EndChar

StartChar: tengwa_quotation_up
Encoding: 110 57450 87
Width: 266
GlyphClass: 1
Flags: W
LayerCount: 2
Fore
SplineSet
29 506 m 6,0,1
 18 506 18 506 18 512 c 4,2,3
 18 513 18 513 20.5 533 c 132,-1,4
 23 553 23 553 26.5 583 c 132,-1,5
 30 613 30 613 34 643 c 132,-1,6
 38 673 38 673 40.5 694.5 c 132,-1,7
 43 716 43 716 44 719 c 4,8,9
 47 727 47 727 56 727 c 6,10,-1
 118 727 l 6,11,12
 127 727 127 727 127 720 c 4,13,14
 127 718 127 718 118.5 695.5 c 132,-1,15
 110 673 110 673 97.5 640.5 c 132,-1,16
 85 608 85 608 72 574 c 132,-1,17
 59 540 59 540 50 515 c 4,18,19
 48 509 48 509 45.5 507.5 c 132,-1,20
 43 506 43 506 35 506 c 6,21,-1
 29 506 l 6,0,1
159 506 m 6,22,23
 148 506 148 506 148 512 c 4,24,25
 148 513 148 513 150.5 533 c 132,-1,26
 153 553 153 553 156.5 583 c 132,-1,27
 160 613 160 613 164 643 c 132,-1,28
 168 673 168 673 170.5 694.5 c 132,-1,29
 173 716 173 716 174 719 c 4,30,31
 177 727 177 727 186 727 c 6,32,-1
 248 727 l 6,33,34
 257 727 257 727 257 720 c 4,35,36
 257 718 257 718 248.5 695.5 c 132,-1,37
 240 673 240 673 227.5 640.5 c 132,-1,38
 215 608 215 608 202 574 c 132,-1,39
 189 540 189 540 180 515 c 4,40,41
 178 509 178 509 175.5 507.5 c 132,-1,42
 173 506 173 506 165 506 c 6,43,-1
 159 506 l 6,22,23
EndSplineSet
Validated: 1
EndChar

StartChar: uni204A
Encoding: 5 8266 90
Width: 397
GlyphClass: 1
Flags: W
AnchorPoint: "TehtaBelow" 135 -225 basechar 0
AnchorPoint: "TehtaAbove" 230 550 basechar 0
LayerCount: 2
Fore
SplineSet
186 -116 m 1,0,1
 180 -122 180 -122 171 -126.5 c 128,-1,2
 162 -131 162 -131 152 -131 c 0,3,4
 136 -131 136 -131 136 -116 c 0,5,6
 136 -106 136 -106 147 -71.5 c 128,-1,7
 158 -37 158 -37 175.5 11.5 c 128,-1,8
 193 60 193 60 212.5 112.5 c 128,-1,9
 232 165 232 165 249.5 211.5 c 128,-1,10
 267 258 267 258 278 287.5 c 128,-1,11
 289 317 289 317 289 319 c 0,12,13
 289 326 289 326 277 326 c 0,14,15
 270 326 270 326 245.5 323.5 c 128,-1,16
 221 321 221 321 187.5 318.5 c 128,-1,17
 154 316 154 316 120 316 c 0,18,19
 88 316 88 316 64.5 323.5 c 128,-1,20
 41 331 41 331 41 356 c 0,21,22
 41 375 41 375 57 401 c 1,23,24
 74 397 74 397 102 396 c 128,-1,25
 130 395 130 395 161 395 c 0,26,27
 232 395 232 395 273.5 397.5 c 128,-1,28
 315 400 315 400 325 400 c 0,29,30
 340 400 340 400 344 394 c 128,-1,31
 348 388 348 388 348 381 c 0,32,33
 348 370 348 370 325 313 c 128,-1,34
 302 256 302 256 265.5 149.5 c 128,-1,35
 229 43 229 43 186 -116 c 1,0,1
EndSplineSet
Validated: 1048577
EndChar

StartChar: uni2E2C
Encoding: 9 11820 93
Width: 440
GlyphClass: 1
Flags: W
LayerCount: 2
Fore
SplineSet
310 103 m 0,0,1
 331 103 331 103 344 90.5 c 128,-1,2
 357 78 357 78 357 56 c 0,3,4
 357 33 357 33 341.5 10 c 128,-1,5
 326 -13 326 -13 299 -13 c 0,6,7
 280 -13 280 -13 265 0.5 c 128,-1,8
 250 14 250 14 250 38 c 128,-1,9
 250 62 250 62 265.5 82.5 c 128,-1,10
 281 103 281 103 310 103 c 0,0,1
384 402 m 0,11,12
 405 402 405 402 418 389.5 c 128,-1,13
 431 377 431 377 431 355 c 0,14,15
 431 332 431 332 415.5 309 c 128,-1,16
 400 286 400 286 373 286 c 0,17,18
 354 286 354 286 339 299.5 c 128,-1,19
 324 313 324 313 324 337 c 128,-1,20
 324 361 324 361 339.5 381.5 c 128,-1,21
 355 402 355 402 384 402 c 0,11,12
80 103 m 0,22,23
 101 103 101 103 114 90.5 c 128,-1,24
 127 78 127 78 127 56 c 0,25,26
 127 33 127 33 111.5 10 c 128,-1,27
 96 -13 96 -13 69 -13 c 0,28,29
 50 -13 50 -13 35 0.5 c 128,-1,30
 20 14 20 14 20 38 c 128,-1,31
 20 62 20 62 35.5 82.5 c 128,-1,32
 51 103 51 103 80 103 c 0,22,23
154 402 m 0,33,34
 175 402 175 402 188 389.5 c 128,-1,35
 201 377 201 377 201 355 c 0,36,37
 201 332 201 332 185.5 309 c 128,-1,38
 170 286 170 286 143 286 c 0,39,40
 124 286 124 286 109 299.5 c 128,-1,41
 94 313 94 313 94 337 c 128,-1,42
 94 361 94 361 109.5 381.5 c 128,-1,43
 125 402 125 402 154 402 c 0,33,34
EndSplineSet
Validated: 1
EndChar

StartChar: uni25CC
Encoding: 8 9676 96
Width: 493
GlyphClass: 2
Flags: W
AnchorPoint: "Anchor-4" 246 400 basechar 0
AnchorPoint: "Anchor-3" 246 0 basechar 0
LayerCount: 2
Fore
SplineSet
314.5 390 m 128,-1,1
 324 400 324 400 340 400 c 256,2,3
 356 400 356 400 365.5 390 c 128,-1,4
 375 380 375 380 375 364 c 256,5,6
 375 348 375 348 365.5 338.5 c 128,-1,7
 356 329 356 329 340 329 c 256,8,9
 324 329 324 329 314.5 338.5 c 128,-1,10
 305 348 305 348 305 364 c 256,11,0
 305 380 305 380 314.5 390 c 128,-1,1
39.5 229.5 m 128,-1,13
 49 239 49 239 65 239 c 256,14,15
 81 239 81 239 90 229.5 c 128,-1,16
 99 220 99 220 99 204 c 0,17,18
 99 187 99 187 90 177.5 c 128,-1,19
 81 168 81 168 65 168 c 256,20,21
 49 168 49 168 39.5 177.5 c 128,-1,22
 30 187 30 187 30 204 c 0,23,12
 30 220 30 220 39.5 229.5 c 128,-1,13
60.5 136 m 128,-1,25
 70 146 70 146 86 146 c 256,26,27
 102 146 102 146 111 136 c 128,-1,28
 120 126 120 126 120 110 c 256,29,30
 120 94 120 94 111 84 c 128,-1,31
 102 74 102 74 86 74 c 256,32,33
 70 74 70 74 60.5 84 c 128,-1,34
 51 94 51 94 51 110 c 256,35,24
 51 126 51 126 60.5 136 c 128,-1,25
60.5 322 m 128,-1,37
 70 332 70 332 86 332 c 256,38,39
 102 332 102 332 111 322 c 128,-1,40
 120 312 120 312 120 296 c 256,41,42
 120 280 120 280 111 270 c 128,-1,43
 102 260 102 260 86 260 c 256,44,45
 70 260 70 260 60.5 270 c 128,-1,46
 51 280 51 280 51 296 c 256,47,36
 51 312 51 312 60.5 322 c 128,-1,37
127.5 390 m 128,-1,49
 137 400 137 400 153 400 c 256,50,51
 169 400 169 400 178.5 390 c 128,-1,52
 188 380 188 380 188 364 c 256,53,54
 188 348 188 348 178.5 338.5 c 128,-1,55
 169 329 169 329 153 329 c 256,56,57
 137 329 137 329 127.5 338.5 c 128,-1,58
 118 348 118 348 118 364 c 256,59,48
 118 380 118 380 127.5 390 c 128,-1,49
128.5 68.5 m 128,-1,61
 138 78 138 78 154 78 c 256,62,63
 170 78 170 78 179.5 68.5 c 128,-1,64
 189 59 189 59 189 43 c 256,65,66
 189 27 189 27 179.5 17 c 128,-1,67
 170 7 170 7 154 7 c 256,68,69
 138 7 138 7 128.5 17 c 128,-1,70
 119 27 119 27 119 43 c 256,71,60
 119 59 119 59 128.5 68.5 c 128,-1,61
221 47.5 m 128,-1,73
 230 57 230 57 246 57 c 256,74,75
 262 57 262 57 271.5 47.5 c 128,-1,76
 281 38 281 38 281 22 c 0,77,78
 281 5 281 5 271.5 -4.5 c 128,-1,79
 262 -14 262 -14 246 -14 c 256,80,81
 230 -14 230 -14 221 -4.5 c 128,-1,82
 212 5 212 5 212 22 c 0,83,72
 212 38 212 38 221 47.5 c 128,-1,73
221 411.5 m 128,-1,85
 230 421 230 421 246 421 c 256,86,87
 262 421 262 421 271.5 411.5 c 128,-1,88
 281 402 281 402 281 385 c 0,89,90
 281 369 281 369 271.5 359.5 c 128,-1,91
 262 350 262 350 246 350 c 256,92,93
 230 350 230 350 221 359.5 c 128,-1,94
 212 369 212 369 212 385 c 0,95,84
 212 402 212 402 221 411.5 c 128,-1,85
313.5 68.5 m 128,-1,97
 323 78 323 78 339 78 c 256,98,99
 355 78 355 78 364.5 68.5 c 128,-1,100
 374 59 374 59 374 43 c 256,101,102
 374 27 374 27 364.5 17 c 128,-1,103
 355 7 355 7 339 7 c 256,104,105
 323 7 323 7 313.5 17 c 128,-1,106
 304 27 304 27 304 43 c 256,107,96
 304 59 304 59 313.5 68.5 c 128,-1,97
382 136 m 128,-1,109
 391 146 391 146 407 146 c 256,110,111
 423 146 423 146 432.5 136 c 128,-1,112
 442 126 442 126 442 110 c 256,113,114
 442 94 442 94 432.5 84 c 128,-1,115
 423 74 423 74 407 74 c 256,116,117
 391 74 391 74 382 84 c 128,-1,118
 373 94 373 94 373 110 c 256,119,108
 373 126 373 126 382 136 c 128,-1,109
382 322 m 128,-1,121
 391 332 391 332 407 332 c 256,122,123
 423 332 423 332 432.5 322 c 128,-1,124
 442 312 442 312 442 296 c 256,125,126
 442 280 442 280 432.5 270 c 128,-1,127
 423 260 423 260 407 260 c 256,128,129
 391 260 391 260 382 270 c 128,-1,130
 373 280 373 280 373 296 c 256,131,120
 373 312 373 312 382 322 c 128,-1,121
403 229.5 m 128,-1,133
 412 239 412 239 428 239 c 256,134,135
 444 239 444 239 453.5 229.5 c 128,-1,136
 463 220 463 220 463 204 c 0,137,138
 463 187 463 187 453.5 177.5 c 128,-1,139
 444 168 444 168 428 168 c 256,140,141
 412 168 412 168 403 177.5 c 128,-1,142
 394 187 394 187 394 204 c 0,143,132
 394 220 394 220 403 229.5 c 128,-1,133
EndSplineSet
Validated: 1
EndChar

StartChar: tripledot_above
Encoding: 73 57408 97
Width: 0
GlyphClass: 4
Flags: W
AnchorPoint: "mkmk_up" -150 550 mark 0
AnchorPoint: "mkmk_up" -100 800 basemark 0
AnchorPoint: "TehtaAbove" -150 550 mark 0
LayerCount: 2
Fore
SplineSet
-126 714 m 0,0,1
 -109 714 -109 714 -97.5 703 c 128,-1,2
 -86 692 -86 692 -86 672 c 128,-1,3
 -86 652 -86 652 -99.5 632 c 128,-1,4
 -113 612 -113 612 -138 612 c 0,5,6
 -154 612 -154 612 -167 624 c 128,-1,7
 -180 636 -180 636 -180 658 c 128,-1,8
 -180 680 -180 680 -165.5 697 c 128,-1,9
 -151 714 -151 714 -126 714 c 0,0,1
-247 492 m 0,10,11
 -263 492 -263 492 -275.5 503.5 c 128,-1,12
 -288 515 -288 515 -288 535 c 128,-1,13
 -288 555 -288 555 -274 572 c 128,-1,14
 -260 589 -260 589 -237 589 c 0,15,16
 -217 589 -217 589 -207 578 c 128,-1,17
 -197 567 -197 567 -197 549 c 0,18,19
 -197 530 -197 530 -210.5 511 c 128,-1,20
 -224 492 -224 492 -247 492 c 0,10,11
-71 492 m 0,21,22
 -87 492 -87 492 -99.5 503.5 c 128,-1,23
 -112 515 -112 515 -112 535 c 128,-1,24
 -112 555 -112 555 -98 572 c 128,-1,25
 -84 589 -84 589 -61 589 c 0,26,27
 -41 589 -41 589 -31 578 c 128,-1,28
 -21 567 -21 567 -21 549 c 0,29,30
 -21 530 -21 530 -34.5 511 c 128,-1,31
 -48 492 -48 492 -71 492 c 0,21,22
EndSplineSet
Validated: 1048577
EndChar

StartChar: doubledot_above
Encoding: 75 57410 99
Width: 0
GlyphClass: 4
Flags: W
AnchorPoint: "mkmk_up" -140 650 basemark 0
AnchorPoint: "mkmk_up" -160 550 mark 0
AnchorPoint: "TehtaAbove" -160 550 mark 0
LayerCount: 2
Fore
SplineSet
-257 492 m 0,0,1
 -273 492 -273 492 -285.5 503.5 c 128,-1,2
 -298 515 -298 515 -298 535 c 128,-1,3
 -298 555 -298 555 -284 572 c 128,-1,4
 -270 589 -270 589 -247 589 c 0,5,6
 -227 589 -227 589 -217 578 c 128,-1,7
 -207 567 -207 567 -207 549 c 0,8,9
 -207 530 -207 530 -220.5 511 c 128,-1,10
 -234 492 -234 492 -257 492 c 0,0,1
-81 492 m 0,11,12
 -97 492 -97 492 -109.5 503.5 c 128,-1,13
 -122 515 -122 515 -122 535 c 128,-1,14
 -122 555 -122 555 -108 572 c 128,-1,15
 -94 589 -94 589 -71 589 c 0,16,17
 -51 589 -51 589 -41 578 c 128,-1,18
 -31 567 -31 567 -31 549 c 0,19,20
 -31 530 -31 530 -44.5 511 c 128,-1,21
 -58 492 -58 492 -81 492 c 0,11,12
EndSplineSet
Validated: 1048577
Ligature2: "Ligatures subtable" amatixe amatixe
LCarets2: 1 0
EndChar

StartChar: amatixe
Encoding: 77 57412 101
Width: 0
GlyphClass: 4
Flags: W
AnchorPoint: "mkmk_up" -90 550 mark 0
AnchorPoint: "mkmk_up" -70 650 basemark 0
AnchorPoint: "TehtaAbove" -90 550 mark 0
LayerCount: 2
Fore
SplineSet
-86 594 m 0,0,1
 -69 594 -69 594 -57.5 583 c 128,-1,2
 -46 572 -46 572 -46 552 c 128,-1,3
 -46 532 -46 532 -59.5 512 c 128,-1,4
 -73 492 -73 492 -98 492 c 0,5,6
 -114 492 -114 492 -127 504 c 128,-1,7
 -140 516 -140 516 -140 538 c 128,-1,8
 -140 560 -140 560 -125.5 577 c 128,-1,9
 -111 594 -111 594 -86 594 c 0,0,1
EndSplineSet
Validated: 1048577
EndChar

StartChar: tecco_above
Encoding: 79 57414 103
Width: 0
GlyphClass: 4
Flags: W
AnchorPoint: "mkmk_up" -140 800 basemark 0
AnchorPoint: "mkmk_up" -190 550 mark 0
AnchorPoint: "TehtaAbove" -190 550 mark 0
LayerCount: 2
Fore
SplineSet
-130 656 m 0,0,1
 -118 656 -118 656 -105.5 645 c 128,-1,2
 -93 634 -93 634 -93 622 c 0,3,4
 -93 612 -93 612 -101.5 602.5 c 128,-1,5
 -110 593 -110 593 -121 584 c 2,6,-1
 -253 466 l 2,7,8
 -257 463 -257 463 -258 462.5 c 128,-1,9
 -259 462 -259 462 -260 462 c 0,10,11
 -264 462 -264 462 -269.5 467.5 c 128,-1,12
 -275 473 -275 473 -275 475 c 0,13,14
 -275 478 -275 478 -270 484 c 2,15,-1
 -179 608 l 2,16,17
 -159 636 -159 636 -149.5 646 c 128,-1,18
 -140 656 -140 656 -130 656 c 0,0,1
EndSplineSet
Validated: 1048577
EndChar

StartChar: tecco_above_double
Encoding: 81 57416 104
Width: 0
GlyphClass: 4
Flags: W
AnchorPoint: "mkmk_up" -170 550 mark 0
AnchorPoint: "mkmk_up" -120 800 basemark 0
AnchorPoint: "TehtaAbove" -170 550 mark 0
LayerCount: 2
Fore
SplineSet
-48 656 m 0,0,1
 -37 656 -37 656 -25 645 c 128,-1,2
 -13 634 -13 634 -13 622 c 0,3,4
 -13 612 -13 612 -21 602.5 c 128,-1,5
 -29 593 -29 593 -40 584 c 2,6,-1
 -170 466 l 2,7,8
 -174 463 -174 463 -175 462.5 c 128,-1,9
 -176 462 -176 462 -177 462 c 0,10,11
 -181 462 -181 462 -186.5 467.5 c 128,-1,12
 -192 473 -192 473 -192 475 c 0,13,14
 -192 478 -192 478 -187 484 c 2,15,-1
 -96 608 l 2,16,17
 -76 635 -76 635 -67 645.5 c 128,-1,18
 -58 656 -58 656 -48 656 c 0,0,1
-178 656 m 0,19,20
 -167 656 -167 656 -155 645 c 128,-1,21
 -143 634 -143 634 -143 622 c 0,22,23
 -143 612 -143 612 -151 602.5 c 128,-1,24
 -159 593 -159 593 -169 584 c 2,25,-1
 -289 466 l 2,26,27
 -293 463 -293 463 -294 462.5 c 128,-1,28
 -295 462 -295 462 -296 462 c 0,29,30
 -300 462 -300 462 -305.5 467.5 c 128,-1,31
 -311 473 -311 473 -311 475 c 0,32,33
 -311 478 -311 478 -306 484 c 2,34,-1
 -224 608 l 2,35,36
 -205 636 -205 636 -196.5 646 c 128,-1,37
 -188 656 -188 656 -178 656 c 0,19,20
EndSplineSet
Validated: 1048577
Ligature2: "Ligatures subtable" tecco_above tecco_above
LCarets2: 1 0
EndChar

StartChar: rightcurl_above
Encoding: 83 57418 107
Width: 0
GlyphClass: 4
Flags: W
AnchorPoint: "mkmk_up" -100 800 basemark 0
AnchorPoint: "mkmk_up" -150 550 mark 0
AnchorPoint: "TehtaAbove" -150 550 mark 0
LayerCount: 2
Fore
SplineSet
-273.5 469 m 128,-1,1
 -280 476 -280 476 -280 480 c 0,2,3
 -235 554 -235 554 -205.5 594 c 128,-1,4
 -176 634 -176 634 -149 653.5 c 128,-1,5
 -122 673 -122 673 -91 673 c 0,6,7
 -57 673 -57 673 -37 652 c 128,-1,8
 -17 631 -17 631 -17 598 c 256,9,10
 -17 565 -17 565 -38 543.5 c 128,-1,11
 -59 522 -59 522 -105 500 c 0,12,13
 -110 500 -110 500 -115.5 506.5 c 128,-1,14
 -121 513 -121 513 -121 518 c 1,15,16
 -100 531 -100 531 -90.5 543.5 c 128,-1,17
 -81 556 -81 556 -81 571 c 0,18,19
 -81 587 -81 587 -91 598 c 128,-1,20
 -101 609 -101 609 -119 609 c 0,21,22
 -142 609 -142 609 -164.5 586 c 128,-1,23
 -187 563 -187 563 -241 492 c 2,24,-1
 -264 462 l 2,25,0
 -267 462 -267 462 -273.5 469 c 128,-1,1
EndSplineSet
Validated: 1048577
EndChar

StartChar: rightcurl_above_double
Encoding: 128 -1 108
Width: 0
GlyphClass: 4
Flags: W
AnchorPoint: "mkmk_up" -220 800 basemark 0
AnchorPoint: "mkmk_up" -270 550 mark 0
AnchorPoint: "TehtaAbove" -270 550 mark 0
LayerCount: 2
Fore
SplineSet
-321.5 469 m 128,-1,1
 -328 476 -328 476 -328 480 c 0,2,3
 -292 541 -292 541 -261 584 c 1,4,5
 -266 603 -266 603 -287 603 c 0,6,7
 -309 603 -309 603 -339.5 573 c 128,-1,8
 -370 543 -370 543 -434 462 c 0,9,10
 -437 462 -437 462 -443.5 469 c 128,-1,11
 -450 476 -450 476 -450 480 c 0,12,13
 -387 581 -387 581 -344.5 624 c 128,-1,14
 -302 667 -302 667 -263 667 c 0,15,16
 -246 667 -246 667 -233 659.5 c 128,-1,17
 -220 652 -220 652 -214 640 c 1,18,19
 -178 673 -178 673 -139 673 c 0,20,21
 -105 673 -105 673 -85 652 c 128,-1,22
 -65 631 -65 631 -65 598 c 256,23,24
 -65 565 -65 565 -86 543.5 c 128,-1,25
 -107 522 -107 522 -153 500 c 0,26,27
 -158 500 -158 500 -163.5 506.5 c 128,-1,28
 -169 513 -169 513 -169 518 c 1,29,30
 -148 531 -148 531 -138.5 543.5 c 128,-1,31
 -129 556 -129 556 -129 571 c 0,32,33
 -129 587 -129 587 -139 598 c 128,-1,34
 -149 609 -149 609 -167 609 c 0,35,36
 -190 609 -190 609 -212.5 586 c 128,-1,37
 -235 563 -235 563 -289 492 c 2,38,-1
 -312 462 l 2,39,0
 -315 462 -315 462 -321.5 469 c 128,-1,1
EndSplineSet
Validated: 1048577
Ligature2: "Ligatures subtable" rightcurl_above rightcurl_above
LCarets2: 1 0
EndChar

StartChar: rightcurl_below
Encoding: 84 57419 109
Width: 0
GlyphClass: 4
Flags: W
AnchorPoint: "mkmk_down" -328 -125 mark 0
AnchorPoint: "mkmk_down" -328 -325 basemark 0
AnchorPoint: "TehtaBelow" -328 -125 mark 0
LayerCount: 2
Fore
SplineSet
-209.5 -62.5 m 128,-1,1
 -207 -70 -207 -70 -207 -77 c 1,2,3
 -315 -109 -315 -109 -358.5 -135.5 c 128,-1,4
 -402 -162 -402 -162 -402 -189 c 0,5,6
 -402 -206 -402 -206 -392 -217 c 128,-1,7
 -382 -228 -382 -228 -364 -228 c 0,8,9
 -343 -228 -343 -228 -322 -207 c 0,10,11
 -317 -207 -317 -207 -312 -213 c 128,-1,12
 -307 -219 -307 -219 -307 -224 c 0,13,14
 -331 -257 -331 -257 -350 -270 c 128,-1,15
 -369 -283 -369 -283 -393 -283 c 0,16,17
 -424 -283 -424 -283 -442 -264.5 c 128,-1,18
 -460 -246 -460 -246 -460 -214 c 0,19,20
 -460 -179 -460 -179 -436.5 -152.5 c 128,-1,21
 -413 -126 -413 -126 -360 -102.5 c 128,-1,22
 -307 -79 -307 -79 -215 -54 c 0,23,0
 -212 -55 -212 -55 -209.5 -62.5 c 128,-1,1
EndSplineSet
Validated: 1048577
EndChar

StartChar: leftcurl_above
Encoding: 85 57420 110
Width: 0
GlyphClass: 4
Flags: W
AnchorPoint: "mkmk_up" -100 800 basemark 0
AnchorPoint: "mkmk_up" -150 550 mark 0
AnchorPoint: "TehtaAbove" -150 550 mark 0
LayerCount: 2
Fore
SplineSet
-267.5 455.5 m 128,-1,1
 -270 463 -270 463 -270 470 c 1,2,3
 -162 502 -162 502 -118.5 528.5 c 128,-1,4
 -75 555 -75 555 -75 582 c 0,5,6
 -75 599 -75 599 -85 610 c 128,-1,7
 -95 621 -95 621 -113 621 c 0,8,9
 -134 621 -134 621 -155 600 c 0,10,11
 -160 600 -160 600 -165 606 c 128,-1,12
 -170 612 -170 612 -170 617 c 0,13,14
 -146 650 -146 650 -127 663 c 128,-1,15
 -108 676 -108 676 -84 676 c 0,16,17
 -53 676 -53 676 -35 657.5 c 128,-1,18
 -17 639 -17 639 -17 607 c 0,19,20
 -17 572 -17 572 -40.5 545.5 c 128,-1,21
 -64 519 -64 519 -117 495.5 c 128,-1,22
 -170 472 -170 472 -262 447 c 0,23,0
 -265 448 -265 448 -267.5 455.5 c 128,-1,1
EndSplineSet
Validated: 1048577
EndChar

StartChar: leftcurl_above_double
Encoding: 129 -1 111
Width: 0
GlyphClass: 4
Flags: W
AnchorPoint: "mkmk_up" -140 800 basemark 0
AnchorPoint: "mkmk_up" -190 550 mark 0
AnchorPoint: "TehtaAbove" -190 550 mark 0
LayerCount: 2
Fore
SplineSet
-378 457 m 128,-1,1
 -381 465 -381 465 -380 470 c 1,2,3
 -291 508 -291 508 -257.5 535 c 128,-1,4
 -224 562 -224 562 -224 583 c 0,5,6
 -224 599 -224 599 -235 609.5 c 128,-1,7
 -246 620 -246 620 -263 620 c 0,8,9
 -283 620 -283 620 -310 598 c 0,10,11
 -315 599 -315 599 -320.5 605 c 128,-1,12
 -326 611 -326 611 -326 617 c 0,13,14
 -301 648 -301 648 -279.5 662 c 128,-1,15
 -258 676 -258 676 -235 676 c 256,16,17
 -212 676 -212 676 -195.5 664.5 c 128,-1,18
 -179 653 -179 653 -173 632 c 1,19,20
 -155 654 -155 654 -137.5 663.5 c 128,-1,21
 -120 673 -120 673 -100 673 c 0,22,23
 -69 673 -69 673 -51 655 c 128,-1,24
 -33 637 -33 637 -33 607 c 0,25,26
 -33 565 -33 565 -77 523 c 128,-1,27
 -121 481 -121 481 -218 447 c 0,28,29
 -221 449 -221 449 -224 457 c 128,-1,30
 -227 465 -227 465 -226 470 c 1,31,32
 -91 532 -91 532 -91 581 c 0,33,34
 -91 597 -91 597 -101 607 c 128,-1,35
 -111 617 -111 617 -129 617 c 0,36,37
 -149 617 -149 617 -170 599 c 1,38,39
 -175 559 -175 559 -223.5 518.5 c 128,-1,40
 -272 478 -272 478 -372 447 c 0,41,0
 -375 449 -375 449 -378 457 c 128,-1,1
EndSplineSet
Validated: 1048577
Ligature2: "Ligatures subtable" leftcurl_above leftcurl_above
LCarets2: 1 0
EndChar

StartChar: leftcurl_below
Encoding: 86 57421 112
Width: 0
GlyphClass: 4
Flags: W
AnchorPoint: "mkmk_down" -256 -325 basemark 0
AnchorPoint: "mkmk_down" -256 -125 mark 0
AnchorPoint: "TehtaBelow" -256 -125 mark 0
LayerCount: 2
Fore
SplineSet
-138.5 -64 m 128,-1,1
 -132 -71 -132 -71 -132 -75 c 0,2,3
 -177 -149 -177 -149 -206.5 -189 c 128,-1,4
 -236 -229 -236 -229 -263 -248.5 c 128,-1,5
 -290 -268 -290 -268 -321 -268 c 0,6,7
 -355 -268 -355 -268 -375 -247 c 128,-1,8
 -395 -226 -395 -226 -395 -193 c 256,9,10
 -395 -160 -395 -160 -374 -138.5 c 128,-1,11
 -353 -117 -353 -117 -307 -95 c 0,12,13
 -302 -95 -302 -95 -296.5 -101.5 c 128,-1,14
 -291 -108 -291 -108 -291 -113 c 1,15,16
 -312 -126 -312 -126 -321.5 -138.5 c 128,-1,17
 -331 -151 -331 -151 -331 -166 c 0,18,19
 -331 -182 -331 -182 -321 -193 c 128,-1,20
 -311 -204 -311 -204 -293 -204 c 0,21,22
 -270 -204 -270 -204 -247.5 -181 c 128,-1,23
 -225 -158 -225 -158 -171 -87 c 2,24,-1
 -148 -57 l 2,25,0
 -145 -57 -145 -57 -138.5 -64 c 128,-1,1
EndSplineSet
Validated: 1048577
EndChar

